<?xml version="1.0" standalone="no"?>
<!DOCTYPE svg PUBLIC "-//W3C//DTD SVG 20010904//EN"
 "http://www.w3.org/TR/2001/REC-SVG-20010904/DTD/svg10.dtd">
<svg version="1.0" xmlns="http://www.w3.org/2000/svg"
 width="100.000000pt" height="100.000000pt" viewBox="0 0 100.000000 100.000000"
 preserveAspectRatio="xMidYMid meet">

<g transform="translate(0.000000,100.000000) scale(0.100000,-0.100000)"
fill="#000000" stroke="none">
<path d="M360 952 c-83 -28 -119 -50 -183 -110 -68 -66 -109 -134 -131 -218
-57 -221 44 -439 249 -540 70 -34 87 -39 172 -42 117 -5 199 14 281 67 312
202 283 658 -54 818 -70 33 -86 37 -178 40 -78 2 -113 -1 -156 -15z m256 -180
l52 -147 83 3 84 2 -67 -35 c-38 -19 -68 -39 -68 -44 0 -5 29 -89 64 -188 l64
-178 -50 -3 c-28 -2 -56 -1 -62 1 -6 3 -36 73 -66 156 -45 125 -58 151 -72
148 -9 -3 -63 -30 -120 -60 l-104 -56 -18 -57 c-10 -31 -26 -76 -37 -100 l-18
-44 -56 0 c-30 0 -55 3 -55 8 0 4 9 31 20 60 11 28 17 52 14 52 -3 0 -19 -7
-37 -16 -29 -14 -27 -11 15 28 42 39 50 53 77 142 33 107 32 114 -19 117 -14
1 -5 5 20 8 l45 6 55 172 55 173 75 0 75 0 51 -148z"/>
<path d="M462 682 l-30 -90 42 5 c22 2 51 6 63 9 l22 4 -25 67 c-40 105 -38
105 -72 5z"/>
<path d="M416 541 c-3 -4 -10 -20 -16 -35 -9 -24 -8 -25 8 -16 9 5 31 21 47
35 l30 25 -32 0 c-17 0 -34 -4 -37 -9z"/>
</g>
</svg>
