<?xml version="1.0" ?><svg id="Layer_2" style="enable-background:new 0 0 32 32;" version="1.1" viewBox="0 0 32 32" xml:space="preserve" xmlns="http://www.w3.org/2000/svg" xmlns:xlink="http://www.w3.org/1999/xlink"><g><path d="M16,31.5c7.66699,0,13.90527-6.23779,13.90527-13.90527c0-5.29834-3.08008-10.20605-7.8457-12.50293   c-0.74512-0.36035-1.64355-0.04736-2.00293,0.69971c-0.35938,0.74658-0.0459,1.64307,0.7002,2.00244   c3.73535,1.80029,6.14844,5.64746,6.14844,9.80078C26.90527,23.60791,22.01367,28.5,16,28.5   c-6.01318,0-10.90527-4.89209-10.90527-10.90527c0-4.15332,2.41309-8.00049,6.14795-9.80078   c0.74609-0.35938,1.05957-1.25635,0.69971-2.00244c-0.35938-0.74609-1.25586-1.06006-2.00244-0.69971   c-4.76563,2.29688-7.84521,7.20508-7.84521,12.50293C2.09473,25.26221,8.33252,31.5,16,31.5z"/><path d="M16,11.12012c0.82861,0,1.5-0.67139,1.5-1.5V2c0-0.82861-0.67139-1.5-1.5-1.5S14.5,1.17139,14.5,2v7.62012   C14.5,10.44873,15.17139,11.12012,16,11.12012z"/></g></svg>