<?xml version="1.0" ?><svg id="Layer_2" style="enable-background:new 0 0 32 32;" version="1.1" viewBox="0 0 32 32" xml:space="preserve" xmlns="http://www.w3.org/2000/svg" xmlns:xlink="http://www.w3.org/1999/xlink"><g><path d="M30,6.62012H2c-0.82861,0-1.5,0.67188-1.5,1.5v3.76953c0,0.82813,0.67139,1.5,1.5,1.5   c1.43896,0,2.60986,1.1709,2.60986,2.61035S3.43896,18.61035,2,18.61035c-0.82861,0-1.5,0.67188-1.5,1.5v3.76953   c0,0.82813,0.67139,1.5,1.5,1.5h28c0.82861,0,1.5-0.67188,1.5-1.5v-3.76953c0-0.82813-0.67139-1.5-1.5-1.5   c-1.43896,0-2.60986-1.1709-2.60986-2.61035S28.56104,13.38965,30,13.38965c0.82861,0,1.5-0.67188,1.5-1.5V8.12012   C31.5,7.29199,30.82861,6.62012,30,6.62012z M28.5,10.59375C26.13281,11.25098,24.39014,13.42578,24.39014,16   s1.74268,4.74902,4.10986,5.40625v0.97363h-25v-0.97363C5.86719,20.74902,7.60986,18.57422,7.60986,16   S5.86719,11.25098,3.5,10.59375V9.62012h25V10.59375z"/><path d="M21,20.99512c0.82861,0,1.5-0.67188,1.5-1.5v-6.99023c0-0.82813-0.67139-1.5-1.5-1.5s-1.5,0.67188-1.5,1.5v6.99023   C19.5,20.32324,20.17139,20.99512,21,20.99512z"/></g></svg>