<?xml version="1.0" ?><svg id="Layer_2" style="enable-background:new 0 0 32 32;" version="1.1" viewBox="0 0 32 32" xml:space="preserve" xmlns="http://www.w3.org/2000/svg" xmlns:xlink="http://www.w3.org/1999/xlink"><g><path d="M28,7.79004h-6.85742V7.03467c0-1.92969-1.57031-3.5-3.5-3.5h-3.28516c-1.92969,0-3.5,1.57031-3.5,3.5v0.75537H4   c-1.92969,0-3.5,1.57031-3.5,3.5v13.67529c0,1.92969,1.57031,3.5,3.5,3.5h24c1.92969,0,3.5-1.57031,3.5-3.5V11.29004   C31.5,9.36035,29.92969,7.79004,28,7.79004z M13.85742,7.03467c0-0.27588,0.22461-0.5,0.5-0.5h3.28516   c0.27539,0,0.5,0.22412,0.5,0.5v0.75537h-4.28516V7.03467z M28.5,24.96533c0,0.27588-0.22461,0.5-0.5,0.5H4   c-0.27539,0-0.5-0.22412-0.5-0.5V11.29004c0-0.27588,0.22461-0.5,0.5-0.5h24c0.27539,0,0.5,0.22412,0.5,0.5V24.96533z"/><path d="M8.96973,11.59717H6.6582c-0.82813,0-1.5,0.67139-1.5,1.5s0.67188,1.5,1.5,1.5h2.31152c0.82813,0,1.5-0.67139,1.5-1.5   S9.79785,11.59717,8.96973,11.59717z"/><path d="M14.84473,14.59717h2.31055c0.82813,0,1.5-0.67139,1.5-1.5s-0.67188-1.5-1.5-1.5h-2.31055c-0.82813,0-1.5,0.67139-1.5,1.5   S14.0166,14.59717,14.84473,14.59717z"/><path d="M25.3418,11.59717h-2.31152c-0.82813,0-1.5,0.67139-1.5,1.5s0.67188,1.5,1.5,1.5h2.31152c0.82813,0,1.5-0.67139,1.5-1.5   S26.16992,11.59717,25.3418,11.59717z"/><path d="M8.96973,16.62793H6.6582c-0.82813,0-1.5,0.67139-1.5,1.5s0.67188,1.5,1.5,1.5h2.31152c0.82813,0,1.5-0.67139,1.5-1.5   S9.79785,16.62793,8.96973,16.62793z"/><path d="M14.84473,19.62793h2.31055c0.82813,0,1.5-0.67139,1.5-1.5s-0.67188-1.5-1.5-1.5h-2.31055c-0.82813,0-1.5,0.67139-1.5,1.5   S14.0166,19.62793,14.84473,19.62793z"/><path d="M25.3418,16.62793h-2.31152c-0.82813,0-1.5,0.67139-1.5,1.5s0.67188,1.5,1.5,1.5h2.31152c0.82813,0,1.5-0.67139,1.5-1.5   S26.16992,16.62793,25.3418,16.62793z"/><path d="M8.96973,21.6582H6.6582c-0.82813,0-1.5,0.67139-1.5,1.5s0.67188,1.5,1.5,1.5h2.31152c0.82813,0,1.5-0.67139,1.5-1.5   S9.79785,21.6582,8.96973,21.6582z"/><path d="M18.98242,21.6582h-5.96484c-0.82813,0-1.5,0.67139-1.5,1.5s0.67188,1.5,1.5,1.5h5.96484c0.82813,0,1.5-0.67139,1.5-1.5   S19.81055,21.6582,18.98242,21.6582z"/><path d="M25.3418,21.6582h-2.31152c-0.82813,0-1.5,0.67139-1.5,1.5s0.67188,1.5,1.5,1.5h2.31152c0.82813,0,1.5-0.67139,1.5-1.5   S26.16992,21.6582,25.3418,21.6582z"/></g></svg>