<?xml version="1.0" ?><svg id="Layer_2" style="enable-background:new 0 0 32 32;" version="1.1" viewBox="0 0 32 32" xml:space="preserve" xmlns="http://www.w3.org/2000/svg" xmlns:xlink="http://www.w3.org/1999/xlink"><g><path d="M20.88922,0.93945c-0.58594-0.58594-1.53516-0.58594-2.12109,0s-0.58594,1.53516,0,2.12109l1.12708,1.12701   l-5.94824,4.50531c-2.47766-0.72913-5.26929-0.11823-7.22034,1.8335l-2.13379,2.13379   c-0.28125,0.28125-0.43945,0.66309-0.43945,1.06055s0.1582,0.7793,0.43945,1.06055L7.3811,17.5694L0.69781,29.25488   c-0.33594,0.58789-0.23682,1.32715,0.2417,1.80566C1.22809,31.34961,1.61237,31.5,2.00055,31.5   c0.25488,0,0.51123-0.06445,0.74414-0.19824l11.6861-6.68292l2.78851,2.78839c0.29297,0.29297,0.67676,0.43945,1.06055,0.43945   s0.76758-0.14648,1.06055-0.43945l2.13379-2.13379c1.95154-1.95117,2.56232-4.7431,1.83307-7.22089l4.50519-5.94812   l1.12708,1.12701c0.29297,0.29297,0.67676,0.43945,1.06055,0.43945s0.76758-0.14648,1.06055-0.43945   c0.58594-0.58594,0.58594-1.53516,0-2.12109L20.88922,0.93945z M6.03668,25.96387l3.54346-6.19531l2.65234,2.65234   L6.03668,25.96387z M19.35309,23.15234l-1.07324,1.07324L7.77448,13.7207l1.07324-1.07324   c1.67188-1.67188,4.39063-1.67188,6.0625,0l4.44287,4.44238C21.02448,18.76172,21.02448,21.48047,19.35309,23.15234z    M21.69501,15.21307c-0.07416-0.08112-4.82721-4.83362-4.90851-4.90796l5.25018-3.97601l3.63428,3.63477L21.69501,15.21307z"/></g></svg>