<?xml version="1.0" ?><svg id="Layer_2" style="enable-background:new 0 0 32 32;" version="1.1" viewBox="0 0 32 32" xml:space="preserve" xmlns="http://www.w3.org/2000/svg" xmlns:xlink="http://www.w3.org/1999/xlink"><g><path d="M21.50098,8.99902H10.49902c-0.82813,0-1.5,0.67139-1.5,1.5v11.00195c0,0.82861,0.67188,1.5,1.5,1.5h11.00195   c0.82813,0,1.5-0.67139,1.5-1.5V10.49902C23.00098,9.67041,22.3291,8.99902,21.50098,8.99902z M20.00098,20.00098h-8.00195   v-8.00195h8.00195V20.00098z"/><path d="M16,0.5C7.45313,0.5,0.5,7.45313,0.5,16S7.45313,31.5,16,31.5S31.5,24.54688,31.5,16S24.54688,0.5,16,0.5z M16,28.5   C9.10742,28.5,3.5,22.89258,3.5,16S9.10742,3.5,16,3.5S28.5,9.10742,28.5,16S22.89258,28.5,16,28.5z"/></g></svg>