<?xml version="1.0" ?><svg id="Layer_2" style="enable-background:new 0 0 32 32;" version="1.1" viewBox="0 0 32 32" xml:space="preserve" xmlns="http://www.w3.org/2000/svg" xmlns:xlink="http://www.w3.org/1999/xlink"><g><path d="M28,4.5H4C2.07031,4.5,0.5,6.07031,0.5,8v16c0,1.92969,1.57031,3.5,3.5,3.5h24c1.92969,0,3.5-1.57031,3.5-3.5V8   C31.5,6.07031,29.92969,4.5,28,4.5z M28.5,24c0,0.27588-0.22412,0.5-0.5,0.5H4c-0.27588,0-0.5-0.22412-0.5-0.5V12.5h25V24z    M28.5,9.5h-25V8c0-0.27588,0.22412-0.5,0.5-0.5h24c0.27588,0,0.5,0.22412,0.5,0.5V9.5z"/><path d="M6.41309,23.08691h2.71436c0.82861,0,1.5-0.67139,1.5-1.5s-0.67139-1.5-1.5-1.5H6.41309c-0.82861,0-1.5,0.67139-1.5,1.5   S5.58447,23.08691,6.41309,23.08691z"/></g></svg>