<?xml version="1.0" ?><svg id="Layer_2" style="enable-background:new 0 0 32 32;" version="1.1" viewBox="0 0 32 32" xml:space="preserve" xmlns="http://www.w3.org/2000/svg" xmlns:xlink="http://www.w3.org/1999/xlink"><path d="M24.22461,8.2041h-2.00977V6.71436C22.21484,3.2876,19.42676,0.5,16,0.5S9.78516,3.2876,9.78516,6.71436V8.2041H7.77539  c-1.37891,0-2.5,1.12158-2.5,2.5v1.98877c0,2.95361,1.24121,5.80859,3.40527,7.83154  c1.63959,1.53326,3.65466,2.47778,5.81934,2.7785V28.5h-2.29492c-0.82813,0-1.5,0.67139-1.5,1.5s0.67188,1.5,1.5,1.5h7.58984  c0.82813,0,1.5-0.67139,1.5-1.5s-0.67188-1.5-1.5-1.5H17.5v-5.19824c5.22968-0.74573,9.22461-5.39758,9.22461-10.93555V10.7041  C26.72461,9.32568,25.60352,8.2041,24.22461,8.2041z M16,3.5c1.77246,0,3.21484,1.44189,3.21484,3.21436v5.97949  c0,1.77246-1.44238,3.21484-3.21484,3.21484s-3.21484-1.44238-3.21484-3.21484V6.71436C12.78516,4.94189,14.22754,3.5,16,3.5z   M23.72461,12.36621c0,4.2334-3.15918,7.76221-7.19238,8.03271c-2.16406,0.14502-4.22363-0.58936-5.80273-2.06543  c-1.58301-1.47998-2.4541-3.48291-2.4541-5.64063V11.2041h1.50977v1.48975c0,3.42676,2.78809,6.21484,6.21484,6.21484  s6.21484-2.78809,6.21484-6.21484V11.2041h1.50977V12.36621z"/></svg>