<?xml version="1.0" ?><svg id="Layer_2" style="enable-background:new 0 0 32 32;" version="1.1" viewBox="0 0 32 32" xml:space="preserve" xmlns="http://www.w3.org/2000/svg" xmlns:xlink="http://www.w3.org/1999/xlink"><g><path d="M27,2.5H5C2.51855,2.5,0.5,4.51855,0.5,7v18c0,2.48145,2.01855,4.5,4.5,4.5h22c2.48145,0,4.5-2.01855,4.5-4.5V7   C31.5,4.51855,29.48145,2.5,27,2.5z M12.36035,5.5h7.2793v5.42676l-3.0498-1.30566C16.40137,9.54004,16.20117,9.5,16,9.5   s-0.40137,0.04004-0.58984,0.12109l-3.0498,1.30566V5.5z M28.5,25c0,0.82715-0.67285,1.5-1.5,1.5H5c-0.82715,0-1.5-0.67285-1.5-1.5   V7c0-0.82715,0.67285-1.5,1.5-1.5h4.36035v7.7002c0,0.50391,0.25293,0.97461,0.67383,1.25195s0.95508,0.3252,1.41602,0.12695   L16,12.63184l4.5498,1.94727c0.18848,0.08105,0.38965,0.12109,0.58984,0.12109c0.28906,0,0.57715-0.08398,0.82617-0.24805   c0.4209-0.27734,0.67383-0.74805,0.67383-1.25195V5.5H27c0.82715,0,1.5,0.67285,1.5,1.5V25z"/></g></svg>