<?xml version="1.0" ?><svg id="Layer_2" style="enable-background:new 0 0 32 32;" version="1.1" viewBox="0 0 32 32" xml:space="preserve" xmlns="http://www.w3.org/2000/svg" xmlns:xlink="http://www.w3.org/1999/xlink"><g><path d="M24.97559,1.78418H7.0127C3.42188,1.78418,0.5,4.70605,0.5,8.29785v8.08496c0,0.82813,0.67188,1.5,1.5,1.5h12.5v9.33301   h-2.74121c-0.82813,0-1.5,0.67188-1.5,1.5s0.67188,1.5,1.5,1.5h8.48242c0.82813,0,1.5-0.67188,1.5-1.5s-0.67188-1.5-1.5-1.5H17.5   v-9.33301H30c0.82813,0,1.5-0.67188,1.5-1.5V8.29785c0-1.74805-0.68164-3.38477-1.91211-4.60059   C28.35449,2.46387,26.7168,1.78418,24.97559,1.78418z M10.52637,14.88281H3.5V8.29785c0-1.9375,1.57617-3.51367,3.5127-3.51367   c0.93945,0,1.82422,0.36719,2.49121,1.03418c0.65918,0.65918,1.02246,1.54004,1.02246,2.47949V14.88281z M28.5,14.88281H13.52637   V8.29785c0-1.26758-0.36163-2.47595-1.02936-3.51367h12.47858c0.93945,0,1.82422,0.36719,2.49707,1.04102   C28.13574,6.47949,28.5,7.35742,28.5,8.29785V14.88281z"/></g></svg>