<?xml version="1.0" ?><svg id="Layer_2" style="enable-background:new 0 0 32 32;" version="1.1" viewBox="0 0 32 32" xml:space="preserve" xmlns="http://www.w3.org/2000/svg" xmlns:xlink="http://www.w3.org/1999/xlink"><g><path d="M4.52026,4.49463L0.63971,22.89575c-0.40137,1.9054,0.07129,3.86493,1.29791,5.3772   c1.22662,1.51178,3.04651,2.37903,4.99341,2.37903h18.13794c1.94733,0,3.76776-0.86725,4.99438-2.37952   c1.22559-1.51227,1.6983-3.4718,1.29688-5.37671l-3.88-18.40063c-0.38379-1.82379-2.01575-3.14709-3.87909-3.14709H8.39984   C6.53595,1.34802,4.90454,2.67133,4.52026,4.49463z M8.39984,4.34814h15.20129c0.45313,0,0.84967,0.32178,0.94342,0.76563   l3.88,18.40118c0.2149,1.01617-0.03809,2.0611-0.69141,2.8678c-0.65436,0.80664-1.62506,1.2691-2.66418,1.2691H6.93103   c-1.03864,0-2.0094-0.46246-2.66321-1.2691c-0.65436-0.80621-0.9068-1.85162-0.69244-2.8678L7.45593,5.11328   C7.54919,4.66992,7.94617,4.34814,8.39984,4.34814z"/><path d="M16.00024,21.93774c3.90839,0,7.08722-3.17932,7.08722-7.08722v-7.3089c0-0.82867-0.67194-1.50006-1.50006-1.50006   c-0.82819,0-1.50006,0.67139-1.50006,1.50006v7.3089c0,2.25354-1.83313,4.0871-4.0871,4.0871   c-2.25354,0-4.0871-1.83356-4.0871-4.0871v-7.3089c0-0.82867-0.67139-1.50006-1.50006-1.50006S8.91302,6.71295,8.91302,7.54163   v7.3089C8.91302,18.75842,12.09235,21.93774,16.00024,21.93774z"/></g></svg>