<?xml version="1.0" ?><svg id="Layer_2" style="enable-background:new 0 0 32 32;" version="1.1" viewBox="0 0 32 32" xml:space="preserve" xmlns="http://www.w3.org/2000/svg" xmlns:xlink="http://www.w3.org/1999/xlink"><path d="M31.39746,9.2041c0-1.97949-1.60986-3.58984-3.58887-3.58984h-3.68115V5.13379c0-2.55469-2.07861-4.63379-4.63379-4.63379  h-6.9873c-2.55518,0-4.63379,2.0791-4.63379,4.63379v0.48047H4.19141c-1.979,0-3.58887,1.61035-3.58887,3.58984v1.62695  c0,2.14545,0.77234,4.11267,2.05127,5.64258v9.34766c0,3.13086,2.54736,5.67871,5.67871,5.67871h15.33496  c3.13135,0,5.67871-2.54785,5.67871-5.67871v-9.34766c1.27893-1.52991,2.05127-3.49713,2.05127-5.64258V9.2041z M10.87256,5.13379  c0-0.90039,0.73291-1.63379,1.63379-1.63379h6.9873c0.90088,0,1.63379,0.7334,1.63379,1.63379v0.48047H10.87256V5.13379z   M3.60254,9.2041c0-0.3252,0.26416-0.58984,0.58887-0.58984h23.61719c0.32471,0,0.58887,0.26465,0.58887,0.58984v1.62695  c0,1.55182-0.61493,2.96002-1.60919,4.00354c-0.00336,0.00336-0.00629,0.0072-0.00964,0.01062  c-1.05872,1.10571-2.54529,1.79834-4.19318,1.79834h-0.73926V16.2334c0-0.82813-0.67139-1.5-1.5-1.5s-1.5,0.67188-1.5,1.5v0.41016  h-5.69238V16.2334c0-0.82813-0.67139-1.5-1.5-1.5s-1.5,0.67188-1.5,1.5v0.41016H9.41455c-1.64789,0-3.13446-0.69263-4.19318-1.79834  c-0.00336-0.00342-0.00629-0.00726-0.00964-0.01062c-0.99426-1.04352-1.60919-2.45172-1.60919-4.00354V9.2041z M23.66748,28.5  H8.33252c-1.47705,0-2.67871-1.20215-2.67871-2.67871v-7.03253c1.14246,0.5423,2.41431,0.8548,3.76074,0.8548h0.73926v0.41016  c0,0.82813,0.67139,1.5,1.5,1.5s1.5-0.67188,1.5-1.5v-0.41016h5.69238v0.41016c0,0.82813,0.67139,1.5,1.5,1.5s1.5-0.67188,1.5-1.5  v-0.41016h0.73926c1.34644,0,2.61829-0.3125,3.76074-0.8548v7.03253C26.34619,27.29785,25.14453,28.5,23.66748,28.5z"/></svg>