<?xml version="1.0" ?><svg id="Layer_2" style="enable-background:new 0 0 32 32;" version="1.1" viewBox="0 0 32 32" xml:space="preserve" xmlns="http://www.w3.org/2000/svg" xmlns:xlink="http://www.w3.org/1999/xlink"><g><path d="M2,31.5h5.82129c0.82861,0,1.5-0.67188,1.5-1.5V16c0-0.82813-0.67139-1.5-1.5-1.5H2c-0.82861,0-1.5,0.67188-1.5,1.5v14   C0.5,30.82813,1.17139,31.5,2,31.5z M3.5,17.5h2.82129v11H3.5V17.5z"/><path d="M13.08936,31.5h5.82178c0.82813,0,1.5-0.67188,1.5-1.5V9c0-0.82813-0.67188-1.5-1.5-1.5h-5.82178   c-0.82861,0-1.5,0.67188-1.5,1.5v21C11.58936,30.82813,12.26074,31.5,13.08936,31.5z M14.58936,10.5h2.82178v18h-2.82178V10.5z"/><path d="M31.5,30V2c0-0.82813-0.67188-1.5-1.5-1.5h-5.82129c-0.82813,0-1.5,0.67188-1.5,1.5v28c0,0.82813,0.67188,1.5,1.5,1.5H30   C30.82813,31.5,31.5,30.82813,31.5,30z M28.5,28.5h-2.82129v-25H28.5V28.5z"/></g></svg>