<?xml version="1.0" ?><svg id="Layer_2" style="enable-background:new 0 0 32 32;" version="1.1" viewBox="0 0 32 32" xml:space="preserve" xmlns="http://www.w3.org/2000/svg" xmlns:xlink="http://www.w3.org/1999/xlink"><path d="M28.7002,4.60742C25.23438,1.1416,19.74463,0.9043,16.00293,3.89453c-1.69434-1.35254-3.77441-2.08691-5.95898-2.08691  c-2.54541,0-4.94141,0.99414-6.74658,2.7998C1.49316,6.41113,0.5,8.80859,0.5,11.35938c0,2.55176,0.99316,4.94922,2.82031,6.77539  L14.9375,29.75293c0.28125,0.28125,0.6626,0.43945,1.06055,0.43945c0.00049,0,0.00049,0,0.00049,0  c0.39795,0,0.7793-0.1582,1.06055-0.43945L28.7041,18.1084c1.80273-1.81543,2.7959-4.21387,2.7959-6.75391  C31.5,8.80859,30.50586,6.41309,28.7002,4.60742z M26.58008,15.99023L15.99902,26.57031L5.66357,16.22559l-0.24512-0.23438  C4.18115,14.75391,3.5,13.10938,3.5,11.35938c0-1.74902,0.68115-3.39355,1.91846-4.63086  c1.23877-1.23828,2.88135-1.9209,4.62549-1.9209c1.74268,0,3.39063,0.68359,4.61426,1.89844l0.25732,0.26855  c0.27881,0.29102,0.66357,0.45703,1.06689,0.46191c0.37988-0.03418,0.7915-0.1543,1.07666-0.43945l0.26855-0.26855  c2.55127-2.55078,6.70117-2.55078,9.25146,0C27.81787,7.96777,28.5,9.61035,28.5,11.35449  C28.5,13.09766,27.81641,14.74512,26.58008,15.99023z"/></svg>