<?xml version="1.0" ?><svg id="Layer_2" style="enable-background:new 0 0 32 32;" version="1.1" viewBox="0 0 32 32" xml:space="preserve" xmlns="http://www.w3.org/2000/svg" xmlns:xlink="http://www.w3.org/1999/xlink"><g><path d="M17.76855,0.5h-3.53809c-1.92969,0-3.5,1.57031-3.5,3.5v1.43066H10.4668c-1.92969,0-3.5,1.57031-3.5,3.5V28   c0,1.92969,1.57031,3.5,3.5,3.5H21.5332c1.92969,0,3.5-1.57031,3.5-3.5V8.93066c0-1.92969-1.57031-3.5-3.5-3.5h-0.26465V4   C21.26855,2.07031,19.69824,0.5,17.76855,0.5z M13.73047,4c0-0.27588,0.22461-0.5,0.5-0.5h3.53809c0.27539,0,0.5,0.22412,0.5,0.5   v1.43066h-4.53809V4z M21.5332,8.43066c0.27539,0,0.5,0.22412,0.5,0.5V28c0,0.27588-0.22461,0.5-0.5,0.5H10.4668   c-0.27539,0-0.5-0.22412-0.5-0.5V8.93066c0-0.27588,0.22461-0.5,0.5-0.5H21.5332z"/><path d="M13.02246,19.96533H14.5v1.47754c0,0.82861,0.67188,1.5,1.5,1.5s1.5-0.67139,1.5-1.5v-1.47754h1.47656   c0.82813,0,1.5-0.67139,1.5-1.5s-0.67188-1.5-1.5-1.5H17.5v-1.47754c0-0.82861-0.67188-1.5-1.5-1.5s-1.5,0.67139-1.5,1.5v1.47754   h-1.47754c-0.82813,0-1.5,0.67139-1.5,1.5S12.19434,19.96533,13.02246,19.96533z"/></g></svg>