<?xml version="1.0" ?><svg id="Layer_2" style="enable-background:new 0 0 32 32;" version="1.1" viewBox="0 0 32 32" xml:space="preserve" xmlns="http://www.w3.org/2000/svg" xmlns:xlink="http://www.w3.org/1999/xlink"><g><path d="M28,5.18457H4c-1.92969,0-3.5,1.57031-3.5,3.5v14.63086c0,1.92969,1.57031,3.5,3.5,3.5h24c1.92969,0,3.5-1.57031,3.5-3.5   V8.68457C31.5,6.75488,29.92969,5.18457,28,5.18457z M3.5,8.68457c0-0.27539,0.22461-0.5,0.5-0.5h2.21179   C5.75861,9.44751,4.76361,10.44128,3.5,10.89301V8.68457z M4,23.81543c-0.27539,0-0.5-0.22461-0.5-0.5v-2.20844   c1.26361,0.45172,2.25861,1.4455,2.71179,2.70844H4z M28.5,23.31543c0,0.27539-0.22461,0.5-0.5,0.5h-2.21179   c0.45319-1.26294,1.44818-2.25671,2.71179-2.70844V23.31543z M28.5,17.98138c-2.92719,0.59747-5.23883,2.90753-5.8382,5.83405   H9.3382C8.73883,20.88892,6.42719,18.57886,3.5,17.98138v-3.96277c2.92719-0.59747,5.23883-2.90753,5.8382-5.83405H22.6618   c0.59937,2.92651,2.91101,5.23657,5.8382,5.83405V17.98138z M28.5,10.89301c-1.26361-0.45172-2.25861-1.4455-2.71179-2.70844H28   c0.27539,0,0.5,0.22461,0.5,0.5V10.89301z"/><path d="M16,9.81934c-3.4082,0-6.18066,2.77246-6.18066,6.18066S12.5918,22.18066,16,22.18066S22.18066,19.4082,22.18066,16   S19.4082,9.81934,16,9.81934z M16,19.18066c-1.75391,0-3.18066-1.42676-3.18066-3.18066S14.24609,12.81934,16,12.81934   S19.18066,14.24609,19.18066,16S17.75391,19.18066,16,19.18066z"/></g></svg>