<?xml version="1.0" ?><svg id="Layer_2" style="enable-background:new 0 0 32 32;" version="1.1" viewBox="0 0 32 32" xml:space="preserve" xmlns="http://www.w3.org/2000/svg" xmlns:xlink="http://www.w3.org/1999/xlink"><g><path d="M27,1.70557H5c-2.48145,0-4.5,2.01855-4.5,4.5v13c0,2.48145,2.01855,4.5,4.5,4.5h5.93927l-1.06012,3.58887H7.69531   c-0.82861,0-1.5,0.67139-1.5,1.5s0.67139,1.5,1.5,1.5h16.60938c0.82861,0,1.5-0.67139,1.5-1.5s-0.67139-1.5-1.5-1.5h-2.18384   l-1.06012-3.58887H27c2.48145,0,4.5-2.01855,4.5-4.5v-13C31.5,3.72412,29.48145,1.70557,27,1.70557z M13.00732,27.29443   l1.06006-3.58887h3.86523l1.06006,3.58887H13.00732z M28.5,19.20557c0,0.82715-0.67285,1.5-1.5,1.5H5   c-0.82715,0-1.5-0.67285-1.5-1.5v-0.37012h25V19.20557z M28.5,15.83545h-25V6.20557c0-0.82715,0.67285-1.5,1.5-1.5h22   c0.82715,0,1.5,0.67285,1.5,1.5V15.83545z"/></g></svg>