<?xml version="1.0" ?><svg id="Layer_2" style="enable-background:new 0 0 32 32;" version="1.1" viewBox="0 0 32 32" xml:space="preserve" xmlns="http://www.w3.org/2000/svg" xmlns:xlink="http://www.w3.org/1999/xlink"><g><path d="M24.78357,17.52661c-0.58545,0.58594-0.58545,1.53613,0.00049,2.12109c0.29297,0.29297,0.67676,0.43945,1.06055,0.43945   s0.76807-0.14648,1.06104-0.43945l1.57422-1.5752c1.94629-1.94629,3.01807-4.53125,3.01807-7.27832   s-1.07178-5.33203-3.01807-7.27832c-4.0127-4.01367-10.54297-4.01367-14.55664,0l-1.57471,1.5752   C11.76306,5.677,11.76306,6.6272,12.349,7.21216c0.58594,0.58594,1.53564,0.58594,2.12158,0l1.57422-1.5752   c2.84326-2.84277,7.46973-2.84277,10.31396,0c1.37939,1.37988,2.13916,3.21094,2.13916,5.15723s-0.75977,3.77734-2.13965,5.15723   L24.78357,17.52661z"/><path d="M3.5116,28.48462c2.00684,2.00684,4.64258,3.00977,7.27832,3.00977s5.27197-1.00391,7.27881-3.00977l1.57471-1.5752   c0.58545-0.58594,0.58545-1.53613-0.00049-2.12109c-0.58594-0.58594-1.53564-0.58594-2.12158,0l-1.57422,1.5752   c-2.84277,2.84277-7.46973,2.84277-10.31445,0c-2.84326-2.84375-2.84326-7.4707,0-10.31445l1.5752-1.5752   c0.58594-0.58594,0.58594-1.53516,0-2.12109s-1.53516-0.58594-2.12109,0l-1.5752,1.5752   C-0.5011,17.94165-0.5011,24.47095,3.5116,28.48462z"/><path d="M22.43298,9.56274c-0.58594-0.58594-1.53613-0.58594-2.12109,0L9.55896,20.31665   c-0.58594,0.58594-0.58594,1.53516,0,2.12109c0.29297,0.29297,0.67676,0.43945,1.06055,0.43945s0.76807-0.14648,1.06055-0.43945   l10.75293-10.75391C23.01892,11.0979,23.01892,10.14868,22.43298,9.56274z"/></g></svg>