<?xml version="1.0" ?><svg id="Layer_2" style="enable-background:new 0 0 32 32;" version="1.1" viewBox="0 0 32 32" xml:space="preserve" xmlns="http://www.w3.org/2000/svg" xmlns:xlink="http://www.w3.org/1999/xlink"><g><path d="M16,0.5c-5.49023,0-9.95703,4.4668-9.95703,9.95752c0,9.4126,8.42773,20.0332,8.78711,20.48096   C15.11426,31.29346,15.54492,31.5,16,31.5s0.88574-0.20654,1.16992-0.56152c0.35938-0.44775,8.78711-11.06836,8.78711-20.48096   C25.95703,4.9668,21.49023,0.5,16,0.5z M15.99902,27.47852c-2.25-3.18799-6.95605-10.62012-6.95605-17.021   C9.04297,6.62109,12.16406,3.5,16,3.5s6.95703,3.12109,6.95703,6.95752C22.95703,16.84668,18.24902,24.2876,15.99902,27.47852z"/><path d="M16,4.90625c-3.06055,0-5.55078,2.49023-5.55078,5.55127c0,3.06055,2.49023,5.55078,5.55078,5.55078   s5.55078-2.49023,5.55078-5.55078C21.55078,7.39648,19.06055,4.90625,16,4.90625z M16,13.0083   c-1.40625,0-2.55078-1.14404-2.55078-2.55078S14.59375,7.90625,16,7.90625s2.55078,1.14453,2.55078,2.55127   S17.40625,13.0083,16,13.0083z"/></g></svg>