<?xml version="1.0" ?><svg id="Layer_2" style="enable-background:new 0 0 32 32;" version="1.1" viewBox="0 0 32 32" xml:space="preserve" xmlns="http://www.w3.org/2000/svg" xmlns:xlink="http://www.w3.org/1999/xlink"><g><path d="M28,7.65625h-4.41797c-0.18213,0-0.3501-0.09912-0.43799-0.2583l-1.22607-2.22021   c-0.61621-1.11475-1.79004-1.80713-3.06348-1.80713h-5.70898c-1.27344,0-2.44727,0.69238-3.06348,1.80762L8.85596,7.39795   c-0.08789,0.15918-0.25586,0.2583-0.43799,0.2583H4c-1.92969,0-3.5,1.57031-3.5,3.5v13.97314c0,1.92969,1.57031,3.5,3.5,3.5h24   c1.92969,0,3.5-1.57031,3.5-3.5V11.15625C31.5,9.22656,29.92969,7.65625,28,7.65625z M28.5,25.12939c0,0.27588-0.22412,0.5-0.5,0.5   H4c-0.27588,0-0.5-0.22412-0.5-0.5V11.15625c0-0.27588,0.22412-0.5,0.5-0.5h4.41797c1.27393,0,2.44824-0.69238,3.06396-1.80762   l1.22607-2.21973c0.08789-0.15918,0.25537-0.2583,0.4375-0.2583h5.70898c0.18213,0,0.34961,0.09912,0.4375,0.25781l1.22607,2.22021   c0,0,0,0,0,0.00049c0.61572,1.11475,1.79004,1.80713,3.06396,1.80713H28c0.27588,0,0.5,0.22412,0.5,0.5V25.12939z"/><path d="M16,11.64307c-3.58398,0-6.5,2.91602-6.5,6.5s2.91602,6.5,6.5,6.5s6.5-2.91602,6.5-6.5S19.58398,11.64307,16,11.64307z    M16,21.64307c-1.92969,0-3.5-1.57031-3.5-3.5s1.57031-3.5,3.5-3.5s3.5,1.57031,3.5,3.5S17.92969,21.64307,16,21.64307z"/></g></svg>