<?xml version="1.0" ?><svg id="Layer_2" style="enable-background:new 0 0 32 32;" version="1.1" viewBox="0 0 32 32" xml:space="preserve" xmlns="http://www.w3.org/2000/svg" xmlns:xlink="http://www.w3.org/1999/xlink"><g><path d="M17.5,18.35596V7.36621c0-0.82813-0.67139-1.5-1.5-1.5s-1.5,0.67188-1.5,1.5v10.98975   c-1.74963,0.62183-3.01318,2.2771-3.01318,4.23779c0,2.48926,2.02441,4.51367,4.51318,4.51367s4.51318-2.02441,4.51318-4.51367   C20.51318,20.63306,19.24963,18.97778,17.5,18.35596z M16,24.10742c-0.83447,0-1.51318-0.67871-1.51318-1.51367   S15.16553,21.08008,16,21.08008s1.51318,0.67871,1.51318,1.51367S16.83447,24.10742,16,24.10742z"/><path d="M21.49121,15.58789V5.99121C21.49121,2.96289,19.02783,0.5,16,0.5s-5.49121,2.46289-5.49121,5.49121v9.59668   c-2.15283,1.68359-3.41504,4.24512-3.41504,7.00586C7.09375,27.50488,11.08887,31.5,16,31.5s8.90625-3.99512,8.90625-8.90625   C24.90625,19.83301,23.64404,17.27148,21.49121,15.58789z M16,28.5c-3.25684,0-5.90625-2.64941-5.90625-5.90625   c0-2.01758,1.01855-3.875,2.7251-4.96973c0.43018-0.27637,0.68994-0.75195,0.68994-1.2627V5.99121   C13.50879,4.61719,14.62646,3.5,16,3.5s2.49121,1.11719,2.49121,2.49121v10.37012c0,0.51074,0.25977,0.98633,0.68994,1.2627   c1.70654,1.09473,2.7251,2.95215,2.7251,4.96973C21.90625,25.85059,19.25684,28.5,16,28.5z"/></g></svg>