<?xml version="1.0" ?><svg id="Layer_2" style="enable-background:new 0 0 32 32;" version="1.1" viewBox="0 0 32 32" xml:space="preserve" xmlns="http://www.w3.org/2000/svg" xmlns:xlink="http://www.w3.org/1999/xlink"><g><path d="M16,0.5C7.45313,0.5,0.5,7.45313,0.5,16S7.45313,31.5,16,31.5S31.5,24.54688,31.5,16S24.54688,0.5,16,0.5z M16,28.5   c-4.75085,0-8.88977-2.66492-11.00409-6.57764l4.92407-4.57239l2.63837,2.63837l-1.07886,1.00189   c-0.60742,0.56348-0.64258,1.5127-0.0791,2.12012c0.2959,0.31836,0.69727,0.47949,1.09961,0.47949   c0.36523,0,0.73145-0.13232,1.02051-0.40039l9.60156-8.9165l4.94318,4.94275C26.64087,24.55219,21.77917,28.5,16,28.5z    M24.2207,11.12939c-0.57031-0.5708-1.49121-0.58789-2.08105-0.03857l-7.38287,6.85596l-3.73676-3.73682   C10.45001,13.64001,9.53003,13.62,8.94,14.16998l-5.08911,4.72046C3.62964,17.96088,3.5,16.99634,3.5,16   C3.5,9.10742,9.10742,3.5,16,3.5c6.68225,0,12.14056,5.27454,12.46844,11.87683L24.2207,11.12939z"/></g></svg>