<?xml version="1.0" ?><svg id="Layer_2" style="enable-background:new 0 0 32 32;" version="1.1" viewBox="0 0 32 32" xml:space="preserve" xmlns="http://www.w3.org/2000/svg" xmlns:xlink="http://www.w3.org/1999/xlink"><path d="M16,0.5C7.45313,0.5,0.5,7.45313,0.5,16S7.45313,31.5,16,31.5S31.5,24.54688,31.5,16S24.54688,0.5,16,0.5z   M22.96136,19.31989c0.10156-1.09363,0.15875-2.20636,0.15875-3.31989s-0.05719-2.22626-0.15875-3.31989  C26.43073,13.54651,28.5,14.94507,28.5,16S26.43073,18.45349,22.96136,19.31989z M16,28.5  c-1.05493,0-2.45349-2.06927-3.31989-5.53864c1.09363,0.10156,2.20636,0.15875,3.31989,0.15875s2.22626-0.05719,3.31989-0.15875  C18.45349,26.43073,17.05493,28.5,16,28.5z M16,20.12012c-1.38739,0-2.68701-0.08551-3.88647-0.23364  C11.96539,18.68701,11.87988,17.38739,11.87988,16s0.08551-2.68701,0.23364-3.88647  c1.19946-0.14813,2.49908-0.23364,3.88647-0.23364s2.68701,0.08551,3.88647,0.23364  c0.14813,1.19946,0.23364,2.49908,0.23364,3.88647s-0.08551,2.68701-0.23364,3.88647  C18.68701,20.03461,17.38739,20.12012,16,20.12012z M3.5,16c0-1.05493,2.06927-2.45349,5.53864-3.31989  C8.93707,13.77374,8.87988,14.88647,8.87988,16s0.05719,2.22626,0.15875,3.31989C5.56927,18.45349,3.5,17.05493,3.5,16z M16,3.5  c1.05493,0,2.45349,2.06927,3.31989,5.53864C18.22626,8.93707,17.11353,8.87988,16,8.87988s-2.22626,0.05719-3.31989,0.15875  C13.54651,5.56927,14.94507,3.5,16,3.5z M27.4837,11.07172c-1.4162-0.68707-3.12146-1.21265-4.97778-1.57764  c-0.36499-1.85632-0.89056-3.56158-1.57764-4.97778C23.86316,5.78076,26.21924,8.13684,27.4837,11.07172z M11.07172,4.51636  c-0.68707,1.41614-1.21265,3.1214-1.57764,4.97772c-1.85632,0.36499-3.56158,0.8905-4.97772,1.57758  C5.78076,8.13678,8.1369,5.78076,11.07172,4.51636z M4.51642,20.92834c1.41614,0.68701,3.12134,1.21259,4.97766,1.57758  c0.36499,1.85632,0.89056,3.56152,1.57758,4.97766C8.1369,26.21918,5.78082,23.8631,4.51642,20.92834z M20.92834,27.48364  c0.68707-1.41614,1.21259-3.1214,1.57758-4.97772c1.85632-0.36499,3.56158-0.89056,4.97772-1.57764  C26.21924,23.8631,23.86322,26.21924,20.92834,27.48364z"/></svg>