<?xml version="1.0" ?><svg id="Layer_2" style="enable-background:new 0 0 32 32;" version="1.1" viewBox="0 0 32 32" xml:space="preserve" xmlns="http://www.w3.org/2000/svg" xmlns:xlink="http://www.w3.org/1999/xlink"><g><path d="M7.34216,19.80267c-0.00006,0,1.33533,0,1.33533,0c1.97272-0.0332,1.97314-2.96899,0-3.00208H7.3421   C5.36945,16.83374,5.36902,19.76959,7.34216,19.80267z"/><path d="M23.30103,19.80267c-0.00006,0,1.33533,0,1.33533,0c1.97272-0.0332,1.97314-2.96899,0-3.00208h-1.33539   C21.32825,16.83374,21.32782,19.76959,23.30103,19.80267z"/><path d="M29.99896,8.21356h-1.81879l-2.3692-5.26196c-0.24231-0.53894-0.77838-0.88538-1.36908-0.88538H7.53656   c-0.5907,0-1.12671,0.34644-1.36908,0.88538l-2.3692,5.26196H1.97949c-1.96539,0.03351-1.97992,2.96649,0.00006,3.00208   c-0.00006,0,0.46698,0,0.46698,0c-0.1604,0.44293-1.12927,2.24677-1.07782,2.7182v8.73511   c0,0.82916,0.67188,1.50104,1.50104,1.50104h0.10406v1.90704c0.16431,5.13867,7.61688,5.14587,7.78229-0.00006   c0,0.00006,0-1.90698,0-1.90698h10.46625v1.90704c0.15771,5.13489,7.6192,5.14728,7.78229-0.00006c0,0.00006,0-1.90698,0-1.90698   h0.10406c0.82916,0,1.50104-0.67188,1.50104-1.50104v-8.73511c-0.00873-0.21295-0.04803-0.4256-0.13293-0.61957l-0.94489-2.09863   c0.98517,0.12659,1.96515-0.42236,1.96808-1.50104C31.5,8.88544,30.82813,8.21356,29.99896,8.21356z M8.50745,5.0683h14.96356   l3.31378,7.36206H5.19366L8.50745,5.0683z M7.75403,26.07703c-0.00586,1.16266-1.7724,1.16266-1.77808-0.00006   c0,0.00006,0-1.90698,0-1.90698h1.77808V26.07703z M26.0025,26.07703c-0.00574,1.16217-1.77228,1.16315-1.77808-0.00006   c0,0.00006,0-1.90698,0-1.90698h1.77808V26.07703z M27.60767,21.16791H4.37079v-5.73303h23.23688V21.16791z"/></g></svg>