<?xml version="1.0" ?><svg id="Layer_2" style="enable-background:new 0 0 32 32;" version="1.1" viewBox="0 0 32 32" xml:space="preserve" xmlns="http://www.w3.org/2000/svg" xmlns:xlink="http://www.w3.org/1999/xlink"><g><path d="M10.07153,18.82129c0-0.82813-0.67139-1.5-1.5-1.5H4.82977c-0.0033,0-0.00641-0.00098-0.0097-0.00098   c-0.82861,0-1.5,0.67188-1.5,1.5C3.32007,25.81152,9.00854,31.5,16.00024,31.5c6.99121,0,12.67969-5.68848,12.67969-12.67969   c0-0.82813-0.67188-1.5-1.5-1.5c-0.0033,0-0.00641,0.00098-0.0097,0.00098h-3.74127c-0.82813,0-1.5,0.67188-1.5,1.5   s0.67188,1.5,1.5,1.5h2.12244c-0.64825,4.13483-3.9162,7.4024-8.05115,8.05029V15.79492h2.07129c0.82813,0,1.5-0.67188,1.5-1.5   s-0.67188-1.5-1.5-1.5h-2.07129V10.3902c2.06104-0.64435,3.57129-2.54858,3.57129-4.81891   c0-2.7959-2.27539-5.07129-5.07129-5.07129c-2.79639,0-5.07129,2.27539-5.07129,5.07129c0,2.27039,1.51001,4.17468,3.57129,4.81897   v2.40466h-2.07129c-0.82861,0-1.5,0.67188-1.5,1.5s0.67139,1.5,1.5,1.5h2.07129v12.57672   c-4.13562-0.64777-7.40338-3.91547-8.05164-8.05035h2.12292C9.40015,20.32129,10.07153,19.64941,10.07153,18.82129z    M13.92896,5.57129c0-1.14258,0.9292-2.07129,2.07129-2.07129c1.14258,0,2.07129,0.92871,2.07129,2.07129   s-0.92871,2.07129-2.07129,2.07129C14.85815,7.64258,13.92896,6.71387,13.92896,5.57129z"/></g></svg>