<?xml version="1.0" ?><svg id="Layer_2" style="enable-background:new 0 0 32 32;" version="1.1" viewBox="0 0 32 32" xml:space="preserve" xmlns="http://www.w3.org/2000/svg" xmlns:xlink="http://www.w3.org/1999/xlink"><g><path d="M6,25.43018h1.66943V30c0,0.82861,0.67139,1.5,1.5,1.5h13.66113c0.82861,0,1.5-0.67139,1.5-1.5v-4.56982H26   c3.03271,0,5.5-2.46729,5.5-5.5v-7.86035c0-3.03271-2.46729-5.5-5.5-5.5h-1.66943V2c0-0.82861-0.67139-1.5-1.5-1.5H9.16943   c-0.82861,0-1.5,0.67139-1.5,1.5v4.56982H6c-3.03271,0-5.5,2.46729-5.5,5.5v7.86035C0.5,22.96289,2.96729,25.43018,6,25.43018z    M21.33057,28.5H10.66943v-11h10.66113V28.5z M10.66943,3.5h10.66113v3.06982H10.66943V3.5z M3.5,12.06982   c0-1.37842,1.12158-2.5,2.5-2.5h20c1.37842,0,2.5,1.12158,2.5,2.5v7.86035c0,1.37842-1.12158,2.5-2.5,2.5h-1.66943v-4.94012   C25.1123,17.43829,25.73193,16.7948,25.73193,16c0-0.82861-0.67139-1.5-1.5-1.5H7.76807c-0.82861,0-1.5,0.67139-1.5,1.5   c0,0.7948,0.61963,1.43829,1.40137,1.49005v4.94012H6c-1.37842,0-2.5-1.12158-2.5-2.5V12.06982z"/><path d="M7.04004,13.41943H8.75c0.82861,0,1.5-0.67139,1.5-1.5s-0.67139-1.5-1.5-1.5H7.04004c-0.82861,0-1.5,0.67139-1.5,1.5   S6.21143,13.41943,7.04004,13.41943z"/></g></svg>