<?xml version="1.0" ?><svg id="Layer_2" style="enable-background:new 0 0 32 32;" version="1.1" viewBox="0 0 32 32" xml:space="preserve" xmlns="http://www.w3.org/2000/svg" xmlns:xlink="http://www.w3.org/1999/xlink"><g><path d="M1.41168,27.1463l9.33264,3.98279c0.38171,0.15216,0.79596,0.15466,1.17767,0.00043   c0,0.00006,8.74536-3.73169,8.74536-3.73169l8.74323,3.73126c0.94354,0.4353,2.12103-0.33447,2.08875-1.37939   c0.00006,0.00006,0.00006-23.51617,0.00006-23.51617c0-0.60101-0.3584-1.14349-0.91113-1.37933l-9.33264-3.98273   c-0.13287-0.04224-0.26904-0.08282-0.40704-0.10486c-0.26312-0.02875-0.52295,0.01636-0.77063,0.10437l-8.7453,3.73169   l-8.74329-3.7312C1.64233,0.43451,0.46973,1.20691,0.50061,2.25079c-0.00006,0-0.00006,23.51617-0.00006,23.51617   C0.50055,26.36804,0.85895,26.91046,1.41168,27.1463z M22.16675,4.52167l6.33276,2.70258v20.25458l-6.33276-2.70251V4.52167z    M12.83313,7.22424l6.33374-2.70258v20.25464l-6.33374,2.70251V7.22424z M3.50043,4.52167l6.33276,2.70258v20.25458   l-6.33276-2.70251V4.52167z"/></g></svg>