<?xml version="1.0" ?><svg id="Layer_2" style="enable-background:new 0 0 32 32;" version="1.1" viewBox="0 0 32 32" xml:space="preserve" xmlns="http://www.w3.org/2000/svg" xmlns:xlink="http://www.w3.org/1999/xlink"><path d="M30,21.5h-5.5V9c0-0.82813-0.67188-1.5-1.5-1.5H10.5V2c0-0.82813-0.67139-1.5-1.5-1.5S7.5,1.17188,7.5,2v5.5H2  C1.17139,7.5,0.5,8.17188,0.5,9s0.67139,1.5,1.5,1.5h5.5V23c0,0.82813,0.67139,1.5,1.5,1.5h12.5V30c0,0.82813,0.67188,1.5,1.5,1.5  s1.5-0.67188,1.5-1.5v-5.5H30c0.82813,0,1.5-0.67188,1.5-1.5S30.82813,21.5,30,21.5z M10.5,21.5v-11h11v11H10.5z"/></svg>