<?xml version="1.0" ?><svg id="Layer_2" style="enable-background:new 0 0 32 32;" version="1.1" viewBox="0 0 32 32" xml:space="preserve" xmlns="http://www.w3.org/2000/svg" xmlns:xlink="http://www.w3.org/1999/xlink"><path d="M28.96338,1.99989c0-0.47705-0.22656-0.92529-0.61084-1.20801c-0.38379-0.28223-0.87939-0.36572-1.33496-0.22412  l-15.1582,4.71582c-0.62695,0.19482-1.0542,0.77539-1.0542,1.43213v14.59735c-0.72192-0.36017-1.52417-0.58173-2.38428-0.58173  c-2.96875,0-5.38428,2.41553-5.38428,5.38428s2.41553,5.38428,5.38428,5.38428c2.86499,0,5.19287-2.2558,5.35364-5.0813  c0.02008-0.09784,0.03064-12.73004,0.03064-12.73004l12.1582-3.78253v5.51202c-0.72192-0.36017-1.52417-0.58173-2.38428-0.58173  c-2.96875,0-5.38428,2.41553-5.38428,5.38428s2.41553,5.38428,5.38428,5.38428c2.86499,0,5.19287-2.2558,5.35364-5.0813  C28.95282,20.42573,28.96338,1.99989,28.96338,1.99989z M8.4209,28.49989c-1.31445,0-2.38428-1.06982-2.38428-2.38428  s1.06982-2.38428,2.38428-2.38428s2.38428,1.06982,2.38428,2.38428S9.73535,28.49989,8.4209,28.49989z M13.80518,10.54689V7.8202  l12.1582-3.78271v2.72687L13.80518,10.54689z M23.5791,22.60487c-1.31445,0-2.38428-1.06982-2.38428-2.38428  s1.06982-2.38428,2.38428-2.38428s2.38428,1.06982,2.38428,2.38428S24.89355,22.60487,23.5791,22.60487z"/></svg>