<?xml version="1.0" ?><svg id="Layer_2" style="enable-background:new 0 0 32 32;" version="1.1" viewBox="0 0 32 32" xml:space="preserve" xmlns="http://www.w3.org/2000/svg" xmlns:xlink="http://www.w3.org/1999/xlink"><g><path d="M24.98633,17.00684h-9.99316V7.01367c0-0.82861-0.67188-1.5-1.5-1.5C6.3291,5.51367,0.5,11.34229,0.5,18.50684   S6.3291,31.5,13.49316,31.5s12.99316-5.82861,12.99316-12.99316C26.48633,17.67822,25.81445,17.00684,24.98633,17.00684z    M13.49316,28.5C7.9834,28.5,3.5,24.01709,3.5,18.50684c0-5.00049,3.69238-9.15479,8.49316-9.88086v9.88086   c0,0.82861,0.67188,1.5,1.5,1.5h9.88086C22.64844,24.80762,18.49316,28.5,13.49316,28.5z"/><path d="M18.50684,0.5c-0.82813,0-1.5,0.67139-1.5,1.5v11.49316c0,0.82861,0.67188,1.5,1.5,1.5H30c0.82813,0,1.5-0.67139,1.5-1.5   C31.5,6.32861,25.6709,0.5,18.50684,0.5z M20.00684,11.99316V3.6123c4.31152,0.65186,7.72852,4.06934,8.38086,8.38086H20.00684z"/></g></svg>