<?xml version="1.0" ?><svg id="Layer_2" style="enable-background:new 0 0 32 32;" version="1.1" viewBox="0 0 32 32" xml:space="preserve" xmlns="http://www.w3.org/2000/svg" xmlns:xlink="http://www.w3.org/1999/xlink"><g><path d="M31.33044,16.76752L25.17084,4.8183c-0.25684-0.49896-0.77142-0.81244-1.33295-0.81244H8.15955   c-0.56152,0-1.07611,0.31348-1.33295,0.81244L0.66699,16.76752C0.56665,16.98346,0.50891,17.21674,0.5,17.45496v9.03931   c0,0.828,0.67181,1.49988,1.49988,1.49988h27.99768c0.82806,0,1.49988-0.67188,1.49988-1.49988   c-0.01239-0.05481,0.01526-9.04504-0.00531-9.09216C31.48468,17.18103,31.42102,16.96759,31.33044,16.76752z M9.07349,7.00562   h13.85046l4.61316,8.94946h-6.88837c-0.82806,0-1.49988,0.71185-1.49988,1.53992c-0.11523,4.16351-6.20898,4.15924-6.30029-0.04016   c0-0.82794-0.67181-1.49976-1.49988-1.49976H4.46033L9.07349,7.00562z M28.49768,24.99438H3.49976v-6.03955h6.52386   c0.65717,2.68921,3.08667,4.69,5.9751,4.69c2.87964,0,5.30328-1.98907,5.96924-4.69h6.52972V24.99438z"/></g></svg>