<?xml version="1.0" ?><svg id="Layer_2" style="enable-background:new 0 0 32 32;" version="1.1" viewBox="0 0 32 32" xml:space="preserve" xmlns="http://www.w3.org/2000/svg" xmlns:xlink="http://www.w3.org/1999/xlink"><g><path d="M25.52734,10.02734V2c0-0.82861-0.67188-1.5-1.5-1.5H7.97266c-0.82861,0-1.5,0.67139-1.5,1.5v8.02734   c0,4.74188,3.48578,8.67468,8.02734,9.39783V28.5H11c-0.82861,0-1.5,0.67139-1.5,1.5s0.67139,1.5,1.5,1.5h10   c0.82813,0,1.5-0.67139,1.5-1.5s-0.67188-1.5-1.5-1.5h-3.5v-9.07483C22.0412,18.7019,25.52734,14.76917,25.52734,10.02734z    M16,16.55518c-3.59912,0-6.52734-2.92822-6.52734-6.52783V3.5h13.05469v6.52734C22.52734,13.62695,19.59961,16.55518,16,16.55518z   "/></g></svg>