<?xml version="1.0" ?><svg id="Layer_2" style="enable-background:new 0 0 32 32;" version="1.1" viewBox="0 0 32 32" xml:space="preserve" xmlns="http://www.w3.org/2000/svg" xmlns:xlink="http://www.w3.org/1999/xlink"><g><path d="M5.09723,31.5h21.80566c2.46741,0,4.474-2.00659,4.474-4.47302V13.56586c0-1.21368-0.49994-2.38544-1.36993-3.21539   c-0.07343-0.03741-11.23383-8.88452-11.23383-8.88452c-1.63263-1.28894-3.91357-1.28699-5.54614,0L2.17474,10.18933   c-0.94165,0.86584-1.56128,2.06488-1.55151,3.37653v13.46112C0.62323,29.49341,2.62976,31.5,5.09723,31.5z M15.08612,3.82104   c0.53705-0.42572,1.29083-0.42572,1.82788,0l9.56122,7.54492L16.914,18.91083c-0.53705,0.42572-1.29083,0.42572-1.82788,0   L5.5249,11.36597L15.08612,3.82104z M3.6228,13.68634l9.60419,7.57965c1.63245,1.28833,3.91351,1.28699,5.54614,0l9.60419-7.57965   v13.34064c0,0.81238-0.66107,1.47339-1.47443,1.47339H5.09723c-0.81342,0-1.47443-0.66101-1.47443-1.47339V13.68634z"/></g></svg>