<?xml version="1.0" ?><svg id="Layer_2" style="enable-background:new 0 0 32 32;" version="1.1" viewBox="0 0 32 32" xml:space="preserve" xmlns="http://www.w3.org/2000/svg" xmlns:xlink="http://www.w3.org/1999/xlink"><g><path d="M16,0.5C7.45313,0.5,0.5,7.45313,0.5,16S7.45313,31.5,16,31.5S31.5,24.54688,31.5,16S24.54688,0.5,16,0.5z M16,28.5   C9.10742,28.5,3.5,22.89258,3.5,16S9.10742,3.5,16,3.5S28.5,9.10742,28.5,16S22.89258,28.5,16,28.5z"/><path d="M23.54004,14.76465L13.50586,7.85352c-0.45898-0.31641-1.05371-0.35156-1.54883-0.09277   c-0.49316,0.25977-0.80176,0.77051-0.80176,1.32813v13.82227c0,0.55762,0.30859,1.06836,0.80176,1.32813   c0.21973,0.11523,0.45898,0.17188,0.69824,0.17188c0.29883,0,0.5957-0.08887,0.85059-0.26465l10.03418-6.91113   c0.40625-0.28027,0.64941-0.74219,0.64941-1.23535S23.94629,15.04492,23.54004,14.76465z M14.15527,20.05664v-8.11328L20.04492,16   L14.15527,20.05664z"/></g></svg>