<?xml version="1.0" ?><svg id="Layer_2" style="enable-background:new 0 0 32 32;" version="1.1" viewBox="0 0 32 32" xml:space="preserve" xmlns="http://www.w3.org/2000/svg" xmlns:xlink="http://www.w3.org/1999/xlink"><g><path d="M2.5,6v20c0,3.03271,2.46777,5.5,5.5,5.5h16c3.03223,0,5.5-2.46729,5.5-5.5V6c0-3.03271-2.46777-5.5-5.5-5.5H8   C4.96777,0.5,2.5,2.96729,2.5,6z M12.5,3.5H24c1.37891,0,2.5,1.12158,2.5,2.5v0.64014h-14V3.5z M12.5,9.64014h14V14.5h-14V9.64014z    M12.5,17.5h14v4.85986h-14V17.5z M12.5,25.35986h14V26c0,1.37842-1.12109,2.5-2.5,2.5H12.5V25.35986z M5.5,6   c0-1.37842,1.12109-2.5,2.5-2.5h1.5v25H8c-1.37891,0-2.5-1.12158-2.5-2.5V6z"/></g></svg>