<?xml version="1.0" ?><svg id="Layer_2" style="enable-background:new 0 0 32 32;" version="1.1" viewBox="0 0 32 32" xml:space="preserve" xmlns="http://www.w3.org/2000/svg" xmlns:xlink="http://www.w3.org/1999/xlink"><g><path d="M30.81104,9.73853l-14-9c-0.49414-0.31836-1.12793-0.31836-1.62207,0l-14,9   c-0.69678,0.44824-0.89893,1.37598-0.45068,2.07324c0.44727,0.69531,1.375,0.89648,2.07275,0.4502L16,3.78345l13.18896,8.47852   c0.25098,0.16113,0.53174,0.23828,0.80957,0.23828c0.49316,0,0.97656-0.24316,1.26318-0.68848   C31.70996,11.1145,31.50781,10.18677,30.81104,9.73853z"/><path d="M6,11.29126c-0.82861,0-1.5,0.67188-1.5,1.5v13.20898c0,3.03223,2.46729,5.5,5.5,5.5h12c3.03271,0,5.5-2.46777,5.5-5.5   V12.79126c0-0.82813-0.67139-1.5-1.5-1.5s-1.5,0.67188-1.5,1.5v13.20898c0,1.30249-1.00427,2.36255-2.27686,2.47748V16.00024   c0-0.82813-0.67139-1.5-1.5-1.5h-9.44629c-0.82861,0-1.5,0.67188-1.5,1.5v12.47748C8.50427,28.36279,7.5,27.30273,7.5,26.00024   V12.79126C7.5,11.96313,6.82861,11.29126,6,11.29126z M12.77686,17.50024h6.44629v1.53027h-6.44629V17.50024z M12.77686,22.03052   h6.44629v1.93945h-6.44629V22.03052z M12.77686,26.96997h6.44629v1.53027h-6.44629V26.96997z"/></g></svg>