<?xml version="1.0" ?><svg id="Layer_2" style="enable-background:new 0 0 32 32;" version="1.1" viewBox="0 0 32 32" xml:space="preserve" xmlns="http://www.w3.org/2000/svg" xmlns:xlink="http://www.w3.org/1999/xlink"><g><path d="M25.28564,12.68915v-2.9035C25.28564,4.66553,21.12012,0.5,16,0.5S6.71436,4.66553,6.71436,9.78564v2.9035   c-1.5376,0.48169-2.66357,1.9024-2.66357,3.5965v11.42871c0,2.0874,1.69824,3.78564,3.78613,3.78564h16.32617   c2.08789,0,3.78613-1.69824,3.78613-3.78564V16.28564C27.94922,14.59155,26.82324,13.17084,25.28564,12.68915z M9.71436,9.78564   C9.71436,6.31982,12.53418,3.5,16,3.5s6.28564,2.81982,6.28564,6.28564V12.5H9.71436V9.78564z M24.94922,27.71436   c0,0.43311-0.35254,0.78564-0.78613,0.78564H7.83691c-0.43359,0-0.78613-0.35254-0.78613-0.78564V16.28564   c0-0.43311,0.35254-0.78564,0.78613-0.78564h16.32617c0.43359,0,0.78613,0.35254,0.78613,0.78564V27.71436z"/><path d="M16,17.4209c-2.09863,0-3.80615,1.70752-3.80615,3.80615c0,1.56586,0.95178,2.91211,2.30615,3.49567v0.35638   c0,0.82861,0.67139,1.5,1.5,1.5s1.5-0.67139,1.5-1.5v-0.35632c1.35443-0.5835,2.30615-1.92981,2.30615-3.49573   C19.80615,19.12842,18.09863,17.4209,16,17.4209z M16,20.4209c0.44434,0,0.80615,0.36182,0.80615,0.80615   S16.44434,22.0332,16,22.0332s-0.80615-0.36182-0.80615-0.80615S15.55566,20.4209,16,20.4209z"/></g></svg>