<?xml version="1.0" ?><svg id="Layer_2" style="enable-background:new 0 0 32 32;" version="1.1" viewBox="0 0 32 32" xml:space="preserve" xmlns="http://www.w3.org/2000/svg" xmlns:xlink="http://www.w3.org/1999/xlink"><g><path d="M16,0.5C7.45313,0.5,0.5,7.45313,0.5,16S7.45313,31.5,16,31.5S31.5,24.54688,31.5,16S24.54688,0.5,16,0.5z M16,28.5   C9.10742,28.5,3.5,22.89258,3.5,16S9.10742,3.5,16,3.5S28.5,9.10742,28.5,16S22.89258,28.5,16,28.5z"/><path d="M14.61426,5.64063c-0.56152-0.23242-1.20654-0.10352-1.63477,0.3252l-5,5c-0.58594,0.58594-0.58594,1.53516,0,2.12109   s1.53516,0.58594,2.12109,0l2.43945-2.43945v14.32617c0,0.82813,0.67139,1.5,1.5,1.5s1.5-0.67188,1.5-1.5V7.02637   C15.54004,6.41992,15.1748,5.87305,14.61426,5.64063z"/><path d="M21.89941,18.91309l-2.43945,2.43945V7.02637c0-0.82813-0.67188-1.5-1.5-1.5s-1.5,0.67188-1.5,1.5v17.94727   c0,0.60645,0.36523,1.15332,0.92578,1.38574c0.18555,0.07715,0.38086,0.11426,0.57422,0.11426   c0.38965,0,0.77344-0.15234,1.06055-0.43945l5-5c0.58594-0.58594,0.58594-1.53516,0-2.12109S22.48535,18.32715,21.89941,18.91309z"/></g></svg>