<?xml version="1.0" ?><svg id="Layer_2" style="enable-background:new 0 0 32 32;" version="1.1" viewBox="0 0 32 32" xml:space="preserve" xmlns="http://www.w3.org/2000/svg" xmlns:xlink="http://www.w3.org/1999/xlink"><g><path d="M8.25098,29.12598h15.49805c2.66406,0,5.02344-1.79297,5.73633-4.35938l1.87305-6.73926   c0.42773-1.53809-0.13867-3.12598-1.44531-4.0459c-1.30566-0.91895-2.99316-0.91602-4.29688,0.00488l-0.64063,0.45313   c-0.2373,0.16895-0.47754,0.14258-0.59863,0.11133c-0.12109-0.03027-0.34375-0.12109-0.47266-0.38184l-4.56445-9.22168   C18.70703,3.66895,17.42676,2.87402,16,2.87402s-2.70703,0.79492-3.34082,2.07422l-4.56348,9.2207   c-0.12891,0.26074-0.35156,0.35156-0.47266,0.38184c-0.12109,0.03125-0.36035,0.05566-0.59766-0.11035l-0.6416-0.4541   c-1.30566-0.92285-2.99316-0.92383-4.29688-0.00488c-1.30664,0.91992-1.87305,2.50781-1.44531,4.04492l1.87305,6.74023   C3.22754,27.33301,5.58691,29.12598,8.25098,29.12598z M3.81348,16.43457c0.07617-0.05371,0.22949-0.14063,0.42285-0.14063   c0.125,0,0.2666,0.03613,0.41504,0.1416l0.64258,0.45508c0.8916,0.62793,2.00586,0.83984,3.06641,0.56836   c1.05664-0.26758,1.94043-0.98242,2.4248-1.95996l4.5625-9.21973C15.5293,5.91309,15.86426,5.87402,16,5.87402   s0.4707,0.03906,0.65137,0.4043l4.56348,9.2207c0.48438,0.97754,1.36816,1.69238,2.4248,1.95996   c1.05859,0.27051,2.17578,0.05957,3.06738-0.56934l0.6416-0.4541c0.37793-0.26563,0.71289-0.08984,0.83789-0.00098   c0.12598,0.08887,0.40527,0.34277,0.28125,0.78906l-1.87305,6.74023c-0.35352,1.27344-1.52344,2.16211-2.8457,2.16211H8.25098   c-1.32227,0-2.49219-0.88867-2.8457-2.16211l-1.87305-6.74121C3.4082,16.77734,3.6875,16.52344,3.81348,16.43457z"/></g></svg>