<?xml version="1.0" ?><svg id="Layer_2" style="enable-background:new 0 0 32 32;" version="1.1" viewBox="0 0 32 32" xml:space="preserve" xmlns="http://www.w3.org/2000/svg" xmlns:xlink="http://www.w3.org/1999/xlink"><path d="M25,18.5c-1.99762,0-3.78601,0.90747-4.97937,2.33002l-6.69177-3.33832C13.44214,17.00879,13.5,16.51062,13.5,16  c0-0.51105-0.05792-1.00958-0.17084-1.49182l6.69147-3.3382C21.21399,12.59253,23.00238,13.5,25,13.5c3.58398,0,6.5-2.91602,6.5-6.5  S28.58398,0.5,25,0.5S18.5,3.41602,18.5,7c0,0.51263,0.06592,1.00922,0.17865,1.48798l-6.70416,3.34448  C10.75854,10.37292,8.96289,9.5,7,9.5c-3.58398,0-6.5,2.91602-6.5,6.5s2.91602,6.5,6.5,6.5c1.9646,0,3.7616-0.87451,4.9754-2.33197  l6.70325,3.34399C18.56592,23.99078,18.5,24.48737,18.5,25c0,3.58398,2.91602,6.5,6.5,6.5s6.5-2.91602,6.5-6.5  S28.58398,18.5,25,18.5z M25,3.5c1.92969,0,3.5,1.57031,3.5,3.5s-1.57031,3.5-3.5,3.5S21.5,8.92969,21.5,7S23.07031,3.5,25,3.5z   M7,19.5c-1.92969,0-3.5-1.57031-3.5-3.5s1.57031-3.5,3.5-3.5c1.33398,0,2.53271,0.74023,3.13232,1.93945  C10.37646,14.91895,10.5,15.44434,10.5,16s-0.12354,1.08105-0.37207,1.56934C9.53271,18.75977,8.33398,19.5,7,19.5z M25,28.5  c-1.92969,0-3.5-1.57031-3.5-3.5s1.57031-3.5,3.5-3.5s3.5,1.57031,3.5,3.5S26.92969,28.5,25,28.5z"/></svg>