<?xml version="1.0" ?><svg id="Layer_2" style="enable-background:new 0 0 32 32;" version="1.1" viewBox="0 0 32 32" xml:space="preserve" xmlns="http://www.w3.org/2000/svg" xmlns:xlink="http://www.w3.org/1999/xlink"><g><path d="M12.12744,28.84741l2.94141,2.32813C15.3418,31.39136,15.6709,31.49976,16,31.49976s0.6582-0.1084,0.93115-0.32422   l2.94092-2.32715c3.72363-2.94629,6.13672-7.15918,6.79541-11.8623l1.36719-9.75879   c0.09082-0.64844-0.24951-1.28125-0.84082-1.5625L16.64453,0.64526c-0.4082-0.19336-0.88086-0.19336-1.28906,0L4.80615,5.66479   c-0.59131,0.28125-0.93164,0.91406-0.84082,1.5625l1.36719,9.75879C5.99121,21.68921,8.4043,25.9021,12.12744,28.84741z    M16,3.66089l8.91113,4.24023l-1.21436,8.66895c-0.55127,3.93555-2.5708,7.45996-5.68652,9.92578L16,28.08667l-2.01074-1.5918   c-3.11523-2.46484-5.13477-5.98926-5.68604-9.9248L7.08887,7.90112L16,3.66089z"/><path d="M12.38379,16.11597H14.5v2.11621c0,0.82813,0.67139,1.5,1.5,1.5s1.5-0.67188,1.5-1.5v-2.11621h2.11621   c0.82861,0,1.5-0.67188,1.5-1.5s-0.67139-1.5-1.5-1.5H17.5v-2.11621c0-0.82813-0.67139-1.5-1.5-1.5s-1.5,0.67188-1.5,1.5v2.11621   h-2.11621c-0.82861,0-1.5,0.67188-1.5,1.5S11.55518,16.11597,12.38379,16.11597z"/></g></svg>