<?xml version="1.0" ?><svg id="Layer_2" style="enable-background:new 0 0 32 32;" version="1.1" viewBox="0 0 32 32" xml:space="preserve" xmlns="http://www.w3.org/2000/svg" xmlns:xlink="http://www.w3.org/1999/xlink"><g><path d="M25.67383,0.5H6.32617c-0.82813,0-1.5,0.67188-1.5,1.5v4c0,2.39984,1.31079,4.49506,3.25079,5.62097l0.92596,14.72766   C9.19434,29.2373,11.6084,31.5,14.5,31.5h3c2.8916,0,5.30566-2.2627,5.49707-5.15625l0.92596-14.72278   C25.86304,10.495,27.17383,8.39984,27.17383,6V2C27.17383,1.17188,26.50195,0.5,25.67383,0.5z M20.00293,26.15137   C19.91602,27.46777,18.81641,28.5,17.5,28.5h-3c-1.31641,0-2.41602-1.03223-2.50293-2.34375l-0.85944-13.66583   C11.20087,12.49225,11.26251,12.5,11.32617,12.5h9.34766c0.06366,0,0.12537-0.00775,0.18854-0.00958L20.00293,26.15137z    M24.17383,6c0,1.92969-1.57031,3.5-3.5,3.5h-9.34766c-1.92969,0-3.5-1.57031-3.5-3.5V3.5h16.34766V6z"/><path d="M16,13.7207c-0.82813,0-1.5,0.67188-1.5,1.5v3.52344c0,0.82813,0.67188,1.5,1.5,1.5s1.5-0.67188,1.5-1.5V15.2207   C17.5,14.39258,16.82813,13.7207,16,13.7207z"/></g></svg>