<?xml version="1.0" ?><svg id="Layer_2" style="enable-background:new 0 0 32 32;" version="1.1" viewBox="0 0 32 32" xml:space="preserve" xmlns="http://www.w3.org/2000/svg" xmlns:xlink="http://www.w3.org/1999/xlink"><g><path d="M16,31.5c8.54688,0,15.5-6.95313,15.5-15.5S24.54688,0.5,16,0.5S0.5,7.45313,0.5,16S7.45313,31.5,16,31.5z M16,3.5   c6.89258,0,12.5,5.60742,12.5,12.5S22.89258,28.5,16,28.5S3.5,22.89258,3.5,16S9.10742,3.5,16,3.5z"/><path d="M10.54297,18.54541l-0.77539,4.5166c-0.09668,0.5625,0.13477,1.13135,0.59668,1.4668   c0.46289,0.33643,1.0752,0.37939,1.58008,0.11426L16,22.51123l4.05566,2.13184c0.21973,0.11523,0.45898,0.17236,0.69824,0.17236   c0.31055,0,0.62012-0.09668,0.88184-0.28662c0.46191-0.33545,0.69336-0.9043,0.59668-1.4668l-0.77539-4.5166l3.28125-3.19824   c0.40918-0.39893,0.55566-0.99463,0.37988-1.5376c-0.17676-0.54346-0.64648-0.93896-1.21094-1.021l-4.53418-0.65869   l-2.02832-4.10938C17.09277,7.50879,16.57129,7.18457,16,7.18457s-1.09277,0.32422-1.34473,0.83594l-2.02832,4.10938   l-4.53418,0.65869c-0.56445,0.08203-1.03418,0.47754-1.21094,1.021c-0.17578,0.54297-0.0293,1.13867,0.37988,1.5376   L10.54297,18.54541z M13.83887,14.98535c0.48828-0.0708,0.91113-0.37793,1.12891-0.82031L16,12.07422l1.03223,2.09082   c0.21777,0.44238,0.64063,0.74951,1.12891,0.82031l2.30664,0.33496l-1.66895,1.62744   c-0.35352,0.34473-0.51465,0.84131-0.43164,1.32764l0.39453,2.29785l-2.06348-1.08447   C16.47949,19.37402,16.23926,19.31641,16,19.31641s-0.47949,0.05762-0.69824,0.17236l-2.06348,1.08447l0.39453-2.29785   c0.08301-0.48633-0.07813-0.98291-0.43164-1.32764l-1.66895-1.62744L13.83887,14.98535z"/></g></svg>