<?xml version="1.0" ?><svg id="Layer_2" style="enable-background:new 0 0 32 32;" version="1.1" viewBox="0 0 32 32" xml:space="preserve" xmlns="http://www.w3.org/2000/svg" xmlns:xlink="http://www.w3.org/1999/xlink"><g><path d="M16,0.5C7.45313,0.5,0.5,7.45313,0.5,16S7.45313,31.5,16,31.5S31.5,24.54688,31.5,16S24.54688,0.5,16,0.5z M16,28.5   C9.10742,28.5,3.5,22.89258,3.5,16S9.10742,3.5,16,3.5S28.5,9.10742,28.5,16S22.89258,28.5,16,28.5z"/><path d="M16,11.10059c-0.82861,0-1.5,0.67188-1.5,1.5v11.07324c0,0.82813,0.67139,1.5,1.5,1.5s1.5-0.67188,1.5-1.5V12.60059   C17.5,11.77246,16.82861,11.10059,16,11.10059z"/><path d="M16,6.82617c-0.82861,0-1.5,0.67188-1.5,1.5v0.00488c0,0.82813,0.67139,1.49805,1.5,1.49805s1.5-0.6748,1.5-1.50293   S16.82861,6.82617,16,6.82617z"/></g></svg>