<?xml version="1.0" ?><svg id="Layer_2" style="enable-background:new 0 0 32 32;" version="1.1" viewBox="0 0 32 32" xml:space="preserve" xmlns="http://www.w3.org/2000/svg" xmlns:xlink="http://www.w3.org/1999/xlink"><g><path d="M6.55493,7.11621c0,3.64844,2.96777,6.61621,6.61572,6.61621c3.64844,0,6.6167-2.96777,6.6167-6.61621   S16.81909,0.5,13.17065,0.5C9.52271,0.5,6.55493,3.46777,6.55493,7.11621z M13.17065,3.5c1.99414,0,3.6167,1.62207,3.6167,3.61621   s-1.62256,3.61621-3.6167,3.61621c-1.99365,0-3.61572-1.62207-3.61572-3.61621S11.177,3.5,13.17065,3.5z"/><path d="M1.67065,26v2c0,1.92969,1.57031,3.5,3.5,3.5h16.00049c1.92969,0,3.5-1.57031,3.5-3.5v-2   c0-6.34082-5.15918-11.5-11.50049-11.5S1.67065,19.65918,1.67065,26z M13.17065,17.5c4.68701,0,8.50049,3.81348,8.50049,8.5v2   c0,0.27539-0.22461,0.5-0.5,0.5H5.17065c-0.27588,0-0.5-0.22461-0.5-0.5v-2C4.67065,21.31348,8.48364,17.5,13.17065,17.5z"/><path d="M27.21313,15.34863v-1.61621h1.61621c0.82813,0,1.5-0.67188,1.5-1.5s-0.67188-1.5-1.5-1.5h-1.61621V9.11621   c0-0.82813-0.67188-1.5-1.5-1.5s-1.5,0.67188-1.5,1.5v1.61621H22.5979c-0.82813,0-1.5,0.67188-1.5,1.5s0.67188,1.5,1.5,1.5h1.61523   v1.61621c0,0.82813,0.67188,1.5,1.5,1.5S27.21313,16.17676,27.21313,15.34863z"/></g></svg>