<?xml version="1.0" ?><svg id="Layer_2" style="enable-background:new 0 0 32 32;" version="1.1" viewBox="0 0 32 32" xml:space="preserve" xmlns="http://www.w3.org/2000/svg" xmlns:xlink="http://www.w3.org/1999/xlink"><g><path d="M4.5,26.99139v1.57697c0,0.82861,0.67139,1.5,1.5,1.5s1.5-0.67139,1.5-1.5v-1.36377h17v1.36377   c0,0.82861,0.67188,1.5,1.5,1.5s1.5-0.67139,1.5-1.5v-1.57703c2.30475-0.65521,4-2.7746,4-5.28674V7.43164   c0-3.03271-2.46777-5.5-5.5-5.5H6c-3.03271,0-5.5,2.46729-5.5,5.5v14.27295C0.5,24.2168,2.19501,26.33624,4.5,26.99139z    M3.5,7.43164c0-1.37842,1.12158-2.5,2.5-2.5h20c1.37891,0,2.5,1.12158,2.5,2.5v14.27295c0,1.37842-1.12109,2.5-2.5,2.5H6   c-1.37842,0-2.5-1.12158-2.5-2.5V7.43164z"/><path d="M16,21.50928c3.82715,0,6.94141-3.11377,6.94141-6.94092c0-3.82764-3.11426-6.94141-6.94141-6.94141   c-3.82764,0-6.94141,3.11377-6.94141,6.94141C9.05859,18.39551,12.17236,21.50928,16,21.50928z M16,10.62695   c1.64166,0,3.04956,1.01062,3.6413,2.44141H17.875c-0.82813,0-1.5,0.67139-1.5,1.5s0.67188,1.5,1.5,1.5h1.76617   c-0.5918,1.43042-1.99963,2.44092-3.64117,2.44092c-2.17334,0-3.94141-1.76807-3.94141-3.94092   C12.05859,12.39502,13.82666,10.62695,16,10.62695z"/><path d="M6.69189,9.30029h2.10742c0.82861,0,1.5-0.67139,1.5-1.5s-0.67139-1.5-1.5-1.5H6.69189c-0.82861,0-1.5,0.67139-1.5,1.5   S5.86328,9.30029,6.69189,9.30029z"/></g></svg>