<?xml version="1.0" ?><svg id="Layer_2" style="enable-background:new 0 0 32 32;" version="1.1" viewBox="0 0 32 32" xml:space="preserve" xmlns="http://www.w3.org/2000/svg" xmlns:xlink="http://www.w3.org/1999/xlink"><g><path d="M4.30957,22.31982c0,0.82861,0.67188,1.5,1.5,1.5h3.02948c0.49811,0.90619,1.15137,1.71173,1.93591,2.35614   l-1.18707,3.31866c-0.2793,0.78027,0.12695,1.63867,0.90723,1.91797c0.16699,0.05957,0.33691,0.08789,0.50488,0.08789   c0.61621,0,1.19336-0.38232,1.41211-0.99512l1.0246-2.86444c0.81775,0.27222,1.67847,0.42889,2.56329,0.42889   c0.888,0,1.75085-0.15729,2.56396-0.42706l1.02393,2.86261c0.21875,0.61279,0.7959,0.99512,1.41211,0.99512   c0.16797,0,0.33789-0.02832,0.50488-0.08789c0.78027-0.2793,1.18652-1.1377,0.90723-1.91797l-1.18744-3.3197   c0.79309-0.65167,1.44403-1.45752,1.93683-2.3551h3.02893c0.82813,0,1.5-0.67139,1.5-1.5s-0.67188-1.5-1.5-1.5h-2.05054   c0.03601-0.31281,0.0603-0.62854,0.0603-0.94971V17.5h1.99023c0.82813,0,1.5-0.67139,1.5-1.5s-0.67188-1.5-1.5-1.5H24.2002   v-2.37012c0-0.32166-0.02411-0.63745-0.05988-0.94971h2.05011c0.82813,0,1.5-0.67139,1.5-1.5s-0.67188-1.5-1.5-1.5h-3.01398   c-0.36792-0.67267-0.82861-1.30353-1.37665-1.85156c-0.18372-0.18372-0.37982-0.34399-0.57483-0.50439l1.18713-3.31885   c0.2793-0.78027-0.12695-1.63867-0.90723-1.91797c-0.78125-0.28027-1.63867,0.12695-1.91699,0.90723l-1.02911,2.87714   c-1.65472-0.53192-3.48871-0.52789-5.11896-0.00397l-1.02771-2.87317c-0.27832-0.78027-1.1377-1.1875-1.91699-0.90723   C9.71484,0.8667,9.30859,1.7251,9.58789,2.50537l1.18744,3.3197C9.98224,6.47675,9.3313,7.28259,8.8385,8.18018H5.80957   c-0.82813,0-1.5,0.67139-1.5,1.5s0.67188,1.5,1.5,1.5h2.05054c-0.03601,0.31281-0.0603,0.62854-0.0603,0.94971V14.5H5.80957   c-0.82813,0-1.5,0.67139-1.5,1.5s0.67188,1.5,1.5,1.5H7.7998v2.37012c0,0.32147,0.02417,0.63727,0.06,0.94971H5.80957   C4.98145,20.81982,4.30957,21.49121,4.30957,22.31982z M16,6.93018c0.95117,0,1.86426,0.25391,2.69434,0.76758   c0.35059,0.19678,0.68262,0.4502,0.98535,0.75293c0.50586,0.50635,0.90332,1.11523,1.16211,1.79541   c0.2373,0.58447,0.3584,1.21826,0.3584,1.88379v7.74023c0,0.66553-0.12109,1.29932-0.36816,1.90674   c-0.41406,1.06738-1.18066,1.96826-2.19238,2.55811c-1.55078,0.96191-3.69336,0.9834-5.31445-0.02148   c-0.97656-0.56836-1.74316-1.46924-2.16699-2.55957c-0.2373-0.58447-0.3584-1.21826-0.3584-1.88379v-7.74023   c0-0.66553,0.12109-1.29932,0.36816-1.90674c0.41406-1.06738,1.18066-1.96826,2.19238-2.55811   C14.13574,7.18408,15.04883,6.93018,16,6.93018z"/></g></svg>