<?xml version="1.0" ?><svg id="Layer_2" style="enable-background:new 0 0 32 32;" version="1.1" viewBox="0 0 32 32" xml:space="preserve" xmlns="http://www.w3.org/2000/svg" xmlns:xlink="http://www.w3.org/1999/xlink"><g><path d="M7.38867,20.2041l-1.51953,8.85742c-0.09668,0.5625,0.13477,1.13135,0.59668,1.4668   c0.46387,0.33643,1.0752,0.37939,1.58008,0.11426L16,26.46094l7.9541,4.18164c0.21973,0.11523,0.45898,0.17236,0.69824,0.17236   c0.31055,0,0.62012-0.09668,0.88184-0.28662c0.46191-0.33545,0.69336-0.9043,0.59668-1.4668l-1.51953-8.85742l6.43555-6.27295   c0.40918-0.39844,0.55566-0.99463,0.37988-1.5376c-0.17676-0.54297-0.64648-0.93896-1.21094-1.021l-8.89355-1.29248L17.34473,2.021   C17.09277,1.50928,16.57129,1.18506,16,1.18506S14.90723,1.50928,14.65527,2.021l-3.97754,8.05908l-8.89355,1.29248   c-0.56445,0.08203-1.03418,0.47803-1.21094,1.021c-0.17578,0.54297-0.0293,1.13916,0.37988,1.5376L7.38867,20.2041z    M11.88965,12.93555c0.48828-0.0708,0.91113-0.37793,1.12891-0.82031L16,6.07471l2.98145,6.04053   c0.21777,0.44238,0.64063,0.74951,1.12891,0.82031l6.66602,0.96875l-4.82324,4.70166   c-0.35352,0.34473-0.51465,0.84131-0.43164,1.32764l1.13867,6.63916l-5.96191-3.13428   C16.47949,23.32373,16.24023,23.26611,16,23.26611s-0.47949,0.05762-0.69824,0.17236l-5.96191,3.13428l1.13867-6.63916   c0.08301-0.48633-0.07813-0.98291-0.43164-1.32764L5.22363,13.9043L11.88965,12.93555z"/></g></svg>