<?xml version="1.0" ?><svg id="Layer_2" style="enable-background:new 0 0 32 32;" version="1.1" viewBox="0 0 32 32" xml:space="preserve" xmlns="http://www.w3.org/2000/svg" xmlns:xlink="http://www.w3.org/1999/xlink"><path d="M26,4.46631h-1.48682V3.50439c0-0.82861-0.67139-1.5-1.5-1.5s-1.5,0.67139-1.5,1.5v0.96191H17.5V3.50439  c0-0.82861-0.67139-1.5-1.5-1.5s-1.5,0.67139-1.5,1.5v0.96191h-4.01318V3.50439c0-0.82861-0.67139-1.5-1.5-1.5s-1.5,0.67139-1.5,1.5  v0.96191H6c-3.03271,0-5.5,2.46729-5.5,5.5v14.5293c0,3.03271,2.46729,5.5,5.5,5.5h20c3.03271,0,5.5-2.46729,5.5-5.5V9.96631  C31.5,6.93359,29.03271,4.46631,26,4.46631z M6,7.46631h1.48682v0.91309c0,0.82861,0.67139,1.5,1.5,1.5s1.5-0.67139,1.5-1.5V7.46631  H14.5v0.91309c0,0.82861,0.67139,1.5,1.5,1.5s1.5-0.67139,1.5-1.5V7.46631h4.01318v0.91309c0,0.82861,0.67139,1.5,1.5,1.5  s1.5-0.67139,1.5-1.5V7.46631H26c1.37842,0,2.5,1.12158,2.5,2.5v1.65576h-25V9.96631C3.5,8.58789,4.62158,7.46631,6,7.46631z   M26,26.99561H6c-1.37842,0-2.5-1.12158-2.5-2.5v-9.87354h25v9.87354C28.5,25.87402,27.37842,26.99561,26,26.99561z"/></svg>