<?xml version="1.0" ?><svg id="Layer_2" style="enable-background:new 0 0 32 32;" version="1.1" viewBox="0 0 32 32" xml:space="preserve" xmlns="http://www.w3.org/2000/svg" xmlns:xlink="http://www.w3.org/1999/xlink"><g><path d="M30.09277,23.29932l-5.3125-5.31348c-0.28125-0.28125-0.66309-0.43945-1.06055-0.43945s-0.7793,0.1582-1.06055,0.43945   l-1.2749,1.2749l-1.45203-1.45203c3.19427-4.23248,2.87592-10.29108-0.97815-14.14514c-4.21484-4.21484-11.07275-4.21484-15.2876,0   C1.62451,5.70557,0.5,8.41943,0.5,11.30713c0,2.88867,1.12451,5.60254,3.1665,7.64453   c2.10742,2.10742,4.875,3.16113,7.64355,3.16113c2.29425,0,4.58295-0.73535,6.5011-2.18298l1.45203,1.45203l-1.2749,1.2749   c-0.28125,0.28125-0.43945,0.66309-0.43945,1.06055s0.1582,0.7793,0.43945,1.06055l5.3125,5.3125   c0.90723,0.90723,2.11328,1.40723,3.39648,1.40723s2.48828-0.5,3.39551-1.40625c0-0.00098,0-0.00098,0-0.00098s0,0,0.00098,0   C31,29.18311,31.5,27.97803,31.5,26.69482S31,24.20557,30.09277,23.29932z M5.7876,16.83057   C4.3125,15.35498,3.5,13.39404,3.5,11.30713c0-2.08594,0.8125-4.04688,2.2876-5.52246   c1.52246-1.52246,3.52246-2.2832,5.52246-2.2832s4,0.76074,5.52295,2.2832c3.04492,3.0459,3.04492,8,0,11.0459   C13.78809,19.87451,8.8335,19.87646,5.7876,16.83057z M27.97168,27.96826c0,0.00098,0,0.00098-0.00098,0.00098   c-0.67969,0.68164-1.86621,0.68164-2.54785,0l-4.25293-4.25195l2.5498-2.5498l4.25195,4.25391   C28.3125,25.76123,28.5,26.21338,28.5,26.69482S28.3125,27.62842,27.97168,27.96826z"/><path d="M15.2207,9.80713H7.39941c-0.82861,0-1.5,0.67188-1.5,1.5s0.67139,1.5,1.5,1.5h7.82129c0.82861,0,1.5-0.67188,1.5-1.5   S16.04932,9.80713,15.2207,9.80713z"/></g></svg>