<svg width="32" height="32" xmlns="http://www.w3.org/2000/svg">

 <g>
  <title>background</title>
  <rect fill="none" id="canvas_background" height="402" width="582" y="-1" x="-1"/>
 </g>
 <g>
  <title>Layer 1</title>
  <path id="svg_2" d="m16,31.5c6.12891,0 11.11523,-4.98633 11.11523,-11.11523l0,-8.76953c0,-6.12891 -4.98632,-11.11524 -11.11523,-11.11524s-11.11523,4.98633 -11.11523,11.11523l0,8.76953c0,6.12891 4.98632,11.11524 11.11523,11.11524zm1.5,-27.85529c3.06433,0.57569 5.51978,2.87775 6.32587,5.85529l-4.24738,0c-0.04034,-1.39722 -0.87921,-2.59106 -2.07849,-3.14746l0,-2.70783zm-2.08936,5.95783c0,-0.3252 0.26416,-0.58936 0.58936,-0.58936c0.32471,0 0.58887,0.26416 0.58887,0.58936l0,2.79492c0,0.3252 -0.26416,0.58936 -0.58887,0.58936c-0.3252,0 -0.58936,-0.26416 -0.58936,-0.58936l0,-2.79492zm-0.91064,-5.95783l0,2.70764c-1.19958,0.55634 -2.03864,1.75031 -2.07898,3.14765l-4.24689,0c0.80609,-2.97754 3.26154,-5.2796 6.32587,-5.85529zm-6.61523,8.85529l4.53625,0c0.05573,1.93073 1.63507,3.48682 3.57898,3.48682c1.94342,0 3.52277,-1.55609 3.57849,-3.48682l4.53674,0l0,7.88477c0,4.47461 -3.64062,8.11523 -8.11523,8.11523s-8.11523,-3.64063 -8.11523,-8.11523l0,-7.88477z"/>
  <ellipse ry="3.532811" rx="3.532811" id="svg_3" cy="6.478198" cx="20.72988" stroke-width="1.5" fill="#ff0f0f"/>
 </g>
</svg>