<?xml version="1.0" ?><svg id="Layer_2" style="enable-background:new 0 0 32 32;" version="1.1" viewBox="0 0 32 32" xml:space="preserve" xmlns="http://www.w3.org/2000/svg" xmlns:xlink="http://www.w3.org/1999/xlink"><g><path d="M30.69824,5.01392c-0.49414-0.25977-1.08887-0.22363-1.54883,0.09277l-11.625,8.0058V6.34204   c0-0.55762-0.30859-1.06836-0.80176-1.32813c-0.49512-0.25977-1.08984-0.22363-1.54883,0.09277l-14.02441,9.6582   C0.74316,15.04517,0.5,15.50708,0.5,16.00024s0.24316,0.95508,0.64941,1.23535l14.02441,9.6582   c0.25488,0.17578,0.55176,0.26465,0.85059,0.26465c0.23926,0,0.47852-0.05664,0.69824-0.17188   c0.49316-0.25977,0.80176-0.77051,0.80176-1.32813V18.888l11.625,8.0058C29.4043,27.06958,29.70117,27.15845,30,27.15845   c0.23926,0,0.47852-0.05664,0.69824-0.17188C31.19141,26.72681,31.5,26.21606,31.5,25.65845V6.34204   C31.5,5.78442,31.19141,5.27368,30.69824,5.01392z M14.52441,22.80396l-9.87988-6.80371l9.87988-6.80371V22.80396z M28.5,22.80396   l-9.87988-6.80371L28.5,9.19653V22.80396z"/></g></svg>