<?xml version="1.0" ?><svg id="Layer_2" style="enable-background:new 0 0 32 32;" version="1.1" viewBox="0 0 32 32" xml:space="preserve" xmlns="http://www.w3.org/2000/svg" xmlns:xlink="http://www.w3.org/1999/xlink"><path d="M31.5,15.99927c0-0.57422-0.3291-1.09863-0.84668-1.34863l-4.22009-2.04352l4.22107-2.0473  C31.17188,10.30884,31.5,9.78442,31.5,9.21021s-0.32813-1.09863-0.8457-1.34961L16.65479,1.07056  c-0.41406-0.20117-0.89551-0.20117-1.30957,0l-14,6.79004C0.82813,8.11157,0.5,8.63599,0.5,9.21021s0.32813,1.09863,0.84521,1.34961  l4.22113,2.04724l-4.22015,2.04358c-0.51709,0.25-0.8457,0.77441-0.84619,1.34863c-0.00049,0.5752,0.32764,1.09863,0.84473,1.35059  l4.21844,2.04572l-4.21747,2.0451C0.82861,21.69165,0.5,22.21509,0.5,22.79028c0,0.57422,0.32813,1.09863,0.84521,1.34961  l14,6.79004c0.20703,0.10059,0.43066,0.15039,0.65479,0.15039s0.44775-0.0498,0.65479-0.15039l13.99951-6.79004  C31.17188,23.88892,31.5,23.3645,31.5,22.79028c0-0.5752-0.32813-1.09863-0.8457-1.34961l-4.21747-2.0451l4.21844-2.04572  C31.17188,17.0979,31.5,16.57446,31.5,15.99927z M16,4.08716l10.5625,5.12305L16,14.33325L5.4375,9.21021L16,4.08716z   M26.5625,22.79028L16,27.91333L5.4375,22.79028l3.56342-1.72754l6.34528,3.07715c0.20654,0.10059,0.43018,0.15039,0.65381,0.15039  s0.44727-0.0498,0.65381-0.15039l6.34558-3.07727L26.5625,22.79028z M16,21.12329L5.4375,16.0022l3.56708-1.72754l6.34064,3.0752  c0.20703,0.10059,0.43066,0.15039,0.65479,0.15039s0.44775-0.0498,0.65479-0.15039l6.3407-3.07538l3.56702,1.72772L16,21.12329z"/></svg>