<?xml version="1.0" ?><svg id="Layer_2" style="enable-background:new 0 0 32 32;" version="1.1" viewBox="0 0 32 32" xml:space="preserve" xmlns="http://www.w3.org/2000/svg" xmlns:xlink="http://www.w3.org/1999/xlink"><g><path d="M8.56964,21.90234h5.9303c0,2.4505,0,4.47717,0,4.47717l-2.30713-2.30719   c-1.41394-1.36993-3.49384,0.70276-2.12109,2.12122c0.25403,0.17456,5.16968,5.3606,5.37677,5.19983   c0.54852,0.22333,1.1955,0.08801,1.61206-0.33209l4.8678-4.8678c0.58594-0.58545,0.58594-1.53571,0-2.12115   c-0.58594-0.58594-1.53516-0.58594-2.12115,0l-2.30713,2.30719v-4.47717h5.9303c3.9278,0,7.12372-3.19586,7.12372-7.12372   c0-3.55035-2.6109-6.50256-6.01385-7.03674C23.86346,3.63922,20.29163,0.5,16,0.5S8.13654,3.63922,7.45978,7.74188   c-3.40295,0.53418-6.01385,3.48639-6.01385,7.03674C1.44592,18.70648,4.64185,21.90234,8.56964,21.90234z M8.56964,10.65552h0.2749   c0.82867,0,1.50006-0.67139,1.50006-1.50006c0-3.11823,2.53717-5.6554,5.6554-5.6554s5.6554,2.53717,5.6554,5.6554   c0,0.82867,0.67139,1.50006,1.50006,1.50006h0.2749c2.27399,0,4.1236,1.84967,4.1236,4.12311   c0,2.27399-1.84961,4.12366-4.1236,4.12366h-5.9303v-5.50891c-0.0307-1.96332-2.96625-1.97845-3.00012,0.00006   c0,0,0,2.62183,0,5.50885h-5.9303c-2.27399,0-4.1236-1.84967-4.1236-4.12366C4.44604,12.50519,6.29565,10.65552,8.56964,10.65552z"/></g></svg>