<?xml version="1.0" ?><svg id="Layer_2" style="enable-background:new 0 0 32 32;" version="1.1" viewBox="0 0 32 32" xml:space="preserve" xmlns="http://www.w3.org/2000/svg" xmlns:xlink="http://www.w3.org/1999/xlink"><path d="M30.09568,23.30307l-5.31341-5.31341c-0.58599-0.58598-1.53528-0.58598-2.12126,0l-1.275,1.275l-1.45263-1.45263  c3.19453-4.23263,2.87614-10.29091-0.97823-14.14528C16.91349,1.6246,14.19844,0.5,11.311,0.5S5.70851,1.6246,3.66684,3.66675  c-2.04215,2.04166-3.16675,4.75672-3.16675,7.64416s1.1246,5.60249,3.16675,7.64416  c2.10759,2.10759,4.87587,3.16138,7.64416,3.16138c2.29437,0,4.58288-0.73541,6.50112-2.18316l1.45263,1.45263l-1.275,1.275  c-0.58598,0.58549-0.58598,1.53576,0,2.12126l5.31341,5.31389C24.23975,31.0317,25.46934,31.5,26.69942,31.5  s2.45967-0.4683,3.39626-1.40392c0-0.00049,0-0.00049,0.00049-0.00049C31.9679,28.22289,31.9679,25.17577,30.09568,23.30307z   M5.78811,16.83381c-1.47521-1.47521-2.28778-3.43679-2.28778-5.52289s0.81256-4.04768,2.28778-5.5229  S9.2249,3.50024,11.311,3.50024s4.04768,0.81256,5.52289,2.28778c3.04516,3.04516,3.04516,8.00063,0,11.04579  S8.83327,19.87897,5.78811,16.83381z M27.97442,27.97433c-0.70367,0.70269-1.84731,0.70172-2.55,0l-4.25278-4.25278l2.55-2.55  l4.25229,4.25278C28.67663,26.12702,28.67663,27.27115,27.97442,27.97433z"/></svg>