<?xml version="1.0" ?><svg id="Layer_2" style="enable-background:new 0 0 32 32;" version="1.1" viewBox="0 0 32 32" xml:space="preserve" xmlns="http://www.w3.org/2000/svg" xmlns:xlink="http://www.w3.org/1999/xlink"><g><path d="M30.00098,8.12402c-0.93945-0.62793-2.12305-0.74512-3.16699-0.31543l-3.17346,1.31122   c-0.11102-0.40741-0.29163-0.78326-0.53613-1.1142l1.95471-1.95483c0.58594-0.58594,0.58594-1.53516,0-2.12109   s-1.53516-0.58594-2.12109,0L20.26282,6.625H5.60303c-1.86182,0-3.37646,1.51465-3.37646,3.37598v11.99805   c0,0.74884,0.25336,1.43481,0.6676,1.99536l-1.95471,1.95483c-0.58594,0.58594-0.58594,1.53516,0,2.12109   C1.23242,28.36328,1.61621,28.50977,2,28.50977s0.76758-0.14648,1.06055-0.43945L5.75574,25.375h14.65979   c1.55493,0,2.85449-1.06219,3.245-2.49481l3.17346,1.31122h0.00049c0.41602,0.17188,0.85352,0.25586,1.28906,0.25586   c0.65869,0,1.3125-0.19336,1.87744-0.57129C30.93945,23.24805,31.5,22.19824,31.5,21.06934V10.93066   C31.5,9.80176,30.93945,8.75195,30.00098,8.12402z M5.22656,21.66193V10.00098c0-0.20703,0.16895-0.37598,0.37646-0.37598h11.65991   L5.22656,21.66193z M20.79199,21.99902c0,0.20703-0.16895,0.37598-0.37646,0.37598H8.75562l12.03638-12.03693V21.99902z    M28.5,21.06934c0,0.16602-0.09082,0.2627-0.16748,0.31348s-0.19873,0.09766-0.35352,0.03516l-4.18701-1.72949v-7.37695   l4.18701-1.72949c0.15479-0.06152,0.27686-0.01465,0.35352,0.03516C28.40918,10.66797,28.5,10.76465,28.5,10.93066V21.06934z"/></g></svg>