<?xml version="1.0" ?><svg id="Layer_2" style="enable-background:new 0 0 32 32;" version="1.1" viewBox="0 0 32 32" xml:space="preserve" xmlns="http://www.w3.org/2000/svg" xmlns:xlink="http://www.w3.org/1999/xlink"><path d="M26,2.00146H6c-3.03271,0-5.5,2.46729-5.5,5.5v16.99707c0,3.03271,2.46729,5.5,5.5,5.5h20c3.03223,0,5.5-2.46729,5.5-5.5  V7.50146C31.5,4.46875,29.03223,2.00146,26,2.00146z M6,5.00146h20c1.37891,0,2.5,1.12158,2.5,2.5v6.81738l-4.2793-4.2793  c-0.57031-0.57178-1.49121-0.5874-2.08105-0.03857l-7.38196,6.85547l-3.73718-3.73682  c-0.57129-0.5708-1.49121-0.58789-2.08105-0.03857L3.5,18.1308V7.50146C3.5,6.12305,4.62158,5.00146,6,5.00146z M26,26.99854H6  c-1.37842,0-2.5-1.12158-2.5-2.5v-2.27472l6.42139-5.96112l2.63678,2.63641l-1.07819,1.00128  c-0.60693,0.56348-0.64258,1.5127-0.0791,2.12012c0.2959,0.31836,0.69727,0.47949,1.1001,0.47949  c0.36523,0,0.73096-0.13232,1.02002-0.40039l9.60107-8.9165L28.5,18.56104v5.9375C28.5,25.87695,27.37891,26.99854,26,26.99854z"/></svg>