<?xml version="1.0" ?><svg id="Layer_2" style="enable-background:new 0 0 32 32;" version="1.1" viewBox="0 0 32 32" xml:space="preserve" xmlns="http://www.w3.org/2000/svg" xmlns:xlink="http://www.w3.org/1999/xlink"><g><path d="M16,31.5c8.54688,0,15.5-6.95313,15.5-15.5S24.54688,0.5,16,0.5S0.5,7.45313,0.5,16S7.45313,31.5,16,31.5z M16,3.5   c6.89258,0,12.5,5.60742,12.5,12.5S22.89258,28.5,16,28.5S3.5,22.89258,3.5,16S9.10742,3.5,16,3.5z"/><path d="M16,17.5h5c0.82861,0,1.5-0.67139,1.5-1.5s-0.67139-1.5-1.5-1.5h-3.5V7.6875c0-0.82861-0.67139-1.5-1.5-1.5   s-1.5,0.67139-1.5,1.5V16C14.5,16.82861,15.17139,17.5,16,17.5z"/></g></svg>