<?xml version="1.0" ?><svg id="Layer_2" style="enable-background:new 0 0 32 32;" version="1.1" viewBox="0 0 32 32" xml:space="preserve" xmlns="http://www.w3.org/2000/svg" xmlns:xlink="http://www.w3.org/1999/xlink"><g><path d="M25.37012,4.16895C25.09766,3.72266,24.6123,3.4502,24.08936,3.4502H9.41064V2c0-0.82813-0.67139-1.5-1.5-1.5   s-1.5,0.67188-1.5,1.5v28c0,0.82813,0.67139,1.5,1.5,1.5s1.5-0.67188,1.5-1.5V19.36035h14.67871   c0.52295,0,1.00781-0.27246,1.28027-0.71875s0.29297-1.00195,0.05371-1.4668l-2.96826-5.77344l2.96777-5.76465   C25.6626,5.17188,25.64209,4.61621,25.37012,4.16895z M9.41064,16.36035V6.4502h12.21924l-2.19531,4.26367   c-0.22168,0.43066-0.22217,0.94141-0.00049,1.37207l2.19727,4.27441H9.41064z"/></g></svg>