<?xml version="1.0" ?><svg id="Layer_2" style="enable-background:new 0 0 32 32;" version="1.1" viewBox="0 0 32 32" xml:space="preserve" xmlns="http://www.w3.org/2000/svg" xmlns:xlink="http://www.w3.org/1999/xlink"><g><path d="M4.79492,22.14307c-0.82813,0-1.5,0.67139-1.5,1.5s0.67188,1.5,1.5,1.5h0.91016V26c0,3.03271,2.46777,5.5,5.5,5.5h12   c3.03223,0,5.5-2.46729,5.5-5.5V6c0-3.03271-2.46777-5.5-5.5-5.5h-12c-3.03223,0-5.5,2.46729-5.5,5.5v0.85693H4.79492   c-0.82813,0-1.5,0.67139-1.5,1.5s0.67188,1.5,1.5,1.5h0.91016V14.5H4.79492c-0.82813,0-1.5,0.67139-1.5,1.5s0.67188,1.5,1.5,1.5   h0.91016v4.64307H4.79492z M17.93555,3.5h3.21973v2.48193L20.4873,5.44238c-0.55078-0.44336-1.33398-0.44385-1.88477,0.00049   l-0.66699,0.53857V3.5z M8.70508,25.14307h0.91113c0.82813,0,1.5-0.67139,1.5-1.5s-0.67188-1.5-1.5-1.5H8.70508V17.5h0.91113   c0.82813,0,1.5-0.67139,1.5-1.5s-0.67188-1.5-1.5-1.5H8.70508V9.85693h0.91113c0.82813,0,1.5-0.67139,1.5-1.5s-0.67188-1.5-1.5-1.5   H8.70508V6c0-1.37842,1.12109-2.5,2.5-2.5h3.73047v5.62012c0,0.57764,0.33203,1.10449,0.85352,1.35352   c0.52246,0.24805,1.13867,0.17627,1.58887-0.18652l2.16699-1.74951l2.16797,1.75c0.27246,0.21924,0.60645,0.33252,0.94238,0.33252   c0.21973,0,0.44141-0.04834,0.64648-0.14648c0.52148-0.24951,0.85352-0.77588,0.85352-1.35352V3.68988   C25.06354,4.06482,25.70508,4.95807,25.70508,6v20c0,1.37842-1.12109,2.5-2.5,2.5h-12c-1.37891,0-2.5-1.12158-2.5-2.5V25.14307z"/></g></svg>