<?xml version="1.0" ?><svg id="Layer_2" style="enable-background:new 0 0 32 32;" version="1.1" viewBox="0 0 32 32" xml:space="preserve" xmlns="http://www.w3.org/2000/svg" xmlns:xlink="http://www.w3.org/1999/xlink"><path d="M24.41016,23.59381v-0.68365c0-2.86157-1.4389-5.39032-3.62842-6.91016c2.18951-1.51984,3.62842-4.04858,3.62842-6.91016  V8.40619C26.17731,7.98712,27.5,6.40509,27.5,4.51172C27.5,2.2998,25.7002,0.5,23.48828,0.5H8.51172  C6.2998,0.5,4.5,2.2998,4.5,4.51172c0,1.89337,1.32269,3.4754,3.08984,3.89447v0.68365c0,2.86157,1.4389,5.39032,3.62842,6.91016  c-2.18951,1.51984-3.62842,4.04858-3.62842,6.91016v0.68365C5.82269,24.01288,4.5,25.59491,4.5,27.48828  C4.5,29.7002,6.2998,31.5,8.51172,31.5h14.97656C25.7002,31.5,27.5,29.7002,27.5,27.48828  C27.5,25.59491,26.17731,24.01288,24.41016,23.59381z M8.51172,3.5h14.97656C24.0459,3.5,24.5,3.9541,24.5,4.51172  s-0.4541,1.01172-1.01172,1.01172H8.51172C7.9541,5.52344,7.5,5.06934,7.5,4.51172S7.9541,3.5,8.51172,3.5z M10.58984,9.08984  V8.52344h10.82031v0.56641C21.41016,12.07324,18.9834,14.5,16,14.5S10.58984,12.07324,10.58984,9.08984z M10.58984,22.91016  C10.58984,19.92676,13.0166,17.5,16,17.5s5.41016,2.42676,5.41016,5.41016v0.56641H10.58984V22.91016z M23.48828,28.5H8.51172  C7.9541,28.5,7.5,28.0459,7.5,27.48828s0.4541-1.01172,1.01172-1.01172h14.97656c0.55762,0,1.01172,0.4541,1.01172,1.01172  S24.0459,28.5,23.48828,28.5z"/></svg>