<?xml version="1.0" ?><svg id="Layer_2" style="enable-background:new 0 0 32 32;" version="1.1" viewBox="0 0 32 32" xml:space="preserve" xmlns="http://www.w3.org/2000/svg" xmlns:xlink="http://www.w3.org/1999/xlink"><g><path d="M16,0.5C7.45313,0.5,0.5,7.45313,0.5,16S7.45313,31.5,16,31.5S31.5,24.54688,31.5,16S24.54688,0.5,16,0.5z M16,28.5   C9.10742,28.5,3.5,22.89258,3.5,16S9.10742,3.5,16,3.5S28.5,9.10742,28.5,16S22.89258,28.5,16,28.5z"/><path d="M15.69482,11.62012h3.55029c0.82861,0,1.5-0.67139,1.5-1.5s-0.67139-1.5-1.5-1.5h-1.75v-0.2002   c0-0.82861-0.67139-1.5-1.5-1.5s-1.5,0.67139-1.5,1.5v0.38574c-1.86316,0.52734-3.24023,2.22461-3.24023,4.25439   c0,1.18701,0.46143,2.30273,1.30957,3.15039C13.41113,17.04199,14.52295,17.5,15.69482,17.5h0.61035   c0.38574,0,0.74756,0.14941,1.01904,0.42041c0.27148,0.27148,0.4209,0.63379,0.4209,1.01953   c0,0.79395-0.646,1.43994-1.43994,1.43994h-3.55029c-0.82861,0-1.5,0.67139-1.5,1.5s0.67139,1.5,1.5,1.5h1.74023v0.2002   c0,0.82861,0.67139,1.5,1.5,1.5s1.5-0.67139,1.5-1.5v-0.38275c1.86829-0.52405,3.25-2.224,3.25-4.25739   c0-1.18701-0.46143-2.30273-1.2998-3.14063C18.60742,14.96143,17.49219,14.5,16.30518,14.5h-0.61035   c-0.38086,0-0.74609-0.15283-1.01904-0.42041c-0.27148-0.27148-0.4209-0.63379-0.4209-1.01953   C14.25488,12.26611,14.90088,11.62012,15.69482,11.62012z"/></g></svg>