<?xml version="1.0" ?><svg id="Layer_2" style="enable-background:new 0 0 32 32;" version="1.1" viewBox="0 0 32 32" xml:space="preserve" xmlns="http://www.w3.org/2000/svg" xmlns:xlink="http://www.w3.org/1999/xlink"><g><path d="M24.29865,3.12598c-0.26758-0.46387-0.7627-0.75-1.29883-0.75h-14c-0.53613,0-1.03125,0.28613-1.29883,0.75l-7,12.12402   c-0.26807,0.46387-0.26807,1.03613,0,1.5l7,12.12402c0.26758,0.46387,0.7627,0.75,1.29883,0.75h14   c0.53613,0,1.03125-0.28613,1.29883-0.75l7-12.12402c0.26855-0.46387,0.26855-1.03613,0-1.5L24.29865,3.12598z M22.13361,26.62402   H9.86603L3.73175,16L9.86603,5.37598h12.26758L28.2674,16L22.13361,26.62402z"/><path d="M15.99982,7.63379c-4.61328,0-8.36621,3.75293-8.36621,8.36621s3.75293,8.36621,8.36621,8.36621   S24.36603,20.61328,24.36603,16S20.6131,7.63379,15.99982,7.63379z M15.99982,21.36621c-2.95898,0-5.36621-2.40723-5.36621-5.36621   s2.40723-5.36621,5.36621-5.36621S21.36603,13.04102,21.36603,16S18.9588,21.36621,15.99982,21.36621z"/></g></svg>