<?xml version="1.0" ?><svg id="Layer_2" style="enable-background:new 0 0 32 32;" version="1.1" viewBox="0 0 32 32" xml:space="preserve" xmlns="http://www.w3.org/2000/svg" xmlns:xlink="http://www.w3.org/1999/xlink"><path d="M30,14.5h-2.37744C26.94562,9.23206,22.76794,5.05438,17.5,4.37744V2c0-0.82813-0.67139-1.5-1.5-1.5S14.5,1.17188,14.5,2  v2.37744C9.23206,5.05438,5.05438,9.23206,4.37744,14.5H2c-0.82861,0-1.5,0.67188-1.5,1.5s0.67139,1.5,1.5,1.5h2.37744  C5.05438,22.76794,9.23206,26.94562,14.5,27.62256V30c0,0.82813,0.67139,1.5,1.5,1.5s1.5-0.67188,1.5-1.5v-2.37744  c5.26794-0.67694,9.44562-4.85461,10.12256-10.12256H30c0.82861,0,1.5-0.67188,1.5-1.5S30.82861,14.5,30,14.5z M17.5,24.59119  v-2.1322c0-0.82813-0.67139-1.5-1.5-1.5s-1.5,0.67188-1.5,1.5v2.1322c-3.61139-0.62927-6.46191-3.4798-7.09119-7.09119h2.1322  c0.82861,0,1.5-0.67188,1.5-1.5s-0.67139-1.5-1.5-1.5h-2.1322c0.62927-3.61139,3.4798-6.46191,7.09119-7.09119v2.1322  c0,0.82813,0.67139,1.5,1.5,1.5s1.5-0.67188,1.5-1.5v-2.1322c3.61139,0.62927,6.46191,3.4798,7.09119,7.09119h-2.1322  c-0.82861,0-1.5,0.67188-1.5,1.5s0.67139,1.5,1.5,1.5h2.1322C23.96191,21.11139,21.11139,23.96191,17.5,24.59119z"/></svg>