<?xml version="1.0" ?><svg id="Layer_2" style="enable-background:new 0 0 32 32;" version="1.1" viewBox="0 0 32 32" xml:space="preserve" xmlns="http://www.w3.org/2000/svg" xmlns:xlink="http://www.w3.org/1999/xlink"><path d="M27.83594,23.02197h-1.35791v-9.77783c0-5.26721-3.91028-9.62683-8.97803-10.35846V2c0-0.82861-0.67139-1.5-1.5-1.5  S14.5,1.17139,14.5,2v0.88568C9.43225,3.61731,5.52197,7.97693,5.52197,13.24414v9.77783H4.16406c-0.82861,0-1.5,0.67139-1.5,1.5  s0.67139,1.5,1.5,1.5h6.37939v0.02148C10.54346,29.05225,12.99121,31.5,16,31.5s5.45654-2.44775,5.45654-5.45654v-0.02148h6.37939  c0.82861,0,1.5-0.67139,1.5-1.5S28.66455,23.02197,27.83594,23.02197z M18.45654,26.04346C18.45654,27.39795,17.35449,28.5,16,28.5  s-2.45654-1.10205-2.45654-2.45654v-0.02148h4.91309V26.04346z M8.52197,23.02197v-9.77783  c0-4.12354,3.35449-7.47852,7.47803-7.47852s7.47803,3.35498,7.47803,7.47852v9.77783H8.52197z"/></svg>