<?xml version="1.0" ?><svg id="Layer_2" style="enable-background:new 0 0 32 32;" version="1.1" viewBox="0 0 32 32" xml:space="preserve" xmlns="http://www.w3.org/2000/svg" xmlns:xlink="http://www.w3.org/1999/xlink"><g><path d="M17.50067,21.7074c0,0.00006,0-16.09802,0-16.09802l3.51624,3.51624c1.41339,1.37036,3.49591-0.70288,2.12201-2.12213   c0.00006,0.00006-6.07788-6.07788-6.07788-6.07788c-0.12988-0.13-0.28314-0.22229-0.44452-0.29529   C16.05432,0.38147,15.375,0.4939,14.93896,0.9256L8.86102,7.00354C7.90552,7.89459,8.63739,9.61102,9.92206,9.56525   c0.38397,0,0.76794-0.14655,1.06104-0.43964l3.51624-3.51624v16.09808C14.52979,23.67029,17.46649,23.68768,17.50067,21.7074z"/><path d="M2.34344,21.70746v2.21393c0,4.17865,3.39996,7.57861,7.57861,7.57861h12.15588c4.17865,0,7.57861-3.39996,7.57861-7.57861   v-2.21393c0-0.82898-0.67218-1.50067-1.50067-1.50067s-1.50067,0.67169-1.50067,1.50067v2.21393   c0,2.52405-2.05365,4.57721-4.57727,4.57721H9.92206c-2.52362,0-4.57727-2.05316-4.57727-4.57721v-2.21393   c0-0.82898-0.67218-1.50067-1.50067-1.50067S2.34344,20.87848,2.34344,21.70746z"/></g></svg>