<?xml version="1.0" ?><svg id="Layer_2" style="enable-background:new 0 0 32 32;" version="1.1" viewBox="0 0 32 32" xml:space="preserve" xmlns="http://www.w3.org/2000/svg" xmlns:xlink="http://www.w3.org/1999/xlink"><g><path d="M23.96875,27.36816H8.03125c-4.15234,0-7.53125-3.37891-7.53125-7.53125c0-3.78125,2.80078-6.91992,6.43555-7.45215   C7.62109,7.99902,11.4248,4.63184,16,4.63184s8.37891,3.36719,9.06445,7.75293C28.69922,12.91699,31.5,16.05566,31.5,19.83691   C31.5,23.98926,28.12109,27.36816,23.96875,27.36816z M8.03125,15.30566c-2.49902,0-4.53125,2.03223-4.53125,4.53125   s2.03223,4.53125,4.53125,4.53125h15.9375c2.49902,0,4.53125-2.03223,4.53125-4.53125s-2.03223-4.53125-4.53125-4.53125h-0.29492   c-0.82813,0-1.5-0.67188-1.5-1.5c0-3.4043-2.76953-6.17383-6.17383-6.17383s-6.17383,2.76953-6.17383,6.17383   c0,0.82813-0.67188,1.5-1.5,1.5H8.03125z"/></g></svg>