<?xml version="1.0" ?><svg id="Layer_2" style="enable-background:new 0 0 32 32;" version="1.1" viewBox="0 0 32 32" xml:space="preserve" xmlns="http://www.w3.org/2000/svg" xmlns:xlink="http://www.w3.org/1999/xlink"><path d="M27.42676,26.16504c0.82813,0,1.5-0.67139,1.5-1.5V2c0-0.82861-0.67188-1.5-1.5-1.5H7.57324c-2.48145,0-4.5,2.01855-4.5,4.5  c0,0,0.01062,22.53741,0.03064,22.63519C3.26215,29.78973,5.047,31.5,7.24121,31.5h20.18555c0.82813,0,1.5-0.67139,1.5-1.5  s-0.67188-1.5-1.5-1.5H25.7041v-2.33496H27.42676z M25.92676,23.16504H10.65625V3.5h15.27051V23.16504z M7.57324,3.5h0.08301  v19.66504H7.24121c-0.40814,0-0.79486,0.07727-1.16797,0.18719V5C6.07324,4.17285,6.74609,3.5,7.57324,3.5z M22.7041,28.5H7.24121  c-0.64355,0-1.16797-0.52393-1.16797-1.16748s0.52441-1.16748,1.16797-1.16748H22.7041V28.5z"/></svg>