<?xml version="1.0" ?><svg id="Layer_2" style="enable-background:new 0 0 32 32;" version="1.1" viewBox="0 0 32 32" xml:space="preserve" xmlns="http://www.w3.org/2000/svg" xmlns:xlink="http://www.w3.org/1999/xlink"><g><path d="M23.26074,4.66699h-2.00781V4.0708c0-1.96875-1.60156-3.5708-3.57031-3.5708h-3.36523   c-1.96875,0-3.57031,1.60205-3.57031,3.5708v0.59619H8.73926c-3.11035,0-5.6416,2.53076-5.6416,5.64111   c0,1.28223,1.04297,2.32568,2.3252,2.32568H6.1123v13.2251c0,3.11035,2.53125,5.64111,5.6416,5.64111h8.49219   c3.11035,0,5.6416-2.53076,5.6416-5.64111v-13.2251h0.68945c1.28223,0,2.3252-1.04346,2.3252-2.32568   C28.90234,7.19775,26.37109,4.66699,23.26074,4.66699z M13.74707,4.0708c0-0.31494,0.25586-0.5708,0.57031-0.5708h3.36523   c0.31445,0,0.57031,0.25586,0.57031,0.5708v0.59619h-4.50586V4.0708z M8.73926,7.66699h14.52148   c1.22363,0,2.25586,0.83594,2.55469,1.9668H6.18457C6.4834,8.50293,7.51563,7.66699,8.73926,7.66699z M22.8877,25.85889   c0,1.45654-1.18457,2.64111-2.6416,2.64111h-8.49219c-1.45703,0-2.6416-1.18457-2.6416-2.64111v-13.2251H22.8877V25.85889z"/><path d="M11.72949,26.3374c0.82813,0,1.5-0.67139,1.5-1.5v-8.54102c0-0.82861-0.67188-1.5-1.5-1.5s-1.5,0.67139-1.5,1.5v8.54102   C10.22949,25.66602,10.90137,26.3374,11.72949,26.3374z"/><path d="M16,26.3374c0.82813,0,1.5-0.67139,1.5-1.5v-8.54102c0-0.82861-0.67188-1.5-1.5-1.5s-1.5,0.67139-1.5,1.5v8.54102   C14.5,25.66602,15.17188,26.3374,16,26.3374z"/><path d="M20.27051,26.3374c0.82813,0,1.5-0.67139,1.5-1.5v-8.54102c0-0.82861-0.67188-1.5-1.5-1.5s-1.5,0.67139-1.5,1.5v8.54102   C18.77051,25.66602,19.44238,26.3374,20.27051,26.3374z"/></g></svg>