<?xml version="1.0" ?><svg id="Layer_2" style="enable-background:new 0 0 32 32;" version="1.1" viewBox="0 0 32 32" xml:space="preserve" xmlns="http://www.w3.org/2000/svg" xmlns:xlink="http://www.w3.org/1999/xlink"><g><path d="M16,0.5C7.45313,0.5,0.5,7.45313,0.5,16S7.45313,31.5,16,31.5S31.5,24.54688,31.5,16S24.54688,0.5,16,0.5z M16,28.5   C9.10742,28.5,3.5,22.89258,3.5,16S9.10742,3.5,16,3.5S28.5,9.10742,28.5,16S22.89258,28.5,16,28.5z"/><path d="M15.18848,11.18848c0-2.20605-1.79443-4-4-4s-4,1.79395-4,4s1.79443,4,4,4S15.18848,13.39453,15.18848,11.18848z    M10.18848,11.18848c0-0.55176,0.44873-1,1-1s1,0.44824,1,1s-0.44873,1-1,1S10.18848,11.74023,10.18848,11.18848z"/><path d="M20.81152,16.81152c-2.20557,0-4,1.79395-4,4s1.79443,4,4,4s4-1.79395,4-4S23.01709,16.81152,20.81152,16.81152z    M20.81152,21.81152c-0.55127,0-1-0.44824-1-1s0.44873-1,1-1s1,0.44824,1,1S21.36279,21.81152,20.81152,21.81152z"/><path d="M21.83203,7.25195c-0.69092-0.46191-1.62158-0.27344-2.08008,0.41602l-10,15   c-0.45947,0.68945-0.27344,1.62012,0.41602,2.08008C10.42383,24.91895,10.71289,25,10.99854,25   c0.48486,0,0.96045-0.23438,1.24951-0.66797l10-15C22.70752,8.64258,22.52148,7.71191,21.83203,7.25195z"/></g></svg>