<?xml version="1.0" ?><svg id="Layer_2" style="enable-background:new 0 0 32 32;" version="1.1" viewBox="0 0 32 32" xml:space="preserve" xmlns="http://www.w3.org/2000/svg" xmlns:xlink="http://www.w3.org/1999/xlink"><g><path d="M16,19.09668c-2.77637,0-5.03516,2.25879-5.03516,5.03516S13.22363,29.16699,16,29.16699s5.03516-2.25879,5.03516-5.03516   S18.77637,19.09668,16,19.09668z M16,26.16699c-1.12207,0-2.03516-0.91309-2.03516-2.03516S14.87793,22.09668,16,22.09668   s2.03516,0.91309,2.03516,2.03516S17.12207,26.16699,16,26.16699z"/><path d="M16,13.6792c-2.78223,0-5.40723,1.0835-7.3916,3.05127c-0.58789,0.58301-0.5918,1.53271-0.00879,2.12109   c0.58496,0.58887,1.5332,0.59229,2.12207,0.00879C12.13965,17.4541,14.01465,16.6792,16,16.6792s3.86035,0.7749,5.27832,2.18115   c0.29297,0.29004,0.6748,0.43506,1.05664,0.43506c0.38574,0,0.77148-0.14795,1.06543-0.44385   c0.58301-0.58838,0.5791-1.53809-0.00879-2.12109C21.40723,14.7627,18.78223,13.6792,16,13.6792z"/><path d="M16,8.24902c-4.23926,0-8.22656,1.65234-11.22852,4.65283c-0.58594,0.58594-0.58594,1.53564,0,2.12158   s1.53516,0.58545,2.12109,0.00049c2.43457-2.43457,5.66992-3.7749,9.10742-3.7749s6.67285,1.34033,9.10742,3.7749   c0.29297,0.29248,0.67676,0.43896,1.06055,0.43896s0.76758-0.14648,1.06055-0.43945c0.58594-0.58594,0.58594-1.53564,0-2.12158   C24.22656,9.90137,20.23926,8.24902,16,8.24902z"/><path d="M31.05859,9.06787C27.02148,5.04736,21.67383,2.83301,16,2.83301S4.97852,5.04736,0.94141,9.06787   c-0.58691,0.58496-0.58887,1.53467-0.00391,2.12158c0.58496,0.5874,1.53418,0.58887,2.12109,0.00439   C6.5293,7.73682,11.125,5.83301,16,5.83301s9.4707,1.90381,12.94141,5.36084c0.29297,0.2915,0.67578,0.43701,1.05859,0.43701   c0.38477,0,0.76953-0.14697,1.0625-0.44141C31.64746,10.60254,31.64551,9.65283,31.05859,9.06787z"/></g></svg>