<?xml version="1.0" ?><svg id="Layer_2" style="enable-background:new 0 0 32 32;" version="1.1" viewBox="0 0 32 32" xml:space="preserve" xmlns="http://www.w3.org/2000/svg" xmlns:xlink="http://www.w3.org/1999/xlink"><g><path d="M30.40234,19.82324c-0.22949-0.36719-0.60645-0.61621-1.03418-0.68555l-9.45801-1.51758   c-0.44434-0.07129-0.89551,0.06055-1.23145,0.3584c-0.75098,0.66406-1.35352,1.44336-1.78809,2.30371   c-0.63458-0.36121-1.22864-0.78955-1.80096-1.25079L27.37695,6.74414c0.58594-0.58594,0.58594-1.53516,0-2.12109   s-1.53516-0.58594-2.12109,0L12.96857,16.91034c-0.46124-0.57233-0.88959-1.16638-1.25079-1.80096   c0.86035-0.43457,1.63965-1.03711,2.30371-1.78809c0.29785-0.33594,0.42871-0.78809,0.3584-1.23145L12.8623,2.63184   c-0.06934-0.42773-0.31836-0.80469-0.68555-1.03418C11.5,1.17383,10.74609,0.87402,10.02148,0.72754   C9.45996,0.57617,8.85547,0.5,8.22461,0.5C3.96484,0.5,0.5,3.96484,0.5,8.22461c0,5.8783,2.19495,11.25073,5.80255,15.35175   l-5.04669,5.04669c-0.58594,0.58594-0.58594,1.53516,0,2.12109c0.29297,0.29297,0.67676,0.43945,1.06055,0.43945   s0.76758-0.14648,1.06055-0.43945l5.04669-5.04669C12.52466,29.30505,17.89709,31.5,23.77539,31.5   c4.25977,0,7.72461-3.46484,7.72461-7.72461c0-0.63086-0.07617-1.23535-0.20703-1.71191   C31.12598,21.25391,30.82617,20.5,30.40234,19.82324z M3.5,8.22461C3.5,5.61914,5.61914,3.5,8.22461,3.5   c0.36816,0,0.71191,0.04199,1.10449,0.14453c0.24414,0.05078,0.47266,0.11914,0.69043,0.20703l1.27637,7.95508   c-0.58008,0.49805-1.25586,0.84082-1.98633,1.00195c-0.43555,0.0957-0.80566,0.38086-1.00977,0.77734   s-0.22168,0.86328-0.04785,1.27344c0.64618,1.5213,1.51245,2.92413,2.57544,4.19214L8.4353,21.4436   C5.36871,17.89001,3.5,13.27551,3.5,8.22461z M23.77539,28.5c-5.0509,0-9.66541-1.86871-13.21899-4.9353l2.39209-2.39209   c1.26801,1.06299,2.67084,1.92926,4.19214,2.57544c0.40918,0.17285,0.87793,0.15723,1.27344-0.04785   c0.39648-0.2041,0.68164-0.57422,0.77734-1.00977c0.16113-0.73047,0.50391-1.40625,1.00195-1.98633l7.95313,1.27637   c0.09277,0.22949,0.16699,0.48242,0.22949,0.77539C28.45801,23.06348,28.5,23.40723,28.5,23.77539   C28.5,26.38086,26.38086,28.5,23.77539,28.5z"/></g></svg>