<?xml version="1.0" ?><svg id="Layer_2" style="enable-background:new 0 0 32 32;" version="1.1" viewBox="0 0 32 32" xml:space="preserve" xmlns="http://www.w3.org/2000/svg" xmlns:xlink="http://www.w3.org/1999/xlink"><path d="M23.21271,3.25028c-2.29408-2.05041-5.37532-3.02801-8.45949-2.6818c-4.86845,0.54691-8.85795,4.46804-9.48494,9.3238  c-0.45608,3.53195,0.77055,6.94084,3.36641,9.35212c0.3008,0.2798,0.46682,0.64262,0.46682,1.02203v2.56461  c0,1.76512,1.0567,3.28065,2.56656,3.96978v1.28542c0,1.88243,1.53134,3.41378,3.41426,3.41378h1.83605  c1.88293,0,3.41427-1.53134,3.41427-3.41378v-1.28542c1.50985-0.68913,2.56656-2.20466,2.56656-3.96978v-2.56412  c0-0.37942,0.167-0.74418,0.47073-1.02692c2.19544-2.04211,3.45528-4.92803,3.45528-7.91746  C26.82522,8.24472,25.50874,5.30265,23.21271,3.25028z M16.91839,28.49982h-1.83605c-0.22853,0-0.41409-0.18556-0.41409-0.4136  V27.2014h2.66422v0.88482C17.33247,28.31426,17.14692,28.49982,16.91839,28.49982z M21.32587,17.04358  c-0.9063,0.84478-1.42684,2.01916-1.42684,3.22334v2.56412c0,0.75541-0.61429,1.3702-1.3702,1.3702h-1.02838v-8.92387  c2.04181-0.3453,3.60568-2.11426,3.60568-4.25269c0-0.82866-0.67192-1.50009-1.50009-1.50009s-1.50009,0.67143-1.50009,1.50009  c0,0.731-0.59476,1.32527-1.32527,1.32527h-1.56064c-0.73051,0-1.32527-0.59427-1.32527-1.32527  c0-0.82866-0.67192-1.50009-1.50009-1.50009c-0.82817,0-1.50009,0.67143-1.50009,1.50009c0,2.13843,1.56387,3.9074,3.60568,4.25269  v8.92387h-1.02838c-0.7559,0-1.3702-0.61478-1.3702-1.3702v-2.56461c0-1.20564-0.51956-2.37905-1.42587-3.22041  c-1.87609-1.74327-2.76286-4.2107-2.43276-6.76944c0.45315-3.50314,3.33125-6.33192,6.84513-6.72647  c0.30861-0.03467,0.61625-0.05225,0.92095-0.05225c1.9298,0,3.7512,0.69047,5.20343,1.98938  c1.66025,1.48349,2.61246,3.61057,2.61246,5.83531C23.82505,13.51309,22.93827,15.54495,21.32587,17.04358z"/></svg>