<?xml version="1.0" ?><svg id="Layer_2" style="enable-background:new 0 0 32 32;" version="1.1" viewBox="0 0 32 32" xml:space="preserve" xmlns="http://www.w3.org/2000/svg" xmlns:xlink="http://www.w3.org/1999/xlink"><g><path d="M24.05957,31.5c-0.25879,0-0.51758-0.06738-0.75-0.20117L16.75,27.51172c-0.46094-0.26563-1.03809-0.2666-1.50098,0.00098   l-6.55859,3.78613c-0.46484,0.26758-1.03516,0.26758-1.5,0c-0.46387-0.26758-0.75-0.7627-0.75-1.29883V6   c0-3.03223,2.46777-5.5,5.5-5.5h8.11914c3.03223,0,5.5,2.46777,5.5,5.5v24c0,0.53613-0.28613,1.03125-0.75,1.29883   C24.57715,31.43262,24.31836,31.5,24.05957,31.5z M16,24.31348c0.77832,0,1.55566,0.2002,2.24902,0.59961l4.31055,2.48926V6   c0-1.37891-1.12109-2.5-2.5-2.5h-8.11914c-1.37891,0-2.5,1.12109-2.5,2.5v21.40234L13.75,24.91406   C14.44434,24.51367,15.22266,24.31348,16,24.31348z"/></g></svg>