<?xml version="1.0" ?><svg id="Layer_2" style="enable-background:new 0 0 32 32;" version="1.1" viewBox="0 0 32 32" xml:space="preserve" xmlns="http://www.w3.org/2000/svg" xmlns:xlink="http://www.w3.org/1999/xlink"><g><path d="M30.85059,14.76471l-14.02393-9.6582c-0.4585-0.31641-1.05469-0.35156-1.54834-0.09277   c-0.49316,0.25977-0.80225,0.77051-0.80225,1.32813v6.77106L2.85059,5.10651C2.3916,4.7901,1.79492,4.75494,1.30225,5.01373   C0.80908,5.2735,0.5,5.78424,0.5,6.34186v19.31641c0,0.55762,0.30908,1.06836,0.80225,1.32813   C1.52148,27.10162,1.76123,27.15826,2,27.15826c0.29834,0,0.5957-0.08887,0.85059-0.26465l11.62549-8.00641v6.77106   c0,0.55762,0.30908,1.06836,0.80225,1.32813c0.21924,0.11523,0.45898,0.17188,0.69775,0.17188   c0.29834,0,0.5957-0.08887,0.85059-0.26465l14.02393-9.6582C31.25684,16.95514,31.5,16.49323,31.5,16.00006   S31.25684,15.04498,30.85059,14.76471z M3.5,22.80377V9.19635l9.87939,6.80371L3.5,22.80377z M17.47559,22.80377V9.19635   l9.87988,6.80371L17.47559,22.80377z"/></g></svg>