<?xml version="1.0" ?><svg id="Layer_2" style="enable-background:new 0 0 32 32;" version="1.1" viewBox="0 0 32 32" xml:space="preserve" xmlns="http://www.w3.org/2000/svg" xmlns:xlink="http://www.w3.org/1999/xlink"><g><path d="M27.375,8.75c2.27441,0,4.125-1.85059,4.125-4.125S29.64941,0.5,27.375,0.5S23.25,2.35059,23.25,4.625V5.75H8.75V4.625   C8.75,2.35059,6.89941,0.5,4.625,0.5S0.5,2.35059,0.5,4.625S2.35059,8.75,4.625,8.75H5.75v14.5H4.625   c-2.27441,0-4.125,1.85059-4.125,4.125S2.35059,31.5,4.625,31.5s4.125-1.85059,4.125-4.125V26.25h14.5v1.125   c0,2.27441,1.85059,4.125,4.125,4.125s4.125-1.85059,4.125-4.125s-1.85059-4.125-4.125-4.125H26.25V8.75H27.375z M26.25,4.625   c0-0.62012,0.50488-1.125,1.125-1.125S28.5,4.00488,28.5,4.625S27.99512,5.75,27.375,5.75H26.25V4.625z M5.75,27.375   c0,0.62012-0.50488,1.125-1.125,1.125S3.5,27.99512,3.5,27.375s0.50488-1.125,1.125-1.125H5.75V27.375z M5.75,5.75H4.625   C4.00488,5.75,3.5,5.24512,3.5,4.625S4.00488,3.5,4.625,3.5S5.75,4.00488,5.75,4.625V5.75z M23.25,23.25H8.75V8.75h14.5V23.25z    M27.375,26.25c0.62012,0,1.125,0.50488,1.125,1.125S27.99512,28.5,27.375,28.5s-1.125-0.50488-1.125-1.125V26.25H27.375z"/></g></svg>