<?xml version="1.0" ?><svg id="Layer_2" style="enable-background:new 0 0 32 32;" version="1.1" viewBox="0 0 32 32" xml:space="preserve" xmlns="http://www.w3.org/2000/svg" xmlns:xlink="http://www.w3.org/1999/xlink"><g><path d="M3.82593,16c0,0.82861,0.67139,1.5,1.5,1.5h9.17432v10.79004c-0.00049,0.23584-0.40967,0.24707-0.41016,0v-1.03027   c0-0.82861-0.67139-1.5-1.5-1.5s-1.5,0.67139-1.5,1.5v1.03027c0,1.77002,1.43555,3.20996,3.2002,3.20996   c1.77002,0,3.20996-1.43994,3.20996-3.20996V17.5h9.17383c0.82813,0,1.5-0.67139,1.5-1.5v-0.86475   c0-6.20404-4.66754-11.32904-10.67383-12.07196V2c0-0.82861-0.67139-1.5-1.5-1.5s-1.5,0.67139-1.5,1.5v1.06329   C8.4939,3.80621,3.82593,8.93121,3.82593,15.13525V16z M16.00024,5.96094c4.84473,0,8.82422,3.77588,9.15234,8.53906H6.8479   C7.17505,9.73682,11.15503,5.96094,16.00024,5.96094z"/></g></svg>