<?xml version="1.0" ?><svg id="Layer_2" style="enable-background:new 0 0 32 32;" version="1.1" viewBox="0 0 32 32" xml:space="preserve" xmlns="http://www.w3.org/2000/svg" xmlns:xlink="http://www.w3.org/1999/xlink"><path d="M27.19336,5.66565L16.64453,0.64563c-0.4082-0.19434-0.88086-0.19434-1.28906,0L4.80664,5.66565  C4.21484,5.9469,3.875,6.57971,3.96582,7.22815l1.36621,9.7583c0.65918,4.70264,3.07227,8.91504,6.7959,11.8623l2.94141,2.32764  C15.3418,31.39221,15.6709,31.50012,16,31.50012s0.6582-0.10791,0.93066-0.32373l2.94141-2.32764  c3.72363-2.94727,6.13672-7.15967,6.7959-11.8623l1.36621-9.7583C28.125,6.57971,27.78516,5.9469,27.19336,5.66565z   M23.69727,16.57043c-0.55176,3.93457-2.57129,7.45996-5.68652,9.92578L16,28.08704l-2.01074-1.59082  c-3.11523-2.46582-5.13477-5.99121-5.68652-9.92578L7.08887,7.90198L16,3.66125l8.91113,4.24072L23.69727,16.57043z"/></svg>