<?xml version="1.0" ?><svg id="Layer_2" style="enable-background:new 0 0 32 32;" version="1.1" viewBox="0 0 32 32" xml:space="preserve" xmlns="http://www.w3.org/2000/svg" xmlns:xlink="http://www.w3.org/1999/xlink"><path d="M31.50009,7.5759c0-1.04883-0.4082-2.03418-1.14941-2.77441l-3.15283-3.15332c-1.53027-1.5293-4.01953-1.5293-5.5498,0  L3.12606,20.17062c-0.18569,0.19797-0.32028,0.43597-0.39501,0.69727c-0.00001-0.00001-2.18654,8.76757-2.18654,8.76757  c-0.12744,0.51172,0.02246,1.05176,0.39502,1.42383c0.37218,0.37407,0.91852,0.52225,1.42334,0.39453  c0,0,8.76807-2.18652,8.76807-2.18652c0.26327-0.07266,0.50111-0.21571,0.69774-0.39455  c0.00001,0.00002,18.52198-18.52245,18.52198-18.52245C31.09188,9.61008,31.50009,8.62472,31.50009,7.5759z M19.3146,8.22403  l4.46002,4.46027L10.76815,25.69113l-4.45996-4.45996L19.3146,8.22403z M5.0007,24.16623l2.8324,2.83221l-3.77344,0.94073  L5.0007,24.16623z M28.22958,8.22922l-2.33392,2.33398l-4.46002-4.46033l2.3335-2.33362c0.36035-0.35938,0.94727-0.35938,1.30762,0  l3.15283,3.15332C28.58791,7.26652,28.5881,7.88527,28.22958,8.22922z"/></svg>