<?xml version="1.0" ?><svg id="Layer_2" style="enable-background:new 0 0 32 32;" version="1.1" viewBox="0 0 32 32" xml:space="preserve" xmlns="http://www.w3.org/2000/svg" xmlns:xlink="http://www.w3.org/1999/xlink"><g><path d="M12.12793,28.84741l2.94141,2.32813C15.3418,31.39136,15.6709,31.49976,16,31.49976s0.6582-0.1084,0.93066-0.32422   l2.94141-2.32813c3.72363-2.94629,6.13672-7.1582,6.7959-11.86133l1.36621-9.75879c0.09082-0.64844-0.24902-1.28125-0.84082-1.5625   L16.64453,0.64526c-0.4082-0.19336-0.88086-0.19336-1.28906,0L4.80664,5.66479C4.21484,5.94604,3.875,6.57886,3.96582,7.22729   l1.36621,9.75879C5.99121,21.68921,8.4043,25.90112,12.12793,28.84741z M7.08887,7.90112L16,3.66089l8.91113,4.24023   l-1.21387,8.66895c-0.55176,3.93457-2.57129,7.45996-5.68652,9.92578L16,28.08667l-2.01074-1.59082   c-3.11523-2.46582-5.13477-5.99121-5.68652-9.92578L7.08887,7.90112z"/><path d="M14.82324,17.49976c0.38379,0,0.76758-0.14648,1.06055-0.43945l4.77734-4.77637c0.58594-0.58594,0.58594-1.53516,0-2.12109   s-1.53516-0.58594-2.12109,0l-3.7168,3.71582l-1.36328-1.36328c-0.58594-0.58594-1.53516-0.58594-2.12109,0   s-0.58594,1.53516,0,2.12109l2.42383,2.42383C14.05566,17.35327,14.43945,17.49976,14.82324,17.49976z"/></g></svg>