<?xml version="1.0" ?><svg id="Layer_2" style="enable-background:new 0 0 32 32;" version="1.1" viewBox="0 0 32 32" xml:space="preserve" xmlns="http://www.w3.org/2000/svg" xmlns:xlink="http://www.w3.org/1999/xlink"><g><path d="M20.86615,26.2514l2.21399,4.42047C23.34283,31.19727,23.87207,31.5,24.42188,31.5   c0.22559,0,0.45508-0.05078,0.6709-0.15918c0.74017-0.37109,1.03998-1.27148,0.66895-2.01263l-2.32129-4.63483   c2.78796-2.20428,4.58582-5.60797,4.58582-9.43018c0-6.63068-5.39435-12.02502-12.026-12.02502   c-6.63116,0-12.026,5.39435-12.026,12.02502c0,3.82196,1.79791,7.22552,4.58563,9.42981l-2.32153,4.63519   c-0.37109,0.74115-0.07129,1.64154,0.66943,2.01263C7.1236,31.44922,7.35254,31.5,7.57861,31.5   c0.5498,0,1.0791-0.30273,1.34229-0.82813l2.21393-4.42035c1.48938,0.66217,3.13312,1.03766,4.86542,1.03766   C17.73273,27.28918,19.37665,26.91364,20.86615,26.2514z M6.97418,15.26318c0-4.97644,4.04919-9.02515,9.02606-9.02515   c4.97742,0,9.02612,4.04871,9.02612,9.02515c0,4.97736-4.04871,9.02606-9.02612,9.02606   C11.02338,24.28925,6.97418,20.24054,6.97418,15.26318z"/><path d="M23.08698,0.65131c-0.74512-0.3623-1.64252-0.05078-2.00482,0.69427c-0.36133,0.74512-0.05078,1.64258,0.69427,2.00482   c2.664,1.29395,4.84363,3.47357,6.13654,6.13751c0.25977,0.53418,0.79395,0.84473,1.35059,0.84473   c0.21973,0,0.44336-0.04785,0.65424-0.15039c0.74512-0.3623,1.05566-1.2597,0.69434-2.00482   C29.02625,4.91193,26.35345,2.23914,23.08698,0.65131z"/><path d="M4.08655,9.48792c1.29388-2.66296,3.47351-4.84357,6.138-6.13751c0.74512-0.36224,1.05566-1.2597,0.69336-2.00482   C10.5556,0.59955,9.65765,0.289,8.91309,0.65131C5.64655,2.23914,2.9743,4.91193,1.38837,8.17743   C1.02612,8.92255,1.3371,9.81995,2.08221,10.18225c0.21094,0.10254,0.43408,0.15039,0.6543,0.15039   C3.2926,10.33264,3.82727,10.02209,4.08655,9.48792z"/><path d="M18.7121,16.76312c0.82813,0,1.49994-0.67188,1.49994-1.49994c0-0.82813-0.67181-1.5-1.49994-1.5h-1.21185v-3.76257   c0-0.82806-0.67139-1.49994-1.5-1.49994c-0.82855,0-1.49994,0.67188-1.49994,1.49994v5.26257   c0,0.82806,0.67139,1.49994,1.49994,1.49994H18.7121z"/></g></svg>