<?xml version="1.0" ?><svg id="Layer_2" style="enable-background:new 0 0 32 32;" version="1.1" viewBox="0 0 32 32" xml:space="preserve" xmlns="http://www.w3.org/2000/svg" xmlns:xlink="http://www.w3.org/1999/xlink"><g><path d="M30.09326,23.30078l-5.31299-5.31348c-0.28125-0.28125-0.6626-0.43945-1.06055-0.43945s-0.7793,0.1582-1.06055,0.43945   l-1.27515,1.27515l-1.45221-1.45221c3.19476-4.23242,2.87634-10.29108-0.97821-14.1452   c-4.21436-4.21387-11.07275-4.21582-15.28711,0C1.62451,5.70703,0.5,8.4209,0.5,11.30859c0,2.88867,1.12451,5.60254,3.1665,7.64453   c2.10742,2.10742,4.87549,3.16113,7.64355,3.16113c2.29419,0,4.58252-0.73535,6.50061-2.18298l1.45227,1.45227l-1.27466,1.27466   c-0.28125,0.28125-0.43945,0.66309-0.43945,1.06055s0.1582,0.7793,0.43945,1.06055l5.31299,5.3125   c0.93604,0.93652,2.16602,1.4043,3.396,1.4043s2.45947-0.46777,3.396-1.4043C31.00049,29.18555,31.5,27.97949,31.5,26.69629   S31.00049,24.20703,30.09326,23.30078z M5.7876,16.83203C4.3125,15.35645,3.5,13.39551,3.5,11.30859   c0-2.08594,0.8125-4.04688,2.2876-5.52246c1.52246-1.52246,3.52246-2.2832,5.52246-2.2832s4,0.76074,5.52246,2.2832   c3.04541,3.0459,3.04541,8,0,11.0459C13.7876,19.87695,8.83252,19.87695,5.7876,16.83203z M27.97217,27.9707   c-0.70264,0.70215-1.84619,0.7041-2.5498,0l-4.25195-4.25195l2.54932-2.5498l4.25244,4.25293   C28.3125,25.7627,28.5,26.21484,28.5,26.69629S28.3125,27.62988,27.97217,27.9707z"/><path d="M15.2207,9.80859h-2.41064V7.39844c0-0.82813-0.67139-1.5-1.5-1.5s-1.5,0.67188-1.5,1.5v2.41016H7.39941   c-0.82861,0-1.5,0.67188-1.5,1.5s0.67139,1.5,1.5,1.5h2.41064v2.41113c0,0.82813,0.67139,1.5,1.5,1.5s1.5-0.67188,1.5-1.5v-2.41113   h2.41064c0.82861,0,1.5-0.67188,1.5-1.5S16.04932,9.80859,15.2207,9.80859z"/></g></svg>