<?xml version="1.0" ?><svg id="Layer_2" style="enable-background:new 0 0 32 32;" version="1.1" viewBox="0 0 32 32" xml:space="preserve" xmlns="http://www.w3.org/2000/svg" xmlns:xlink="http://www.w3.org/1999/xlink"><path d="M27.37714,8.70142c-0.07684-0.18732-0.18958-0.35583-0.33105-0.49615l-7.26392-7.26392  c-0.13947-0.14008-0.30695-0.25146-0.49268-0.32788C19.28223,0.61047,18.91357,0.5,18.71973,0.5H6.00977  c-0.82861,0-1.5,0.67139-1.5,1.5v28c0,0.82861,0.67139,1.5,1.5,1.5h19.98047c0.82861,0,1.5-0.67139,1.5-1.5V9.27002  C27.49023,9.07471,27.37939,8.70691,27.37714,8.70142z M20.21973,5.62109l2.14893,2.14893h-2.14893V5.62109z M24.49023,28.5H7.50977  v-25h9.70996v5.77002c0,0.82861,0.67139,1.5,1.5,1.5h5.77051V28.5z"/></svg>