<?xml version="1.0" ?><svg id="Layer_2" style="enable-background:new 0 0 32 32;" version="1.1" viewBox="0 0 32 32" xml:space="preserve" xmlns="http://www.w3.org/2000/svg" xmlns:xlink="http://www.w3.org/1999/xlink"><g><path d="M21.5332,5.43066h-0.26465V4c0-1.92969-1.57031-3.5-3.5-3.5h-3.53711c-1.92969,0-3.5,1.57031-3.5,3.5v1.43066H10.4668   c-1.92969,0-3.5,1.57031-3.5,3.5V28c0,1.92969,1.57031,3.5,3.5,3.5H21.5332c1.92969,0,3.5-1.57031,3.5-3.5V8.93066   C25.0332,7.00098,23.46289,5.43066,21.5332,5.43066z M13.73145,4c0-0.27588,0.22412-0.5,0.5-0.5h3.53711   c0.27539,0,0.5,0.22412,0.5,0.5v1.43066h-4.53711V4z M22.0332,28c0,0.27588-0.22461,0.5-0.5,0.5H10.4668   c-0.27588,0-0.5-0.22412-0.5-0.5V8.93066c0-0.27588,0.22412-0.5,0.5-0.5H21.5332c0.27539,0,0.5,0.22412,0.5,0.5V28z"/><path d="M18.97754,10.63281h-5.95508c-0.82861,0-1.5,0.67139-1.5,1.5s0.67139,1.5,1.5,1.5h5.95508c0.82813,0,1.5-0.67139,1.5-1.5   S19.80566,10.63281,18.97754,10.63281z"/><path d="M18.97754,16.96533h-5.95508c-0.82861,0-1.5,0.67139-1.5,1.5s0.67139,1.5,1.5,1.5h5.95508c0.82813,0,1.5-0.67139,1.5-1.5   S19.80566,16.96533,18.97754,16.96533z"/><path d="M18.97754,23.29785h-5.95508c-0.82861,0-1.5,0.67139-1.5,1.5s0.67139,1.5,1.5,1.5h5.95508c0.82813,0,1.5-0.67139,1.5-1.5   S19.80566,23.29785,18.97754,23.29785z"/></g></svg>