<?xml version="1.0" ?><svg id="Layer_2" style="enable-background:new 0 0 32 32;" version="1.1" viewBox="0 0 32 32" xml:space="preserve" xmlns="http://www.w3.org/2000/svg" xmlns:xlink="http://www.w3.org/1999/xlink"><g><path d="M18.28406,7.03094l-9.07245,9.07349c-1.79944,1.79938-1.79944,4.7262,0,6.52563c1.79938,1.80133,4.72815,1.79944,6.52563,0   l7.72754-7.72754c0.58014-0.58014,0.58014-1.51996,0-2.1001s-1.52002-0.58014-2.10016,0l-7.72748,7.72754   c-0.64111,0.6391-1.68243,0.64105-2.32544,0c-0.64105-0.64111-0.64105-1.68439,0-2.32544l9.07251-9.07343   c1.86224-1.86035,4.89063-1.86035,6.75092,0c0.90118,0.9021,1.39813,2.10107,1.39813,3.3764   c0,1.27441-0.49695,2.47333-1.39813,3.37549L16.95654,26.06165c-1.49292,1.49286-3.47797,2.31476-5.58875,2.31476   s-4.09485-0.8219-5.58777-2.31476c-3.08154-3.08154-3.08154-8.09497,0-11.17651L17.47577,3.18848   c0.58014-0.58014,0.58014-1.51996,0-2.10016c-0.5802-0.58014-1.52002-0.58014-2.10016,0L3.67993,12.78503   c-4.23993,4.23889-4.23993,11.13776,0,15.37671c2.05273,2.05371,4.78326,3.185,7.68787,3.185s5.63513-1.13129,7.68884-3.185   l10.17865-10.17865c3.01959-3.01965,3.01959-7.9325,0-10.95215C26.21753,4.01422,21.30371,4.01031,18.28406,7.03094z"/></g></svg>