<?xml version="1.0" ?><svg id="Layer_2" style="enable-background:new 0 0 32 32;" version="1.1" viewBox="0 0 32 32" xml:space="preserve" xmlns="http://www.w3.org/2000/svg" xmlns:xlink="http://www.w3.org/1999/xlink"><g><path d="M17.76855,0.5h-3.53711c-1.92969,0-3.5,1.57031-3.5,3.5v1.43066H10.4668c-1.92969,0-3.5,1.57031-3.5,3.5V28   c0,1.92969,1.57031,3.5,3.5,3.5H21.5332c1.92969,0,3.5-1.57031,3.5-3.5V8.93066c0-1.92969-1.57031-3.5-3.5-3.5h-0.26465V4   C21.26855,2.07031,19.69824,0.5,17.76855,0.5z M13.73145,4c0-0.27588,0.22412-0.5,0.5-0.5h3.53711c0.27588,0,0.5,0.22412,0.5,0.5   v1.43066h-4.53711V4z M21.5332,8.43066c0.27588,0,0.5,0.22412,0.5,0.5V28c0,0.27588-0.22412,0.5-0.5,0.5H10.4668   c-0.27588,0-0.5-0.22412-0.5-0.5V8.93066c0-0.27588,0.22412-0.5,0.5-0.5H21.5332z"/><path d="M14.15186,19.96533h1.58203l-1.05176,3.00439c-0.27344,0.78223,0.13867,1.6377,0.92041,1.91162   c0.16406,0.05713,0.33105,0.08447,0.49561,0.08447c0.61963,0,1.19971-0.38721,1.41602-1.00488l1.75-5   c0.16016-0.45898,0.08887-0.96729-0.19287-1.36377c-0.28125-0.39648-0.73682-0.63184-1.22314-0.63184h-1.50293l1.15088-2.95605   c0.30029-0.77197-0.08203-1.64111-0.854-1.94189c-0.77393-0.30176-1.6416,0.08203-1.94189,0.854l-1.94629,5   c-0.17969,0.46143-0.11963,0.98193,0.15967,1.39063C13.19336,19.7207,13.65674,19.96533,14.15186,19.96533z"/></g></svg>