<?xml version="1.0" ?><svg id="Layer_2" style="enable-background:new 0 0 32 32;" version="1.1" viewBox="0 0 32 32" xml:space="preserve" xmlns="http://www.w3.org/2000/svg" xmlns:xlink="http://www.w3.org/1999/xlink"><g><path d="M20.06415,0.55389c-0.79877-0.21771-1.6239,0.25195-1.84167,1.0517L16,9.7442l-2.22247-8.13861   c-0.21826-0.79974-1.04486-1.27136-1.84167-1.0517c-0.79926,0.21875-1.26996,1.04291-1.0517,1.84265l3.56116,13.04071   l-1.64795,6.03473c-0.69031-0.68024-1.55627-1.20007-2.55573-1.47314c-3.11554-0.8476-6.33698,0.99213-7.1875,4.10419   c-0.41162,1.50873-0.21191,3.08673,0.56342,4.44403c0.77484,1.35834,2.03259,2.33185,3.54028,2.74396   C7.67102,31.43066,8.19196,31.5,8.70947,31.5c1.00482,0,1.99695-0.26074,2.89288-0.7724   c1.3573-0.77533,2.33185-2.0321,2.74396-3.53979c0.00079-0.00299,0.00122-0.00604,0.00201-0.00903L16,21.13037l1.65417,6.05743   c0.41162,1.50769,1.38617,2.76447,2.74347,3.53979c0.89642,0.51166,1.88855,0.7724,2.89288,0.7724   c0.51752,0,1.03845-0.06934,1.55115-0.20898c1.50818-0.41211,2.76593-1.38562,3.54077-2.74396   c0.77533-1.3573,0.97504-2.9353,0.56342-4.44403c-0.85052-3.11206-4.07196-4.95081-7.18799-4.10419   c-0.99927,0.27307-1.86511,0.79285-2.5553,1.47302l-1.64789-6.03461l3.56116-13.04071   C21.33411,1.5968,20.8634,0.77264,20.06415,0.55389z M11.45245,26.39685c-0.20117,0.73529-0.67572,1.34753-1.33777,1.72546   c-0.66156,0.37885-1.43109,0.47552-2.16638,0.27435c-0.73529-0.20013-1.34802-0.67474-1.72595-1.33679   c-0.37787-0.66205-0.47504-1.4306-0.27435-2.16589c0,0,0,0,0.00049,0c0.34564-1.26746,1.49841-2.10236,2.75269-2.10236   c0.24805,0,0.5,0.0332,0.75,0.10156C10.96912,23.30719,11.86652,24.87933,11.45245,26.39685z M22.54834,22.89319   c0.25049-0.06836,0.50244-0.10156,0.75049-0.10156c1.25427,0,2.40704,0.8349,2.75269,2.10236c0.00049,0,0.00049,0,0.00049,0   c0.20068,0.73529,0.10352,1.50385-0.27435,2.16589c-0.37793,0.66205-0.99066,1.13666-1.72644,1.33679   c-0.73431,0.20117-1.50433,0.10449-2.16589-0.27435c-0.66205-0.37793-1.1366-0.99017-1.33728-1.72546   C20.13348,24.87933,21.03088,23.30719,22.54834,22.89319z"/></g></svg>