<?xml version="1.0" ?><svg id="Layer_2" style="enable-background:new 0 0 32 32;" version="1.1" viewBox="0 0 32 32" xml:space="preserve" xmlns="http://www.w3.org/2000/svg" xmlns:xlink="http://www.w3.org/1999/xlink"><g><path d="M30,9.50018H8.67078l12.9718-6.14453c0.74805-0.35449,1.06738-1.24902,0.71289-1.99805   c-0.35352-0.74707-1.24512-1.06836-1.99805-0.71289l-19,9C1.1955,9.73303,1.0426,9.83643,0.91431,9.97009   C0.65125,10.24805,0.51086,10.61993,0.5,11.00018v19c0,0.82813,0.67188,1.5,1.5,1.5h28c0.82813,0,1.5-0.67188,1.5-1.5v-19   C31.5,10.17206,30.82813,9.50018,30,9.50018z M28.5,28.50018h-25v-16h25V28.50018z"/><path d="M20.56738,27.00018c3.58398,0,6.5-2.91602,6.5-6.5s-2.91602-6.5-6.5-6.5s-6.5,2.91602-6.5,6.5   S16.9834,27.00018,20.56738,27.00018z M20.56738,17.00018c1.92969,0,3.5,1.57031,3.5,3.5s-1.57031,3.5-3.5,3.5   s-3.5-1.57031-3.5-3.5S18.6377,17.00018,20.56738,17.00018z"/><path d="M6.43262,17.50018h4.13477c0.82813,0,1.5-0.67188,1.5-1.5s-0.67188-1.5-1.5-1.5H6.43262c-0.82813,0-1.5,0.67188-1.5,1.5   S5.60449,17.50018,6.43262,17.50018z"/><path d="M6.43262,22.00018h4.13477c0.82813,0,1.5-0.67188,1.5-1.5s-0.67188-1.5-1.5-1.5H6.43262c-0.82813,0-1.5,0.67188-1.5,1.5   S5.60449,22.00018,6.43262,22.00018z"/><path d="M6.43262,26.50018h4.13477c0.82813,0,1.5-0.67188,1.5-1.5s-0.67188-1.5-1.5-1.5H6.43262c-0.82813,0-1.5,0.67188-1.5,1.5   S5.60449,26.50018,6.43262,26.50018z"/></g></svg>