<?xml version="1.0" ?><svg id="Layer_2" style="enable-background:new 0 0 32 32;" version="1.1" viewBox="0 0 32 32" xml:space="preserve" xmlns="http://www.w3.org/2000/svg" xmlns:xlink="http://www.w3.org/1999/xlink"><g><path d="M24,0.5H8C6.07031,0.5,4.5,2.07031,4.5,4v24c0,1.92969,1.57031,3.5,3.5,3.5h16c1.92969,0,3.5-1.57031,3.5-3.5V4   C27.5,2.07031,25.92969,0.5,24,0.5z M24.5,28c0,0.27588-0.22461,0.5-0.5,0.5H8c-0.27539,0-0.5-0.22412-0.5-0.5V4   c0-0.27588,0.22461-0.5,0.5-0.5h16c0.27539,0,0.5,0.22412,0.5,0.5V28z"/><path d="M16,21.65771c-1.48438,0-2.69238,1.20752-2.69238,2.69189S14.51563,27.0415,16,27.0415s2.69238-1.20752,2.69238-2.69189   S17.48438,21.65771,16,21.65771z"/></g></svg>