<?xml version="1.0" ?><svg id="Layer_2" style="enable-background:new 0 0 32 32;" version="1.1" viewBox="0 0 32 32" xml:space="preserve" xmlns="http://www.w3.org/2000/svg" xmlns:xlink="http://www.w3.org/1999/xlink"><g><path d="M30,20.18066h-1.70117V7.68945c0-1.92969-1.57031-3.5-3.5-3.5H7.20117c-1.92969,0-3.5,1.57031-3.5,3.5v12.49121H2   c-0.82813,0-1.5,0.67188-1.5,1.5v0.62988c0,3.03223,2.46777,5.5,5.5,5.5h20c3.03223,0,5.5-2.46777,5.5-5.5v-0.62988   C31.5,20.85254,30.82813,20.18066,30,20.18066z M6.70117,7.68945c0-0.27539,0.22461-0.5,0.5-0.5h17.59766   c0.27539,0,0.5,0.22461,0.5,0.5v12.49121H6.70117V7.68945z M26,24.81055H6c-1.07227,0-1.98926-0.67871-2.34375-1.62988h24.6875   C27.98926,24.13184,27.07227,24.81055,26,24.81055z"/></g></svg>