<?xml version="1.0" ?><svg id="Layer_2" style="enable-background:new 0 0 32 32;" version="1.1" viewBox="0 0 32 32" xml:space="preserve" xmlns="http://www.w3.org/2000/svg" xmlns:xlink="http://www.w3.org/1999/xlink"><g><path d="M15.33789,31.34583c0.20898,0.10303,0.43555,0.1543,0.66211,0.1543s0.45313-0.05127,0.66211-0.1543l11.49316-5.65527   c0.5127-0.25195,0.83789-0.77393,0.83789-1.3457V7.6554c0-0.57178-0.3252-1.09375-0.83789-1.3457L16.66211,0.65442   c-0.41797-0.20605-0.90625-0.20605-1.32422,0L3.84473,6.30969c-0.5127,0.25195-0.83789,0.77393-0.83789,1.3457v16.68945   c0,0.57178,0.3252,1.09375,0.83789,1.3457L15.33789,31.34583z M6.00684,8.58899L16,3.672l9.99316,4.91699v14.82227L16,28.32825   l-9.99316-4.91699V8.58899z"/><path d="M17.5,21.47327v-3.97314h3.97266c0.82813,0,1.5-0.67139,1.5-1.5s-0.67188-1.5-1.5-1.5H17.5v-3.97314   c0-0.82861-0.67188-1.5-1.5-1.5s-1.5,0.67139-1.5,1.5v3.97314h-3.97266c-0.82813,0-1.5,0.67139-1.5,1.5s0.67188,1.5,1.5,1.5H14.5   v3.97314c0,0.82861,0.67188,1.5,1.5,1.5S17.5,22.30188,17.5,21.47327z"/></g></svg>