<?xml version="1.0" ?><svg id="Layer_2" style="enable-background:new 0 0 32 32;" version="1.1" viewBox="0 0 32 32" xml:space="preserve" xmlns="http://www.w3.org/2000/svg" xmlns:xlink="http://www.w3.org/1999/xlink"><g><path d="M2,17.5h9.25531C11.89697,19.5213,13.76917,21,16,21s4.10303-1.4787,4.74469-3.5H30c0.82861,0,1.5-0.67139,1.5-1.5   s-0.67139-1.5-1.5-1.5h-9.25531C20.10303,12.4787,18.23083,11,16,11s-4.10303,1.4787-4.74469,3.5H2c-0.82861,0-1.5,0.67139-1.5,1.5   S1.17139,17.5,2,17.5z M16,14c1.10303,0,2,0.89697,2,2s-0.89697,2-2,2s-2-0.89697-2-2S14.89697,14,16,14z"/><path d="M2,7h2.75531C5.39697,9.0213,7.26917,10.5,9.5,10.5s4.10303-1.4787,4.74469-3.5H30c0.82861,0,1.5-0.67139,1.5-1.5   S30.82861,4,30,4H14.24469C13.60303,1.9787,11.73083,0.5,9.5,0.5S5.39697,1.9787,4.75531,4H2C1.17139,4,0.5,4.67139,0.5,5.5   S1.17139,7,2,7z M9.5,3.5c1.10303,0,2,0.89697,2,2s-0.89697,2-2,2s-2-0.89697-2-2S8.39697,3.5,9.5,3.5z"/><path d="M2,28h15.75531c0.64166,2.0213,2.51385,3.5,4.74469,3.5s4.10303-1.4787,4.74469-3.5H30c0.82861,0,1.5-0.67139,1.5-1.5   S30.82861,25,30,25h-2.75531c-0.64166-2.0213-2.51385-3.5-4.74469-3.5s-4.10303,1.4787-4.74469,3.5H2   c-0.82861,0-1.5,0.67139-1.5,1.5S1.17139,28,2,28z M22.5,24.5c1.10303,0,2,0.89697,2,2s-0.89697,2-2,2s-2-0.89697-2-2   S21.39697,24.5,22.5,24.5z"/></g></svg>