<?xml version="1.0" ?><svg id="Layer_2" style="enable-background:new 0 0 32 32;" version="1.1" viewBox="0 0 32 32" xml:space="preserve" xmlns="http://www.w3.org/2000/svg" xmlns:xlink="http://www.w3.org/1999/xlink"><g><path d="M10.88281,31.25c0.25,0.16504,0.53906,0.25,0.83008,0.25c0.19727,0,0.39551-0.03906,0.58203-0.11719l8.57422-3.61133   c0.55664-0.23438,0.91797-0.7793,0.91797-1.38281V15.84863c0-0.67969,0.17285-1.35352,0.5-1.94922L28.4209,2.72168   c0.25488-0.46484,0.24512-1.0293-0.02441-1.48535C28.12598,0.7793,27.63574,0.5,27.10547,0.5H4.89453   c-0.53027,0-1.02051,0.2793-1.29102,0.73633C3.33398,1.69238,3.32422,2.25684,3.5791,2.72168l6.13477,11.17773   c0.32617,0.5957,0.49902,1.26953,0.49902,1.94922V30C10.21289,30.50293,10.46484,30.97168,10.88281,31.25z M7.42871,3.5h17.14258   l-4.91406,8.95605c-0.56934,1.03613-0.87012,2.20996-0.87012,3.39258v9.54395l-5.57422,2.34766v-11.8916   c0-1.18262-0.30078-2.35645-0.86914-3.39258L7.42871,3.5z"/></g></svg>