<?xml version="1.0" ?><svg id="Layer_2" style="enable-background:new 0 0 32 32;" version="1.1" viewBox="0 0 32 32" xml:space="preserve" xmlns="http://www.w3.org/2000/svg" xmlns:xlink="http://www.w3.org/1999/xlink"><g><path d="M20.54297,9.46191c0-2.50488-2.03809-4.54297-4.54297-4.54297c-2.50537,0-4.54346,2.03809-4.54346,4.54297   c0,2.50586,2.03809,4.54395,4.54346,4.54395C18.50488,14.00586,20.54297,11.96777,20.54297,9.46191z M14.45654,9.46191   c0-0.85059,0.69238-1.54297,1.54346-1.54297c0.85059,0,1.54297,0.69238,1.54297,1.54297c0,0.85156-0.69238,1.54395-1.54297,1.54395   C15.14893,11.00586,14.45654,10.31348,14.45654,9.46191z"/><path d="M6.70801,19.33203L3.83838,29.5957c-0.12598,0.45215-0.03369,0.9375,0.25,1.31055   C4.37207,31.28027,4.81396,31.5,5.2832,31.5H26.7168c0.46875,0,0.91113-0.21973,1.19531-0.59375   c0.2832-0.37305,0.37598-0.8584,0.24902-1.31055l-2.86914-10.26367c-0.18066-0.64746-0.77148-1.0957-1.44434-1.0957h-1.72437   c1.53687-2.86536,2.83862-6.07837,2.83862-8.77441C24.96191,4.52051,20.94141,0.5,16,0.5c-4.94189,0-8.9624,4.02051-8.9624,8.96191   c0,2.69604,1.30188,5.90906,2.83881,8.77441H8.15283C7.47998,18.23633,6.88965,18.68457,6.70801,19.33203z M16,3.5   c3.28711,0,5.96191,2.6748,5.96191,5.96191c0,3.77344-3.62207,9.63672-5.96191,12.90625   c-2.34033-3.26953-5.9624-9.13281-5.9624-12.90625C10.0376,6.1748,12.7124,3.5,16,3.5z M11.62738,21.23633   c1.61176,2.5517,3.06213,4.39392,3.1983,4.56543c0.28467,0.35742,0.7168,0.56641,1.17432,0.56641s0.88965-0.20898,1.17383-0.56641   c0.13635-0.17151,1.58679-2.01373,3.19849-4.56543h2.33667L24.74023,28.5H7.26025l2.03076-7.26367H11.62738z"/></g></svg>