<?xml version="1.0" ?><svg id="Layer_2" style="enable-background:new 0 0 32 32;" version="1.1" viewBox="0 0 32 32" xml:space="preserve" xmlns="http://www.w3.org/2000/svg" xmlns:xlink="http://www.w3.org/1999/xlink"><g><path d="M29.70703,4.35229l-2.72656-2.15137c-1.09912-0.86719-2.51611-1.20313-3.88672-0.91113L9.13556,4.22729h-4.9964   C2.13232,4.22729,0.5,5.86011,0.5,7.86694v12.02637c0,2.00684,1.63232,3.63965,3.63916,3.63965h7.33594   c0.20166,0,0.39355,0.09668,0.51367,0.25781l4.10498,5.54199c0.70801,0.95605,1.77197,1.48047,2.89551,1.48047   c0.38672,0,0.78076-0.0625,1.16943-0.19043c1.51758-0.50098,2.49854-1.85742,2.49854-3.45605v-2.99512   c0-0.35254,0.28711-0.63867,0.63965-0.63867h3.49414c2.59668,0,4.70898-2.1123,4.70898-4.70898V8.04956   C31.5,6.59839,30.84668,5.25073,29.70703,4.35229z M7.7915,20.53296H4.13916c-0.35254,0-0.63916-0.28711-0.63916-0.63965V7.86694   c0-0.35254,0.28662-0.63965,0.63916-0.63965H7.7915V20.53296z M28.5,18.82397c0,0.94238-0.7666,1.70898-1.70898,1.70898h-3.49414   c-2.00684,0-3.63965,1.63184-3.63965,3.63867v2.99512c0,0.40234-0.2749,0.55273-0.43896,0.60742s-0.47363,0.09668-0.71387-0.22656   l-4.10547-5.54297c-0.68359-0.92188-1.77637-1.47168-2.92383-1.47168H10.7915V6.9444l12.91943-2.71906   c0.49951-0.10449,1.01221,0.0166,1.41113,0.33105l2.72754,2.15137C28.2627,7.03394,28.5,7.52319,28.5,8.04956V18.82397z"/></g></svg>