<?xml version="1.0" ?><svg id="Layer_2" style="enable-background:new 0 0 32 32;" version="1.1" viewBox="0 0 32 32" xml:space="preserve" xmlns="http://www.w3.org/2000/svg" xmlns:xlink="http://www.w3.org/1999/xlink"><g><path d="M27.84912,5.90448H7.98328L7.67859,4.49042c-0.35742-1.6709-1.85742-2.88373-3.56732-2.88373H2   c-0.82813,0-1.5,0.67188-1.5,1.49994c0,0.82813,0.67188,1.5,1.5,1.5h2.11127c0.30371,0,0.57031,0.21484,0.63379,0.5127   l3.84827,17.91895l-1.12665,1.12659c-1.04688,1.04688-1.35742,2.60742-0.79102,3.97552   c0.56738,1.36914,1.88965,2.25293,3.37103,2.25293H23.8443c0.82813,0,1.5-0.67188,1.5-1.5s-0.67188-1.49994-1.5-1.49994H10.04669   c-0.37695,0-0.53711-0.25098-0.59961-0.40039c-0.06152-0.14941-0.12592-0.44043,0.14063-0.70703l1.26465-1.26465h13.84546   c1.65039,0,3.10052-1.1142,3.52533-2.70892l3.15131-11.81915c0.29492-1.10345,0.06445-2.25677-0.63086-3.16302   C30.04736,6.42395,28.99268,5.90448,27.84912,5.90448z M28.47607,9.71985l-3.15131,11.81909   c-0.07617,0.28418-0.33398,0.48242-0.62695,0.48242H11.44318L8.62781,8.90442h19.22131c0.27832,0,0.44238,0.15918,0.51465,0.25391   C28.43701,9.25208,28.54736,9.45129,28.47607,9.71985z"/></g></svg>