<?xml version="1.0" ?><svg id="Layer_2" style="enable-background:new 0 0 32 32;" version="1.1" viewBox="0 0 32 32" xml:space="preserve" xmlns="http://www.w3.org/2000/svg" xmlns:xlink="http://www.w3.org/1999/xlink"><g><path d="M17.62402,31.5c2.91144,0,5.27966-2.36566,5.28638-5.27563c2.90997-0.00671,5.27563-2.37494,5.27563-5.28638V5.7876   c0-2.91553-2.37207-5.2876-5.2876-5.2876h-8.52246c-2.91144,0-5.27966,2.36566-5.28638,5.27563   c-2.90997,0.00671-5.27563,2.37494-5.27563,5.28638V26.2124c0,2.91553,2.37207,5.2876,5.2876,5.2876H17.62402z M14.37598,3.5   h8.52246c1.26123,0,2.2876,1.02637,2.2876,2.2876v15.15039c0,1.25671-1.01941,2.27893-2.27441,2.28625V11.06201   c0-2.91553-2.37207-5.2876-5.2876-5.2876h-5.5343C12.09705,4.51941,13.11926,3.5,14.37598,3.5z M6.81396,26.2124V11.06201   c0-1.26123,1.02637-2.2876,2.2876-2.2876h8.52246c1.26123,0,2.2876,1.02637,2.2876,2.2876V26.2124   c0,1.26123-1.02637,2.2876-2.2876,2.2876H9.10156C7.84033,28.5,6.81396,27.47363,6.81396,26.2124z"/></g></svg>