<?xml version="1.0" ?><svg id="Layer_2" style="enable-background:new 0 0 32 32;" version="1.1" viewBox="0 0 32 32" xml:space="preserve" xmlns="http://www.w3.org/2000/svg" xmlns:xlink="http://www.w3.org/1999/xlink"><g><path d="M30.40234,19.82324c-0.22949-0.36719-0.60645-0.61621-1.03418-0.68555l-9.45801-1.51758   c-0.44434-0.07324-0.89551,0.06055-1.23145,0.3584c-0.75098,0.66406-1.35352,1.44336-1.78809,2.30371   c-1.06543-0.60645-2.04688-1.35742-2.93164-2.24121c-0.88379-0.88477-1.63477-1.86621-2.24121-2.93164   c0.86035-0.43457,1.63965-1.03711,2.30371-1.78809c0.29785-0.33594,0.42871-0.78809,0.3584-1.23145L12.8623,2.63184   c-0.06934-0.42773-0.31836-0.80469-0.68555-1.03418C11.5,1.17383,10.74609,0.87402,10.02148,0.72754   C9.45996,0.57617,8.85547,0.5,8.22461,0.5C3.96484,0.5,0.5,3.96484,0.5,8.22461C0.5,21.05859,10.94141,31.5,23.77539,31.5   c4.25977,0,7.72461-3.46484,7.72461-7.72461c0-0.63086-0.07617-1.23535-0.20703-1.71191   C31.12598,21.25391,30.82617,20.5,30.40234,19.82324z M23.77539,28.5C12.5957,28.5,3.5,19.4043,3.5,8.22461   C3.5,5.61914,5.61914,3.5,8.22461,3.5c0.36816,0,0.71191,0.04199,1.10449,0.14453c0.24414,0.05078,0.47266,0.11914,0.69043,0.20703   l1.27637,7.95508c-0.58008,0.49805-1.25586,0.84082-1.98633,1.00195c-0.43555,0.0957-0.80566,0.38086-1.00977,0.77734   s-0.22168,0.86328-0.04785,1.27344c0.84082,1.97949,2.04688,3.76367,3.58594,5.30273s3.32324,2.74512,5.30273,3.58594   c0.40918,0.17285,0.87793,0.15625,1.27344-0.04785c0.39648-0.2041,0.68164-0.57422,0.77734-1.00977   c0.16113-0.73047,0.50391-1.40625,1.00195-1.98633l7.95313,1.27637c0.09277,0.22949,0.16699,0.48242,0.22949,0.77539   C28.45801,23.06348,28.5,23.40723,28.5,23.77539C28.5,26.38086,26.38086,28.5,23.77539,28.5z"/><path d="M18.33398,13.66602c0.58594,0.58594,1.53516,0.58594,2.12109,0l5.30658-5.30658l0.04987,2.2724   c0.07806,1.96918,3.00946,1.90631,3-0.06647c0,0.00006-0.12695-5.78314-0.12695-5.78314   c-0.01788-0.79285-0.68884-1.41882-1.4668-1.4668l-5.7832-0.12695c-1.97662,0.02734-2.03522,2.91058-0.06635,3   c-0.00006,0,2.2724,0.0498,2.2724,0.0498l-5.30664,5.30664C17.74805,12.13086,17.74805,13.08008,18.33398,13.66602z"/></g></svg>