<?xml version="1.0" ?><svg id="Layer_2" style="enable-background:new 0 0 32 32;" version="1.1" viewBox="0 0 32 32" xml:space="preserve" xmlns="http://www.w3.org/2000/svg" xmlns:xlink="http://www.w3.org/1999/xlink"><g><path d="M5.50525,1.99274c0-0.00006,0,24.87378,0,24.87378l-2.5625-2.04987c-1.5556-1.2038-3.39465,1.08356-1.87354,2.34229   c0.09808,0.03528,5.53448,4.55048,5.49854,4.25403c0.46967,0.16571,0.98468,0.02881,1.37402-0.25488   c0,0.00006,4.99896-3.99915,4.99896-3.99915c0.64685-0.51746,0.75183-1.46112,0.23438-2.10797   c-0.51703-0.6463-1.46167-0.75079-2.10797-0.23431l-2.5625,2.04999V1.99268C8.47626,0.03766,5.53979,0.00818,5.50525,1.99274z"/><path d="M30.00031,4.49213H14.12848c-0.82843,0-1.49969,0.67126-1.49969,1.49969c0,0.82849,0.67126,1.49969,1.49969,1.49969   h15.87183c0.82843,0,1.49969-0.6712,1.49969-1.49969C31.5,5.16339,30.82874,4.49213,30.00031,4.49213z"/><path d="M30.00031,11.15729H16.77399c-0.82849,0-1.49969,0.67126-1.49969,1.49969c0,0.82849,0.6712,1.49969,1.49969,1.49969   h13.22632c0.82843,0,1.49969-0.6712,1.49969-1.49969C31.5,11.82855,30.82874,11.15729,30.00031,11.15729z"/><path d="M30.00031,17.82294H19.41895c-0.82843,0-1.49969,0.67126-1.49969,1.49969c0,0.82849,0.67126,1.49969,1.49969,1.49969   h10.58136c0.82843,0,1.49969-0.6712,1.49969-1.49969C31.5,18.4942,30.82874,17.82294,30.00031,17.82294z"/><path d="M30.00031,24.4881h-7.93591c-0.82843,0-1.49969,0.67126-1.49969,1.49969c0,0.82849,0.67126,1.49969,1.49969,1.49969   h7.93591c0.82843,0,1.49969-0.6712,1.49969-1.49969C31.5,25.15936,30.82874,24.4881,30.00031,24.4881z"/></g></svg>