<?xml version="1.0" ?><svg id="Layer_2" style="enable-background:new 0 0 32 32;" version="1.1" viewBox="0 0 32 32" xml:space="preserve" xmlns="http://www.w3.org/2000/svg" xmlns:xlink="http://www.w3.org/1999/xlink"><path d="M31.29883,15.25c-1.51068-2.61597-3.651-4.74945-6.15961-6.26813l1.92133-1.92133  c0.58594-0.58594,0.58594-1.53516,0-2.12109s-1.53516-0.58594-2.12109,0l-2.64954,2.64954  C20.30707,6.82977,18.18097,6.41406,16,6.41406c-6.28906,0-12.15137,3.38574-15.29883,8.83594  c-0.26855,0.46387-0.26855,1.03613,0,1.5c1.51068,2.61597,3.651,4.74945,6.15961,6.26813l-1.92133,1.92133  c-0.58594,0.58594-0.58594,1.53516,0,2.12109C5.23242,27.35352,5.61621,27.5,6,27.5s0.76758-0.14648,1.06055-0.43945  l2.64954-2.64954c1.98285,0.75922,4.10895,1.17493,6.28992,1.17493c6.28906,0,12.15137-3.38574,15.29883-8.83594  C31.56738,16.28613,31.56738,15.71387,31.29883,15.25z M3.7627,16C6.46289,11.91602,11.07324,9.41406,16,9.41406  c1.3418,0,2.65808,0.19159,3.92072,0.54413l-0.91815,0.91815C18.12,10.35699,17.09583,10.05371,16,10.05371  c-3.27832,0-5.94629,2.66797-5.94629,5.94629c0,1.09583,0.30328,2.12,0.82263,3.00256l-1.82458,1.82458  C6.94354,19.69104,5.11389,18.0437,3.7627,16z M18.94629,16c0,1.625-1.32129,2.94629-2.94629,2.94629  c-0.25134,0-0.49133-0.04132-0.72443-0.10077l3.56995-3.56995C18.90497,15.50867,18.94629,15.74866,18.94629,16z M13.05371,16  c0-1.625,1.32129-2.94629,2.94629-2.94629c0.25134,0,0.49133,0.04132,0.72443,0.10077l-3.56995,3.56995  C13.09503,16.49133,13.05371,16.25134,13.05371,16z M16,22.58594c-1.3418,0-2.65802-0.19165-3.92065-0.54419l0.91809-0.91809  C13.88,21.64301,14.90417,21.94629,16,21.94629c3.27832,0,5.94629-2.66797,5.94629-5.94629c0-1.09583-0.30328-2.12-0.82263-3.00256  l1.82458-1.82458C25.05646,12.30896,26.88611,13.9563,28.2373,16C25.53711,20.08398,20.92676,22.58594,16,22.58594z"/></svg>