<?xml version="1.0" ?><svg id="Layer_2" style="enable-background:new 0 0 32 32;" version="1.1" viewBox="0 0 32 32" xml:space="preserve" xmlns="http://www.w3.org/2000/svg" xmlns:xlink="http://www.w3.org/1999/xlink"><g><path d="M24.89551,15.99996c0-2.77582-1.97302-5.09924-4.58984-5.6438V5.46529c0-1.35693-0.70605-2.56348-1.88965-3.22803   c-1.18066-0.66309-2.58008-0.63916-3.73975,0.06836L9.5,5.46431C9.39063,5.53121,9.26465,5.56636,9.13574,5.56636H4.20166   C2.16064,5.56636,0.5,7.22652,0.5,9.26753v13.46484c0,2.04102,1.66064,3.70117,3.70166,3.70117h4.93408   c0.12891,0,0.25488,0.03516,0.36523,0.10254l5.17529,3.15869c0.59912,0.36523,1.26221,0.54834,1.92627,0.54834   c0.62012,0,1.24219-0.15967,1.81348-0.48047c1.18359-0.66455,1.88965-1.87109,1.88965-3.22803v-4.89087   C22.92249,21.0992,24.89551,18.77577,24.89551,15.99996z M17.30566,26.53462c0,0.35742-0.22461,0.53662-0.35791,0.61182   c-0.13379,0.07471-0.40381,0.17334-0.70898-0.0127l-5.17432-3.15771c-0.58057-0.35498-1.24756-0.54248-1.92871-0.54248H4.20166   C3.81494,23.43355,3.5,23.1191,3.5,22.73238V9.26753c0-0.38672,0.31494-0.70117,0.70166-0.70117h4.93408   c0.68115,0,1.34814-0.1875,1.92773-0.54199l5.17529-3.15771c0.30566-0.18604,0.5752-0.08691,0.70898-0.01318   c0.1333,0.0752,0.35791,0.25439,0.35791,0.61182V26.53462z M20.30566,18.5024v-5.00488   c0.93848,0.44238,1.58984,1.39795,1.58984,2.50244S21.24414,18.06001,20.30566,18.5024z"/><path d="M30,14.49996h-1.98535c-0.82813,0-1.5,0.67139-1.5,1.5c0,0.82861,0.67188,1.5,1.5,1.5H30c0.82813,0,1.5-0.67139,1.5-1.5   C31.5,15.17134,30.82813,14.49996,30,14.49996z"/><path d="M26.37793,21.45064c-0.58594-0.58496-1.53516-0.58545-2.12109,0.00049s-0.58594,1.53564,0,2.12158l1.4043,1.40381   c0.29297,0.29248,0.67676,0.43896,1.06055,0.43896s0.76758-0.14648,1.06055-0.43945c0.58594-0.58594,0.58594-1.53564,0-2.12158   L26.37793,21.45064z"/><path d="M25.31738,10.98824c0.38379,0,0.76758-0.14648,1.06055-0.43896l1.4043-1.40381c0.58594-0.58594,0.58594-1.53564,0-2.12158   s-1.53516-0.58545-2.12109-0.00049l-1.4043,1.40381c-0.58594,0.58594-0.58594,1.53564,0,2.12158   C24.5498,10.84175,24.93359,10.98824,25.31738,10.98824z"/></g></svg>