<?xml version="1.0" ?><svg id="Layer_2" style="enable-background:new 0 0 32 32;" version="1.1" viewBox="0 0 32 32" xml:space="preserve" xmlns="http://www.w3.org/2000/svg" xmlns:xlink="http://www.w3.org/1999/xlink"><g><path d="M16,0.5C7.45313,0.5,0.5,7.45313,0.5,16S7.45313,31.5,16,31.5S31.5,24.54688,31.5,16S24.54688,0.5,16,0.5z M16,3.5   c2.90643,0,5.57758,1.00555,7.70294,2.6756l-2.49646,2.4967C19.73492,7.6236,17.94061,7,16,7s-3.73492,0.6236-5.20648,1.6723   L8.29706,6.1756C10.42242,4.50555,13.09357,3.5,16,3.5z M22,16c0,3.30859-2.69141,6-6,6s-6-2.69141-6-6s2.69141-6,6-6   S22,12.69141,22,16z M3.5,16c0-2.90662,1.00568-5.57794,2.6759-7.70337l2.49646,2.49677C7.62366,12.26495,7,14.05927,7,16   s0.62366,3.73505,1.67236,5.2066L6.1759,23.70337C4.50568,21.57794,3.5,18.90662,3.5,16z M16,28.5   c-2.90643,0-5.57758-1.00555-7.70294-2.6756l2.49646-2.4967C12.26508,24.3764,14.05939,25,16,25s3.73492-0.6236,5.20648-1.6723   l2.49646,2.4967C21.57758,27.49445,18.90643,28.5,16,28.5z M25.8241,23.70337l-2.49646-2.49677   C24.37634,19.73505,25,17.94073,25,16s-0.62366-3.73505-1.67236-5.2066l2.49646-2.49677C27.49432,10.42206,28.5,13.09338,28.5,16   S27.49432,21.57794,25.8241,23.70337z"/></g></svg>