<?xml version="1.0" ?><svg id="Layer_2" style="enable-background:new 0 0 32 32;" version="1.1" viewBox="0 0 32 32" xml:space="preserve" xmlns="http://www.w3.org/2000/svg" xmlns:xlink="http://www.w3.org/1999/xlink"><g><path d="M26.79102,8.46741h-3.49414c-0.35254,0-0.63965-0.28613-0.63965-0.63867V4.83362   c0-1.59863-0.98047-2.95508-2.49902-3.45605c-1.5166-0.49902-3.11328,0.00488-4.06494,1.29004l-4.10449,5.54102   c-0.12012,0.16211-0.31201,0.25879-0.51367,0.25879H4.13916C2.13232,8.46741,0.5,10.10022,0.5,12.10706v12.02637   c0,2.00684,1.63232,3.63965,3.63916,3.63965h4.9964l13.95917,2.9375c0.32324,0.06836,0.64844,0.10156,0.97266,0.10156   c1.04883,0,2.07324-0.35059,2.91211-1.0127l2.72754-2.15137C30.84668,26.74963,31.5,25.40198,31.5,23.95081V13.17639   C31.5,10.57971,29.3877,8.46741,26.79102,8.46741z M7.7915,24.77307H4.13916c-0.35254,0-0.63916-0.28711-0.63916-0.63965V12.10706   c0-0.35254,0.28662-0.63965,0.63916-0.63965H7.7915V24.77307z M28.5,23.95081c0,0.52637-0.2373,1.01563-0.65039,1.3418   l-2.72852,2.15137c-0.39746,0.31348-0.91211,0.43457-1.41016,0.33105L10.7915,25.05597V11.46741h0.68359   c1.14746,0,2.24023-0.5498,2.92432-1.47266l4.10449-5.54199c0.23828-0.32129,0.5498-0.28125,0.71387-0.22656   s0.43945,0.20508,0.43945,0.60742v2.99512c0,2.00684,1.63281,3.63867,3.63965,3.63867h3.49414   c0.94238,0,1.70898,0.7666,1.70898,1.70898V23.95081z"/></g></svg>