<?xml version="1.0" ?><svg id="Layer_2" style="enable-background:new 0 0 32 32;" version="1.1" viewBox="0 0 32 32" xml:space="preserve" xmlns="http://www.w3.org/2000/svg" xmlns:xlink="http://www.w3.org/1999/xlink"><g><path d="M8.56458,21.91699h5.93439v8.10388c0.03052,1.96381,2.96808,1.98053,3.00208-0.00006c0,0.00006,0-4.14453,0-8.10382   h5.93488c3.93054,0,7.12811-3.19806,7.12811-7.12854c0-3.55286-2.61316-6.50708-6.01794-7.04163   C23.86884,3.64087,20.29407,0.5,16,0.5c-4.29456,0-7.86884,3.14136-8.54608,7.24683   c-3.40527,0.53455-6.01794,3.48877-6.01794,7.04163C1.43597,18.71893,4.63403,21.91699,8.56458,21.91699z M8.56458,10.66248   h0.27509c0.82922,0,1.50104-0.67188,1.50104-1.5011c0-3.12036,2.53894-5.65924,5.6593-5.65924s5.6593,2.53888,5.6593,5.65924   c0,0.82922,0.6723,1.5011,1.50104,1.5011h0.27557c2.27509,0,4.12598,1.85089,4.12598,4.12598   c0,2.27551-1.85089,4.1264-4.12598,4.1264h-5.93488c0-2.32172,0-4.08319,0-4.08319l2.30927,2.30902   c1.41528,1.37128,3.49603-0.70392,2.12262-2.12262c-0.18939-0.12177-5.26624-5.44946-5.40295-5.2077   c-0.53912-0.20032-1.17731-0.06104-1.59125,0.33661l-4.87115,4.87109c-1.37,1.41748,0.70239,3.495,2.12268,2.12256   c-0.00006,0.00006,2.30872-2.30872,2.30872-2.30872v4.08295H8.56458c-2.27557,0-4.12646-1.85089-4.12646-4.1264   C4.43811,12.51337,6.289,10.66248,8.56458,10.66248z"/></g></svg>