<?xml version="1.0" ?><svg id="Layer_2" style="enable-background:new 0 0 32 32;" version="1.1" viewBox="0 0 32 32" xml:space="preserve" xmlns="http://www.w3.org/2000/svg" xmlns:xlink="http://www.w3.org/1999/xlink"><g><path d="M31.49072,1.90784C31.46204,1.13294,30.76996,0.49829,30,0.5h-7.98633c-1.96869,0.034-1.97394,2.96533,0.00006,3   c-0.00006,0,4.36517,0,4.36517,0l-7.8291,7.8291c-0.58594,0.58594-0.58594,1.53516,0,2.12109s1.53516,0.58594,2.12109,0   L28.5,5.6211v4.36523c0.03174,1.96783,2.96667,1.974,3-0.00006C31.5,9.98633,31.5,2,31.5,2   C31.5,1.96845,31.49268,1.93891,31.49072,1.90784z"/><path d="M25.80176,11.91797c-0.82813,0-1.5,0.67188-1.5,1.5v13.01367c0,1.14063-0.92773,2.06836-2.06836,2.06836H5.56836   C4.42773,28.5,3.5,27.57227,3.5,26.43164V9.7666c0-1.14063,0.92773-2.06836,2.06836-2.06836h13.01367   c0.82813,0,1.5-0.67188,1.5-1.5s-0.67188-1.5-1.5-1.5H5.56836C2.77344,4.69824,0.5,6.97168,0.5,9.7666v16.66504   C0.5,29.22656,2.77344,31.5,5.56836,31.5H22.2334c2.79492,0,5.06836-2.27344,5.06836-5.06836V13.41797   C27.30176,12.58985,26.62988,11.91797,25.80176,11.91797z"/></g></svg>