<?xml version="1.0" ?><svg id="Layer_2" style="enable-background:new 0 0 32 32;" version="1.1" viewBox="0 0 32 32" xml:space="preserve" xmlns="http://www.w3.org/2000/svg" xmlns:xlink="http://www.w3.org/1999/xlink"><g><path d="M2,14.35449h10.85449c0.82861,0,1.5-0.67139,1.5-1.5V2c0-0.82861-0.67139-1.5-1.5-1.5H2C1.17139,0.5,0.5,1.17139,0.5,2   v10.85449C0.5,13.68311,1.17139,14.35449,2,14.35449z M3.5,3.5h7.85449v7.85449H3.5V3.5z"/><path d="M30,0.5H19.14551c-0.82861,0-1.5,0.67139-1.5,1.5v10.85449c0,0.82861,0.67139,1.5,1.5,1.5H30   c0.82861,0,1.5-0.67139,1.5-1.5V2C31.5,1.17139,30.82861,0.5,30,0.5z M28.5,11.35449h-7.85449V3.5H28.5V11.35449z"/><path d="M2,31.5h10.85449c0.82861,0,1.5-0.67139,1.5-1.5V19.14551c0-0.82861-0.67139-1.5-1.5-1.5H2c-0.82861,0-1.5,0.67139-1.5,1.5   V30C0.5,30.82861,1.17139,31.5,2,31.5z M3.5,20.64551h7.85449V28.5H3.5V20.64551z"/><path d="M30,23.07275h-3.92725v-3.92725c0-0.82861-0.67139-1.5-1.5-1.5s-1.5,0.67139-1.5,1.5v3.92725h-3.92725   c-0.82861,0-1.5,0.67139-1.5,1.5s0.67139,1.5,1.5,1.5h3.92725V30c0,0.82861,0.67139,1.5,1.5,1.5s1.5-0.67139,1.5-1.5v-3.92725H30   c0.82861,0,1.5-0.67139,1.5-1.5S30.82861,23.07275,30,23.07275z"/></g></svg>