<?xml version="1.0" ?><svg id="Layer_2" style="enable-background:new 0 0 32 32;" version="1.1" viewBox="0 0 32 32" xml:space="preserve" xmlns="http://www.w3.org/2000/svg" xmlns:xlink="http://www.w3.org/1999/xlink"><g><path d="M5.96265,31.5h20.07471c0.82953,0,1.50171-0.67218,1.50171-1.50171V14.69415h1.73145   c0.82959,0,1.50171-0.67212,1.50171-1.50171V7.26819c0-0.82953-0.67212-1.50171-1.50171-1.50171H22.4317   c0.23523-0.49255,0.37195-1.0293,0.37195-1.59113c0-0.99139-0.38617-1.9231-1.08667-2.62366   c-1.40149-1.40149-3.84521-1.40198-5.24768-0.00049c-0.15649,0.15649-0.31433,0.34497-0.46936,0.55444   C15.84497,1.8963,15.68713,1.70801,15.5307,1.5517c-1.40295-1.40295-3.84717-1.40149-5.24719-0.00049   C9.58252,2.25226,9.19635,3.18396,9.19635,4.17535c0,0.56183,0.13672,1.09857,0.37195,1.59113H2.72949   c-0.82959,0-1.50171,0.67218-1.50171,1.50171v5.92426c0,0.82959,0.67212,1.50171,1.50171,1.50171h1.73145v15.30414   C4.46094,30.82782,5.13312,31.5,5.96265,31.5z M17.52814,28.49658h-3.05627V14.69415h3.05627V28.49658z M22.7406,8.7699h5.0282   v2.92084h-5.0282V8.7699z M20.53156,14.69415h0.70734h3.29675v13.80243h-4.00409V14.69415z M18.59283,3.67523   c0.18036-0.18036,0.39105-0.20728,0.50006-0.20728c0.1095,0,0.3197,0.02692,0.50006,0.20776   c0.18042,0.17993,0.20728,0.39008,0.20728,0.49963c0,0.10901-0.02686,0.31964-0.20728,0.50006h-0.00049   c-0.40717,0.40765-1.40198,0.89313-2.04626,1.04657C17.69922,5.07819,18.18512,4.08295,18.59283,3.67523z M19.73718,8.7699v2.92084   h-7.47437V8.7699H19.73718z M12.40753,3.67523c0.17987-0.18036,0.39008-0.20728,0.49957-0.20728   c0.10901,0,0.3197,0.02692,0.50006,0.20776c0.40771,0.40723,0.89362,1.40247,1.04663,2.04626   c-0.64429-0.15344-1.6391-0.63892-2.04626-1.04657h-0.00049c-0.18042-0.18042-0.20728-0.39105-0.20728-0.50006   C12.19977,4.0658,12.22662,3.85565,12.40753,3.67523z M10.76111,14.69415h0.70734v13.80243H7.46436V14.69415H10.76111z    M4.2312,11.69073V8.7699h5.0282v2.92084H4.2312z"/></g></svg>