<?xml version="1.0" ?><svg id="Layer_2" style="enable-background:new 0 0 32 32;" version="1.1" viewBox="0 0 32 32" xml:space="preserve" xmlns="http://www.w3.org/2000/svg" xmlns:xlink="http://www.w3.org/1999/xlink"><g><path d="M27.41699,27.89014V6.78955c0-1.99072-1.61914-3.60986-3.60938-3.60986h-1.16901   C22.22534,1.64136,20.83258,0.5,19.16504,0.5h-6.33008c-1.66754,0-3.0603,1.14136-3.47357,2.67969H8.19238   c-1.99023,0-3.60938,1.61914-3.60938,3.60986v21.10059c0,1.99072,1.61914,3.60986,3.60938,3.60986h15.61523   C25.79785,31.5,27.41699,29.88086,27.41699,27.89014z M12.22461,4.10986c0-0.33643,0.27344-0.60986,0.61035-0.60986h6.33008   c0.33691,0,0.61035,0.27344,0.61035,0.60986v1.13916c0,0.33643-0.27344,0.60986-0.61035,0.60986h-6.33008   c-0.33691,0-0.61035-0.27344-0.61035-0.60986V4.10986z M7.58301,27.89014V6.78955c0-0.33643,0.27344-0.60986,0.60938-0.60986   h1.16913c0.41339,1.53809,1.80609,2.6792,3.47345,2.6792h6.33008c1.66736,0,3.06006-1.14111,3.47345-2.6792h1.16913   c0.33594,0,0.60938,0.27344,0.60938,0.60986v21.10059c0,0.33643-0.27344,0.60986-0.60938,0.60986H8.19238   C7.85645,28.5,7.58301,28.22656,7.58301,27.89014z"/><path d="M21.27539,11.16748H10.72461c-0.82813,0-1.5,0.67139-1.5,1.5s0.67188,1.5,1.5,1.5h10.55078c0.82813,0,1.5-0.67139,1.5-1.5   S22.10352,11.16748,21.27539,11.16748z"/><path d="M21.27539,16.47607H10.72461c-0.82813,0-1.5,0.67139-1.5,1.5s0.67188,1.5,1.5,1.5h10.55078c0.82813,0,1.5-0.67139,1.5-1.5   S22.10352,16.47607,21.27539,16.47607z"/><path d="M21.27539,21.78467H10.72461c-0.82813,0-1.5,0.67139-1.5,1.5s0.67188,1.5,1.5,1.5h10.55078c0.82813,0,1.5-0.67139,1.5-1.5   S22.10352,21.78467,21.27539,21.78467z"/></g></svg>