<?xml version="1.0" ?><svg id="Layer_2" style="enable-background:new 0 0 32 32;" version="1.1" viewBox="0 0 32 32" xml:space="preserve" xmlns="http://www.w3.org/2000/svg" xmlns:xlink="http://www.w3.org/1999/xlink"><g><path d="M30.40332,19.82422c-0.22949-0.36719-0.60645-0.61719-1.03418-0.68652l-9.45801-1.51758   c-0.44775-0.07129-0.896,0.05957-1.23193,0.3584c-0.75049,0.66406-1.35352,1.44336-1.78906,2.30371   c-1.06494-0.60645-2.04688-1.35742-2.93115-2.24121c-0.8833-0.88379-1.63379-1.86523-2.24121-2.93164   c0.85986-0.43457,1.63916-1.03711,2.30371-1.78809c0.29785-0.33594,0.4292-0.78809,0.35791-1.23145l-1.51758-9.45801   c-0.06836-0.42773-0.31836-0.80469-0.68555-1.03418c-0.67773-0.42383-1.43115-0.72363-2.15479-0.87012   C9.46045,0.57617,8.85596,0.5,8.22461,0.5C3.96533,0.5,0.5,3.96484,0.5,8.22461C0.5,21.05859,10.94141,31.5,23.77539,31.5   c4.25928,0,7.72461-3.46484,7.72461-7.72461c0-0.62891-0.07617-1.2334-0.20703-1.71289   C31.125,21.25293,30.82568,20.5,30.40332,19.82422z M23.77539,28.5C12.5957,28.5,3.5,19.4043,3.5,8.22461   C3.5,5.61914,5.61963,3.5,8.22461,3.5c0.36865,0,0.71143,0.04199,1.104,0.14453c0.24414,0.05078,0.47314,0.11914,0.69092,0.20703   l1.27637,7.95508c-0.58008,0.49805-1.25635,0.84082-1.98633,1.00195c-0.43604,0.0957-0.80615,0.38086-1.01074,0.77734   c-0.2041,0.39648-0.22168,0.86328-0.04688,1.27441c0.8418,1.98047,2.04834,3.76465,3.58594,5.30176   c1.53857,1.53906,3.32275,2.74512,5.30273,3.58594c0.40918,0.17285,0.87598,0.15723,1.27344-0.04785   c0.39648-0.2041,0.68115-0.57422,0.77734-1.00977c0.16113-0.73047,0.50391-1.40723,1.00244-1.98633l7.95264,1.27637   c0.09229,0.22949,0.16699,0.48242,0.22852,0.77441c0.08301,0.30957,0.125,0.65332,0.125,1.02051   C28.5,26.38086,26.38037,28.5,23.77539,28.5z"/><path d="M28.37158,3.62793c-0.58594-0.58594-1.53516-0.58594-2.12109,0l-5.30725,5.30756l-0.04968-2.2724   c-0.01807-0.82715-0.68848-1.47852-1.53223-1.4668c-0.82813,0.01855-1.48486,0.7041-1.4668,1.5332l0.12646,5.7832   c0.01996,0.78748,0.67865,1.44635,1.4668,1.46674c0,0.00006,5.7832,0.12604,5.7832,0.12604   c0.82477,0.01794,1.51544-0.63831,1.53223-1.46777c0.01807-0.82813-0.63867-1.51367-1.4668-1.53223l-2.27148-0.04883   l5.30664-5.30762C28.95752,5.16309,28.95752,4.21387,28.37158,3.62793z"/></g></svg>