<?xml version="1.0" ?><svg id="Layer_2" style="enable-background:new 0 0 32 32;" version="1.1" viewBox="0 0 32 32" xml:space="preserve" xmlns="http://www.w3.org/2000/svg" xmlns:xlink="http://www.w3.org/1999/xlink"><g><path d="M24.44238,0.5H7.55762c-0.82813,0-1.5,0.67139-1.5,1.5v28c0,0.82861,0.67188,1.5,1.5,1.5h16.88477   c0.82813,0,1.5-0.67139,1.5-1.5V2C25.94238,1.17139,25.27051,0.5,24.44238,0.5z M22.94238,28.5H9.05762v-25h13.88477V28.5z"/><path d="M16,26.91943c3.02832,0,5.49121-2.46289,5.49121-5.49072S19.02832,15.9375,16,15.9375s-5.49121,2.46338-5.49121,5.49121   S12.97168,26.91943,16,26.91943z M16,18.9375c1.37402,0,2.49121,1.11768,2.49121,2.49121S17.37402,23.91943,16,23.91943   s-2.49121-1.11719-2.49121-2.49072S14.62598,18.9375,16,18.9375z"/><path d="M16,13.74121c2.3877,0,4.33008-1.94287,4.33008-4.33057S18.3877,5.08057,16,5.08057s-4.33008,1.94238-4.33008,4.33008   S13.6123,13.74121,16,13.74121z M16,8.08057c0.7334,0,1.33008,0.59668,1.33008,1.33008c0,0.73389-0.59668,1.33057-1.33008,1.33057   s-1.33008-0.59668-1.33008-1.33057C14.66992,8.67725,15.2666,8.08057,16,8.08057z"/></g></svg>