<?xml version="1.0" ?><svg id="Layer_2" style="enable-background:new 0 0 32 32;" version="1.1" viewBox="0 0 32 32" xml:space="preserve" xmlns="http://www.w3.org/2000/svg" xmlns:xlink="http://www.w3.org/1999/xlink"><g><path d="M29.0288,17.43457c0,0,0,0-0.00049,0l-0.93262-0.53906c0.02539-0.30762,0.03809-0.60449,0.03809-0.89551   s-0.0127-0.58789-0.03809-0.89551l0.93311-0.53906c1.67041-0.96484,2.24463-3.11035,1.28027-4.78125l-1.77148-3.06836   c-0.46729-0.80957-1.22217-1.38867-2.125-1.63086c-0.90186-0.24219-1.84668-0.11719-2.65674,0.34961l-0.93018,0.53711   c-0.49219-0.33398-1.01074-0.63184-1.55371-0.8916V4c0-1.92969-1.57031-3.5-3.5-3.5h-3.54394c-1.92969,0-3.5,1.57031-3.5,3.5   v1.08008C10.18505,5.33984,9.6665,5.6377,9.17431,5.97168L8.24413,5.43457C7.43407,4.9668,6.49023,4.84277,5.58739,5.08496   S3.92968,5.90625,3.46288,6.71582L1.69042,9.78418c-0.96387,1.6709-0.38965,3.81641,1.28125,4.78125l0.93262,0.53906   C3.8789,15.41211,3.8662,15.70898,3.8662,16s0.0127,0.58789,0.03809,0.89551l-0.93311,0.53906   c-1.67041,0.96484-2.24463,3.11035-1.28027,4.78125l1.77148,3.06836c0.96484,1.66992,3.10791,2.24707,4.78174,1.28125   l0.93018-0.53711c0.49219,0.33398,1.01074,0.63184,1.55371,0.8916V28c0,1.92969,1.57031,3.5,3.5,3.5h3.54394   c1.92969,0,3.5-1.57031,3.5-3.5v-1.08008c0.54297-0.25977,1.06152-0.55762,1.55371-0.8916l0.93115,0.53809   c1.67285,0.96289,3.81689,0.38867,4.78027-1.28223l1.77246-3.06836C31.27343,20.54492,30.69921,18.39941,29.0288,17.43457z    M27.71142,20.71582l-1.77246,3.06836c-0.1377,0.23828-0.44629,0.31836-0.68213,0.18359l-1.78369-1.03027   c-0.54102-0.31152-1.2168-0.25879-1.69971,0.1377c-0.74707,0.61035-1.59961,1.10059-2.53418,1.45508   c-0.58252,0.22168-0.96729,0.7793-0.96729,1.40234V28c0,0.27539-0.22412,0.5-0.5,0.5h-3.54394c-0.27588,0-0.5-0.22461-0.5-0.5   v-2.06738c0-0.62305-0.38477-1.18066-0.96729-1.40234c-0.93457-0.35449-1.78711-0.84473-2.53418-1.45508   c-0.27393-0.22461-0.61084-0.33887-0.94922-0.33887c-0.25781,0-0.51709,0.06641-0.75049,0.20117l-1.78271,1.0293   c-0.23926,0.13867-0.54541,0.05566-0.68359-0.18262l-1.77148-3.06836c-0.13818-0.23828-0.05566-0.5459,0.18262-0.68359   l1.79248-1.03516c0.53906-0.31152,0.83008-0.92285,0.73096-1.53809C6.90819,16.92188,6.8662,16.44531,6.8662,16   s0.04199-0.92188,0.12891-1.45898c0.09912-0.61523-0.19189-1.22656-0.73096-1.53809l-1.79199-1.03516   c-0.23877-0.1377-0.32129-0.44531-0.18359-0.68359l1.77246-3.06836c0.08984-0.15625,0.229-0.21387,0.30371-0.2334   c0.07422-0.02051,0.22217-0.04102,0.37842,0.0498L8.52685,9.0625c0.53955,0.31152,1.21729,0.25781,1.69971-0.1377   c0.74707-0.61035,1.59961-1.10059,2.53418-1.45508c0.58252-0.22168,0.96729-0.7793,0.96729-1.40234V4   c0-0.27539,0.22412-0.5,0.5-0.5h3.54394c0.27588,0,0.5,0.22461,0.5,0.5v2.06738c0,0.62305,0.38477,1.18066,0.96729,1.40234   c0.93457,0.35449,1.78711,0.84473,2.53418,1.45508c0.48291,0.39551,1.15869,0.44922,1.69971,0.1377l1.78369-1.03027   c0.15576-0.08984,0.30371-0.07031,0.37842-0.0498c0.07471,0.01953,0.21387,0.07715,0.3042,0.2334l1.77148,3.06836   c0.13818,0.23828,0.05566,0.5459-0.18262,0.68359l-1.79248,1.03516c-0.53906,0.31152-0.83008,0.92285-0.73096,1.53809   c0.08691,0.53711,0.12891,1.01367,0.12891,1.45898s-0.04199,0.92188-0.12891,1.45898   c-0.09912,0.61523,0.19189,1.22656,0.73096,1.53809l1.79199,1.03516C27.76659,20.16992,27.84911,20.47754,27.71142,20.71582z"/><path d="M15.99999,8.41992c-4.18018,0-7.58057,3.40039-7.58057,7.58008s3.40039,7.58008,7.58057,7.58008   S23.58056,20.17969,23.58056,16S20.18017,8.41992,15.99999,8.41992z M15.99999,20.58008   c-2.52588,0-4.58057-2.05469-4.58057-4.58008s2.05469-4.58008,4.58057-4.58008S20.58056,13.47461,20.58056,16   S18.52587,20.58008,15.99999,20.58008z"/></g></svg>