<?xml version="1.0" ?><svg id="Layer_2" style="enable-background:new 0 0 32 32;" version="1.1" viewBox="0 0 32 32" xml:space="preserve" xmlns="http://www.w3.org/2000/svg" xmlns:xlink="http://www.w3.org/1999/xlink"><g><path d="M30.40234,19.82373c-0.22949-0.36719-0.60645-0.61719-1.03418-0.68555l-9.45801-1.51758   c-0.44336-0.07373-0.89551,0.05957-1.23145,0.35791c-0.75098,0.66455-1.35352,1.44385-1.78857,2.30371   c-1.06543-0.60742-2.04736-1.35791-2.93115-2.24121c-0.8833-0.88379-1.63379-1.86523-2.24121-2.93115   c0.86035-0.43555,1.64014-1.03857,2.3042-1.78906c0.29736-0.33643,0.42871-0.78857,0.35742-1.23193l-1.51758-9.45801   c-0.06836-0.42773-0.31885-0.80518-0.68652-1.03467c-0.67627-0.42188-1.4292-0.72119-2.15527-0.86963   C9.45801,0.57617,8.85352,0.5,8.22461,0.5C3.96533,0.5,0.5,3.96533,0.5,8.22461C0.5,21.05859,10.94141,31.5,23.77539,31.5   c4.25977,0,7.72461-3.46533,7.72461-7.72461c0-0.63135-0.07617-1.23584-0.20703-1.71143   C31.12598,21.25488,30.82617,20.50146,30.40234,19.82373z M23.77539,28.5C12.5957,28.5,3.5,19.4043,3.5,8.22461   C3.5,5.61963,5.61963,3.5,8.22461,3.5c0.36719,0,0.71045,0.04199,1.10303,0.14453c0.24463,0.05078,0.47412,0.11963,0.69189,0.20752   l1.27637,7.9541c-0.57959,0.49854-1.25586,0.84131-1.98633,1.00244c-0.43604,0.09619-0.80615,0.38086-1.01074,0.77783   c-0.2041,0.39648-0.22168,0.86328-0.04688,1.27393c0.8418,1.98047,2.04834,3.76416,3.58594,5.30176   s3.32129,2.74414,5.30176,3.58594c0.40918,0.17432,0.87598,0.15674,1.27441-0.04688   c0.39648-0.20459,0.68164-0.57471,0.77734-1.01074c0.16113-0.72998,0.50391-1.40625,1.00195-1.98633l7.95313,1.27637   c0.0918,0.22998,0.16699,0.4834,0.22949,0.77637C28.45801,23.06396,28.5,23.40674,28.5,23.77539   C28.5,26.38037,26.38086,28.5,23.77539,28.5z"/><path d="M17.2168,7.07861c-0.79053-0.02588-1.50293,0.66553-1.50684,1.49316c-0.00391,0.82813,0.66455,1.50293,1.49316,1.50684   c1.26367,0.00586,2.44727,0.49707,3.33398,1.38428c0.88672,0.88623,1.37793,2.07031,1.38379,3.3335   c0.00391,0.82617,0.6748,1.49365,1.5,1.49365c0.00195,0,0.00391,0,0.00684,0c0.82813-0.00342,1.49707-0.67822,1.49316-1.50635   c-0.00879-2.06006-0.8125-3.99316-2.2627-5.44238C21.20898,7.8916,19.27637,7.08789,17.2168,7.07861z"/><path d="M27.81934,15.64893c0.82813,0,1.5-0.67139,1.5-1.5c0-3.06445-1.19238-5.94482-3.35742-8.11133   c-2.16602-2.16504-5.0459-3.35742-8.11035-3.35742c-0.82813,0-1.5,0.67139-1.5,1.5s0.67188,1.5,1.5,1.5   c2.2627,0,4.38965,0.88037,5.98926,2.479c1.59863,1.59912,2.47852,3.72656,2.47852,5.98975   C26.31934,14.97754,26.99121,15.64893,27.81934,15.64893z"/></g></svg>