<?xml version="1.0" ?><svg id="Layer_2" style="enable-background:new 0 0 32 32;" version="1.1" viewBox="0 0 32 32" xml:space="preserve" xmlns="http://www.w3.org/2000/svg" xmlns:xlink="http://www.w3.org/1999/xlink"><g><path d="M19.40137,7.11621c0-3.64844-2.96777-6.61621-6.61621-6.61621S6.16895,3.46777,6.16895,7.11621   s2.96777,6.61621,6.61621,6.61621S19.40137,10.76465,19.40137,7.11621z M9.16895,7.11621   c0-1.99414,1.62207-3.61621,3.61621-3.61621s3.61621,1.62207,3.61621,3.61621s-1.62207,3.61621-3.61621,3.61621   S9.16895,9.11035,9.16895,7.11621z"/><path d="M12.78516,14.5c-6.34082,0-11.5,5.15918-11.5,11.5v2c0,1.92969,1.57031,3.5,3.5,3.5h16c1.92969,0,3.5-1.57031,3.5-3.5v-2   C24.28516,19.65918,19.12598,14.5,12.78516,14.5z M21.28516,28c0,0.27539-0.22461,0.5-0.5,0.5h-16c-0.27539,0-0.5-0.22461-0.5-0.5   v-2c0-4.68652,3.81348-8.5,8.5-8.5s8.5,3.81348,8.5,8.5V28z"/><path d="M28.1543,8.15039l-3.71582,3.71582l-1.36426-1.36328c-0.58594-0.58594-1.53516-0.58594-2.12109,0   s-0.58594,1.53613,0,2.12109l2.4248,2.42383c0.29297,0.29297,0.67676,0.43945,1.06055,0.43945s0.76758-0.14648,1.06055-0.43945   l4.77637-4.77637c0.58594-0.58594,0.58594-1.53516,0-2.12109S28.74023,7.56445,28.1543,8.15039z"/></g></svg>