<?xml version="1.0" ?><svg id="Layer_2" style="enable-background:new 0 0 32 32;" version="1.1" viewBox="0 0 32 32" xml:space="preserve" xmlns="http://www.w3.org/2000/svg" xmlns:xlink="http://www.w3.org/1999/xlink"><g><path d="M5.10693,20.60693c2.54053,0,4.60742-2.06689,4.60742-4.60693s-2.06689-4.60693-4.60742-4.60693   C2.56689,11.39307,0.5,13.45996,0.5,16S2.56689,20.60693,5.10693,20.60693z M5.10693,14.39307   c0.88623,0,1.60742,0.7207,1.60742,1.60693s-0.72119,1.60693-1.60742,1.60693S3.5,16.88623,3.5,16   S4.2207,14.39307,5.10693,14.39307z"/><path d="M16,20.60693c2.54004,0,4.60693-2.06689,4.60693-4.60693S18.54004,11.39307,16,11.39307S11.39307,13.45996,11.39307,16   S13.45996,20.60693,16,20.60693z M16,14.39307c0.88623,0,1.60693,0.7207,1.60693,1.60693S16.88623,17.60693,16,17.60693   S14.39307,16.88623,14.39307,16S15.11377,14.39307,16,14.39307z"/><path d="M26.89307,11.39307c-2.54053,0-4.60742,2.06689-4.60742,4.60693s2.06689,4.60693,4.60742,4.60693   C29.43311,20.60693,31.5,18.54004,31.5,16S29.43311,11.39307,26.89307,11.39307z M26.89307,17.60693   c-0.88623,0-1.60742-0.7207-1.60742-1.60693s0.72119-1.60693,1.60742-1.60693S28.5,15.11377,28.5,16   S27.7793,17.60693,26.89307,17.60693z"/></g></svg>