<?xml version="1.0" ?><svg id="Layer_2" style="enable-background:new 0 0 32 32;" version="1.1" viewBox="0 0 32 32" xml:space="preserve" xmlns="http://www.w3.org/2000/svg" xmlns:xlink="http://www.w3.org/1999/xlink"><path d="M28,7.05371H17.04199c-0.1626,0-0.31592-0.08008-0.40967-0.21387L15.31738,4.9585  c-0.65479-0.93555-1.72705-1.49414-2.86865-1.49414H4c-1.92969,0-3.5,1.57031-3.5,3.5v18.07129c0,1.92969,1.57031,3.5,3.5,3.5h24  c1.92969,0,3.5-1.57031,3.5-3.5V10.55371C31.5,8.62402,29.92969,7.05371,28,7.05371z M28.5,25.03564c0,0.27588-0.22412,0.5-0.5,0.5  H4c-0.27588,0-0.5-0.22412-0.5-0.5V6.96436c0-0.27588,0.22412-0.5,0.5-0.5h8.44873c0.16357,0,0.31689,0.08008,0.41016,0.21338  l1.31445,1.88086c0.65479,0.93604,1.72705,1.49512,2.86865,1.49512H28c0.27588,0,0.5,0.22412,0.5,0.5V25.03564z"/></svg>