<?xml version="1.0" ?><svg id="Layer_2" style="enable-background:new 0 0 32 32;" version="1.1" viewBox="0 0 32 32" xml:space="preserve" xmlns="http://www.w3.org/2000/svg" xmlns:xlink="http://www.w3.org/1999/xlink"><g><path d="M29.9458,7.68799c-0.97314-0.65137-2.19971-0.77246-3.28223-0.32568l-3.48102,1.43787   c-0.36658-1.54041-1.74603-2.69324-3.39691-2.69324H4c-1.92969,0-3.5,1.57031-3.5,3.5v12.78613c0,1.92969,1.57031,3.5,3.5,3.5   h15.78564c1.65088,0,3.03033-1.15283,3.39691-2.69324l3.48102,1.43787c0.43115,0.17822,0.88525,0.26611,1.3374,0.26611   c0.68213,0,1.35938-0.2002,1.94482-0.5918c0.97314-0.65088,1.5542-1.73828,1.5542-2.90918V10.59717   C31.5,9.42627,30.91895,8.33887,29.9458,7.68799z M20.28564,22.39307c0,0.27588-0.22412,0.5-0.5,0.5H4   c-0.27588,0-0.5-0.22412-0.5-0.5V9.60693c0-0.27588,0.22412-0.5,0.5-0.5h15.78564c0.27588,0,0.5,0.22412,0.5,0.5V22.39307z    M28.5,21.40283c0,0.23242-0.13916,0.36035-0.22217,0.41553s-0.25439,0.13477-0.46875,0.04688l-4.52344-1.86865v-7.99316   l4.52344-1.86865c0.21436-0.08789,0.38574-0.00879,0.46875,0.04688C28.36084,10.23682,28.5,10.36475,28.5,10.59717V21.40283z"/></g></svg>