<?xml version="1.0" ?><svg id="Layer_2" style="enable-background:new 0 0 32 32;" version="1.1" viewBox="0 0 32 32" xml:space="preserve" xmlns="http://www.w3.org/2000/svg" xmlns:xlink="http://www.w3.org/1999/xlink"><g><path d="M16,0.5C7.45313,0.5,0.5,7.45313,0.5,16S7.45313,31.5,16,31.5S31.5,24.54688,31.5,16S24.54688,0.5,16,0.5z M16,28.5   C9.10742,28.5,3.5,22.89258,3.5,16S9.10742,3.5,16,3.5S28.5,9.10742,28.5,16S22.89258,28.5,16,28.5z"/><path d="M21.04443,9.01855l-8.07129,3.09082c-0.39746,0.15234-0.71191,0.46582-0.86426,0.86426l-3.09082,8.07129   c-0.21143,0.55273-0.07861,1.17773,0.34033,1.59668c0.28662,0.28711,0.66992,0.43945,1.06104,0.43945   c0.17969,0,0.36133-0.03223,0.53613-0.09961l8.07129-3.09082c0.39746-0.15234,0.71191-0.46582,0.86426-0.86426l3.09082-8.07129   c0.21143-0.55273,0.07861-1.17773-0.34033-1.59668C22.22266,8.93848,21.59961,8.80371,21.04443,9.01855z M17.32861,17.3291   l-4.30664,1.64941l1.64941-4.30762l4.30664-1.64941L17.32861,17.3291z"/></g></svg>