<?xml version="1.0" ?><svg id="Layer_2" style="enable-background:new 0 0 32 32;" version="1.1" viewBox="0 0 32 32" xml:space="preserve" xmlns="http://www.w3.org/2000/svg" xmlns:xlink="http://www.w3.org/1999/xlink"><g><path d="M9.55298,0.5h-5.104c-0.82861,0-1.5,0.67188-1.5,1.5v5.10449c0,0.82813,0.67139,1.5,1.5,1.5h5.104   c0.82861,0,1.5-0.67188,1.5-1.5V2C11.05298,1.17188,10.38159,0.5,9.55298,0.5z M8.05298,5.60449h-2.104V3.5h2.104V5.60449z"/><path d="M27.55103,3.05176H15.42505c-0.82861,0-1.5,0.67188-1.5,1.5s0.67139,1.5,1.5,1.5h12.12598c0.82813,0,1.5-0.67188,1.5-1.5   S28.37915,3.05176,27.55103,3.05176z"/><path d="M9.55298,11.94824h-5.104c-0.82861,0-1.5,0.67188-1.5,1.5v5.10352c0,0.82813,0.67139,1.5,1.5,1.5h5.104   c0.82861,0,1.5-0.67188,1.5-1.5v-5.10352C11.05298,12.62012,10.38159,11.94824,9.55298,11.94824z M8.05298,17.05176h-2.104   v-2.10352h2.104V17.05176z"/><path d="M27.55103,14.5H15.42505c-0.82861,0-1.5,0.67188-1.5,1.5s0.67139,1.5,1.5,1.5h12.12598c0.82813,0,1.5-0.67188,1.5-1.5   S28.37915,14.5,27.55103,14.5z"/><path d="M9.55298,23.39551h-5.104c-0.82861,0-1.5,0.67188-1.5,1.5V30c0,0.82813,0.67139,1.5,1.5,1.5h5.104   c0.82861,0,1.5-0.67188,1.5-1.5v-5.10449C11.05298,24.06738,10.38159,23.39551,9.55298,23.39551z M8.05298,28.5h-2.104v-2.10449   h2.104V28.5z"/><path d="M27.55103,25.94824H15.42505c-0.82861,0-1.5,0.67188-1.5,1.5s0.67139,1.5,1.5,1.5h12.12598c0.82813,0,1.5-0.67188,1.5-1.5   S28.37915,25.94824,27.55103,25.94824z"/></g></svg>