<?xml version="1.0" ?><svg id="Layer_2" style="enable-background:new 0 0 32 32;" version="1.1" viewBox="0 0 32 32" xml:space="preserve" xmlns="http://www.w3.org/2000/svg" xmlns:xlink="http://www.w3.org/1999/xlink"><g><path d="M2,14.35449h10.85449c0.82861,0,1.5-0.67139,1.5-1.5V2c0-0.82861-0.67139-1.5-1.5-1.5H2C1.17139,0.5,0.5,1.17139,0.5,2   v10.85449C0.5,13.68311,1.17139,14.35449,2,14.35449z M3.5,3.5h7.85449v7.85449H3.5V3.5z"/><path d="M31.5,2c0-0.82861-0.67188-1.5-1.5-1.5H19.14551c-0.82813,0-1.5,0.67139-1.5,1.5v10.85449c0,0.82861,0.67188,1.5,1.5,1.5   H30c0.82813,0,1.5-0.67139,1.5-1.5V2z M28.5,11.35449h-7.85449V3.5H28.5V11.35449z"/><path d="M2,31.5h10.85449c0.82861,0,1.5-0.67139,1.5-1.5V19.14551c0-0.82861-0.67139-1.5-1.5-1.5H2c-0.82861,0-1.5,0.67139-1.5,1.5   V30C0.5,30.82861,1.17139,31.5,2,31.5z M3.5,20.64551h7.85449V28.5H3.5V20.64551z"/><path d="M24.57227,17.64551c-3.81934,0-6.92676,3.10742-6.92676,6.92725S20.75293,31.5,24.57227,31.5   c3.82031,0,6.92773-3.10742,6.92773-6.92725S28.39258,17.64551,24.57227,17.64551z M24.57227,28.5   c-2.16504,0-3.92676-1.76172-3.92676-3.92725s1.76172-3.92725,3.92676-3.92725c2.16602,0,3.92773,1.76172,3.92773,3.92725   S26.73828,28.5,24.57227,28.5z"/></g></svg>