<?xml version="1.0" ?><svg id="Layer_2" style="enable-background:new 0 0 32 32;" version="1.1" viewBox="0 0 32 32" xml:space="preserve" xmlns="http://www.w3.org/2000/svg" xmlns:xlink="http://www.w3.org/1999/xlink"><g><path d="M30,14.5H14.18921c-0.68793-3.10089-3.45569-5.42871-6.7605-5.42871C3.6084,9.07129,0.5,12.17969,0.5,16   s3.1084,6.92871,6.92871,6.92871c3.30481,0,6.07257-2.32782,6.7605-5.42871h8.43091V21c0,0.82861,0.67188,1.5,1.5,1.5   s1.5-0.67139,1.5-1.5v-3.5H28.5V21c0,0.82861,0.67188,1.5,1.5,1.5s1.5-0.67139,1.5-1.5v-5C31.5,15.17139,30.82813,14.5,30,14.5z    M7.42871,19.92871C5.2627,19.92871,3.5,18.1665,3.5,16s1.7627-3.92871,3.92871-3.92871S11.35742,13.8335,11.35742,16   S9.59473,19.92871,7.42871,19.92871z"/></g></svg>