<?xml version="1.0" ?><svg id="Layer_2" style="enable-background:new 0 0 32 32;" version="1.1" viewBox="0 0 32 32" xml:space="preserve" xmlns="http://www.w3.org/2000/svg" xmlns:xlink="http://www.w3.org/1999/xlink"><path d="M27,4.70996H5c-2.48145,0-4.5,2.01855-4.5,4.5v13.58008c0,2.48145,2.01855,4.5,4.5,4.5h22c2.48145,0,4.5-2.01855,4.5-4.5  V9.20996C31.5,6.72852,29.48145,4.70996,27,4.70996z M25.67072,7.70996l-1.38074,1.09003l-7.35999,5.81  c-0.54999,0.42999-1.31,0.42999-1.85999,0L7.96997,9l-1.6366-1.29004H25.67072z M27,24.29004H5c-0.82715,0-1.5-0.67285-1.5-1.5  V9.30469l9.71002,7.66528C14.03003,17.62,15.02002,17.94,16,17.94s1.96997-0.32001,2.78998-0.97003L28.5,9.30811v13.48193  C28.5,23.61719,27.82715,24.29004,27,24.29004z"/></svg>