<?xml version="1.0" encoding="UTF-8" standalone="no"?>
<!-- Generator: Adobe Illustrator 19.2.1, SVG Export Plug-In . SVG Version: 6.00 Build 0)  -->

<svg
   version="1.1"
   id="Capa_1"
   x="0px"
   y="0px"
   viewBox="0 0 560 300"
   xml:space="preserve"
   sodipodi:docname="undraw_security_o890.svg"
   width="560"
   height="300"
   inkscape:version="1.1.2 (0a00cf5339, 2022-02-04)"
   xmlns:inkscape="http://www.inkscape.org/namespaces/inkscape"
   xmlns:sodipodi="http://sodipodi.sourceforge.net/DTD/sodipodi-0.dtd"
   xmlns="http://www.w3.org/2000/svg"
   xmlns:svg="http://www.w3.org/2000/svg"><defs
   id="defs17" /><sodipodi:namedview
   id="namedview15"
   pagecolor="#ffffff"
   bordercolor="#666666"
   borderopacity="1.0"
   inkscape:pageshadow="2"
   inkscape:pageopacity="0.0"
   inkscape:pagecheckerboard="0"
   showgrid="false"
   height="300px"
   inkscape:zoom="1.5301741"
   inkscape:cx="71.560484"
   inkscape:cy="154.55758"
   inkscape:window-width="1600"
   inkscape:window-height="836"
   inkscape:window-x="0"
   inkscape:window-y="0"
   inkscape:window-maximized="1"
   inkscape:current-layer="Capa_1" />
<style
   type="text/css"
   id="style2">
	.st0{fill:#002C5F;}
	.st1{fill:#FFFFFF;}
</style>
<g
   id="g12"
   transform="translate(0,144)">
	<path
   class="st0"
   d="m 96.8,49.6 c 0,26 -21,47 -47,47 -26,0 -47,-21 -47,-47 0,-26 21,-47 47,-47 25.9,0 47,21 47,47"
   id="path4" />
	<path
   class="st1"
   d="m 41.8,7.6 h 14.4 l 10.8,30.7 17.6,-1.8 -15.3,7.9 13.8,38 h -12 L 59.3,50 35.7,62.6 28.6,82.5 H 16.7 L 21.4,70.1 11.9,75.3 22.6,66.2 29.5,44.5 18,44 30.6,42.6 Z M 43,40.8 56.2,39.4 49.5,21.8 Z m -4.1,11.9 9.5,-7.6 -6.6,-0.5 z"
   id="path6" />
	<path
   d="M 110.9,49.7 123.2,17 h 4.6 L 141,49.7 h -4.8 l -3.8,-9.9 h -13.5 l -3.5,9.9 z m 9.3,-13.4 h 10.9 l -3.4,-9.1 c -1,-2.7 -1.8,-5 -2.3,-6.8 -0.4,2.1 -1,4.2 -1.8,6.3 z m 24.3,13.4 V 17 h 23.3 v 3.8 h -19 v 10 h 17.8 v 3.8 h -17.8 v 11.1 h 19.8 v 3.8 z m 30.1,0 V 17 h 14.3 c 2.9,0 5.1,0.3 6.6,0.9 1.5,0.6 2.7,1.6 3.6,3.1 0.9,1.5 1.4,3.1 1.4,5 0,2.3 -0.7,4.3 -2.2,5.9 -1.4,1.6 -3.8,2.6 -6.9,3 1.1,0.6 2,1.1 2.6,1.6 1.3,1.1 2.4,2.6 3.5,4.3 l 5.6,8.9 h -5.4 l -4.3,-6.8 c -1.3,-2 -2.2,-3.4 -3,-4.5 -0.8,-1 -1.5,-1.8 -2.2,-2.2 -0.6,-0.4 -1.3,-0.7 -1.9,-0.9 -0.5,-0.1 -1.3,-0.2 -2.4,-0.2 h -5 v 14.5 z m 4.2,-18.3 h 9.1 c 1.9,0 3.4,-0.2 4.6,-0.6 1.1,-0.4 1.9,-1 2.5,-1.9 0.6,-0.9 0.9,-1.8 0.9,-3 0,-1.5 -0.6,-2.8 -1.7,-3.8 -1.1,-1 -2.9,-1.5 -5.2,-1.5 h -10.2 z m 26.9,2.4 c 0,-5.5 1.4,-9.7 4.3,-12.8 2.9,-3 6.6,-4.6 11.1,-4.6 3,0 5.7,0.7 8,2.2 2.4,1.4 4.2,3.4 5.5,6 1.3,2.6 1.8,5.5 1.8,8.7 0,3.3 -0.6,6.3 -2,8.9 -1.3,2.6 -3.2,4.6 -5.6,5.9 -2.4,1.4 -5.1,2 -7.9,2 -3,0 -5.8,-0.7 -8.1,-2.2 -2.4,-1.4 -4.2,-3.5 -5.5,-6.1 -1,-2.4 -1.6,-5.2 -1.6,-8 m 4.4,0 c 0,3.9 1,7.1 3.1,9.3 2.1,2.2 4.7,3.4 7.9,3.4 3.2,0 5.9,-1.1 7.9,-3.4 2.1,-2.3 3.1,-5.5 3.1,-9.7 0,-2.6 -0.5,-5 -1.4,-7 -0.9,-2 -2.2,-3.5 -3.9,-4.7 -1.7,-1.1 -3.6,-1.6 -5.8,-1.6 -3,0 -5.6,1 -7.8,3.1 -2.1,2.2 -3.1,5.7 -3.1,10.6 m 31.8,15.9 V 17 h 4.4 l 16.9,25.7 V 17 h 4.1 V 49.7 H 263 L 246,24 v 25.7 c 0,0 -4.1,0 -4.1,0 z m 29.1,0 12.3,-32.7 h 4.6 l 13.2,32.7 h -4.9 l -3.8,-9.9 h -13.5 l -3.5,9.9 z m 9.3,-13.4 h 10.9 l -3.4,-9.1 c -1,-2.7 -1.8,-5 -2.3,-6.8 -0.4,2.1 -1,4.2 -1.8,6.3 z m 2.6,-21.3 2.9,-6.3 h 5.2 l -4.8,6.3 z m 42.9,2 h 4.3 v 18.9 c 0,3.3 -0.4,5.9 -1.1,7.9 -0.7,2 -2.1,3.5 -4,4.7 -1.9,1.2 -4.4,1.8 -7.5,1.8 -3,0 -5.5,-0.6 -7.4,-1.6 -1.9,-1 -3.3,-2.6 -4.1,-4.6 -0.8,-2 -1.2,-4.7 -1.2,-8.2 V 17.1 h 4.3 v 18.8 c 0,2.8 0.2,5 0.8,6.3 0.5,1.4 1.4,2.4 2.6,3.1 1.3,0.7 2.8,1.1 4.7,1.1 3.1,0 5.4,-0.7 6.7,-2.2 1.4,-1.4 2,-4.3 2,-8.3 z m 19.5,32.7 V 20.8 H 334.7 V 17 h 25.6 v 3.8 h -10.7 v 28.9 z m 20,-32.7 h 4.3 v 32.7 h -4.3 z m 34.8,21.2 4.3,1.1 c -0.9,3.5 -2.5,6.3 -4.8,8.1 -2.3,1.8 -5.1,2.8 -8.5,2.8 -3.4,0 -6.3,-0.7 -8.5,-2.2 -2.2,-1.4 -3.8,-3.5 -5,-6.3 -1.1,-2.7 -1.7,-5.6 -1.7,-8.7 0,-3.4 0.6,-6.3 1.9,-8.9 1.3,-2.6 3.1,-4.5 5.5,-5.8 2.4,-1.3 5,-2 7.8,-2 3.2,0 5.9,0.8 8.1,2.5 2.2,1.7 3.8,4 4.6,7.1 l -4.2,1 c -0.7,-2.4 -1.8,-4.1 -3.3,-5.2 -1.5,-1.1 -3.2,-1.6 -5.4,-1.6 -2.5,0 -4.6,0.6 -6.2,1.8 -1.7,1.2 -2.8,2.8 -3.5,4.9 -0.6,2 -1,4.1 -1,6.3 0,2.8 0.4,5.2 1.2,7.3 0.8,2.1 2,3.6 3.7,4.7 1.7,1 3.5,1.5 5.5,1.5 2.4,0 4.4,-0.7 6.1,-2.1 1.7,-1.4 2.8,-3.5 3.4,-6.3 m 6,11.5 12.4,-32.7 h 4.6 l 13.2,32.7 h -4.9 l -3.8,-9.9 h -13.5 l -3.5,9.9 z m 9.3,-13.4 h 10.9 l -3.4,-9.1 c -1,-2.7 -1.8,-5 -2.3,-6.8 -0.4,2.1 -1,4.2 -1.8,6.3 z m 57.3,1.9 4.3,1.1 c -0.9,3.5 -2.5,6.3 -4.8,8.1 -2.3,1.8 -5.1,2.8 -8.5,2.8 -3.4,0 -6.3,-0.7 -8.5,-2.2 -2.2,-1.4 -3.8,-3.5 -5,-6.3 -1.1,-2.7 -1.7,-5.6 -1.7,-8.7 0,-3.4 0.6,-6.3 1.9,-8.9 1.3,-2.6 3.1,-4.5 5.5,-5.8 2.3,-1.3 5,-2 7.8,-2 3.2,0 5.9,0.8 8.1,2.5 2.2,1.7 3.7,4 4.6,7.1 l -4.2,1 c -0.7,-2.4 -1.8,-4.1 -3.3,-5.2 -1.5,-1.1 -3.2,-1.6 -5.4,-1.6 -2.5,0 -4.6,0.6 -6.2,1.8 -1.7,1.2 -2.8,2.8 -3.5,4.9 -0.6,2 -1,4.1 -1,6.3 0,2.8 0.4,5.2 1.2,7.3 0.8,2.1 2,3.6 3.7,4.7 1.7,1 3.5,1.5 5.5,1.5 2.4,0 4.4,-0.7 6.1,-2.1 1.7,-1.4 2.8,-3.5 3.4,-6.3 M 483,17 h 4.3 V 49.7 H 483 Z M 504,49.7 491.5,17 h 4.7 l 8.3,23.7 c 0.6,1.9 1.2,3.7 1.7,5.4 0.5,-1.8 1,-3.5 1.8,-5.4 L 516.7,17 h 4.3 l -12.7,32.7 c 0,0 -4.3,0 -4.3,0 z M 525.5,17 h 4.3 v 32.7 h -4.3 z m 11.6,32.7 V 17 h 4.3 v 28.9 h 15.9 v 3.8 c -0.1,0 -20.2,0 -20.2,0 z"
   id="path8" />
	<path
   d="m 122.8,60.6 h 2.4 V 73 c 0,2.2 -0.2,3.8 -0.6,5.1 -0.4,1.3 -1.2,2.3 -2.2,3.1 -1.1,0.8 -2.6,1.2 -4.3,1.2 -1.8,0 -3.1,-0.3 -4.3,-1 -1.2,-0.7 -1.8,-1.7 -2.3,-3 -0.5,-1.3 -0.7,-3.1 -0.7,-5.4 V 60.6 h 2.4 V 73 c 0,1.8 0.2,3.2 0.5,4.1 0.3,0.9 0.8,1.6 1.5,2.1 0.7,0.5 1.6,0.7 2.6,0.7 1.8,0 3,-0.5 3.8,-1.4 0.8,-1 1.1,-2.8 1.1,-5.5 z m 6.5,21.5 V 60.6 h 2.5 l 9.7,16.9 V 60.6 h 2.3 v 21.5 h -2.5 l -9.7,-16.9 v 16.9 z m 19.1,-21.5 h 2.4 v 21.5 h -2.4 z m 6.8,21.5 V 60.6 h 6.3 c 1.4,0 2.6,0.1 3.3,0.3 1,0.3 1.9,0.8 2.7,1.5 1,1 1.7,2.2 2.2,3.7 0.5,1.5 0.7,3.2 0.7,5.1 0,1.6 -0.2,3 -0.5,4.3 -0.3,1.3 -0.7,2.3 -1.3,3.1 -0.5,0.8 -1,1.4 -1.7,1.9 -0.6,0.5 -1.4,0.8 -2.2,1 -0.9,0.2 -1.8,0.4 -3,0.4 h -6.5 z m 2.4,-2.6 h 3.9 c 1.2,0 2.2,-0.2 2.9,-0.4 0.7,-0.2 1.3,-0.6 1.7,-1.1 0.6,-0.6 1,-1.6 1.4,-2.7 0.3,-1.1 0.5,-2.5 0.5,-4.2 0,-2.2 -0.3,-4 -1,-5.2 -0.6,-1.2 -1.4,-2 -2.3,-2.4 -0.6,-0.3 -1.7,-0.4 -3.1,-0.4 h -3.8 z m 14.2,2.6 7.1,-21.5 h 2.6 l 7.5,21.5 h -2.8 L 184,75.6 h -7.7 l -2,6.5 z m 5.3,-8.8 h 6.3 l -1.9,-5.9 c -0.6,-1.8 -1,-3.3 -1.3,-4.5 -0.2,1.4 -0.6,2.7 -1,4.1 z M 191,82.1 V 60.6 h 6.3 c 1.4,0 2.6,0.1 3.3,0.3 1,0.3 1.9,0.8 2.7,1.5 1,1 1.7,2.2 2.2,3.7 0.5,1.5 0.7,3.2 0.7,5.1 0,1.6 -0.2,3 -0.5,4.3 -0.3,1.3 -0.7,2.3 -1.3,3.1 -0.5,0.8 -1,1.4 -1.7,1.9 -0.6,0.5 -1.4,0.8 -2.2,1 -0.9,0.2 -1.8,0.4 -3,0.4 H 191 Z m 2.5,-2.6 h 3.9 c 1.2,0 2.2,-0.2 2.9,-0.4 0.7,-0.2 1.3,-0.6 1.7,-1.1 0.6,-0.6 1,-1.6 1.4,-2.7 0.3,-1.1 0.5,-2.5 0.5,-4.2 0,-2.2 -0.3,-4 -1,-5.2 -0.6,-1.2 -1.4,-2 -2.3,-2.4 -0.6,-0.3 -1.7,-0.4 -3.1,-0.4 h -3.8 z m 19.9,2.6 7.1,-21.5 h 2.6 l 7.5,21.5 h -2.8 l -2.2,-6.5 H 218 l -2,6.5 z m 5.3,-8.8 h 6.3 l -1.9,-5.9 c -0.6,-1.8 -1,-3.3 -1.3,-4.5 -0.2,1.4 -0.6,2.7 -1,4.1 z m 13.9,8.8 V 60.6 h 6.3 c 1.4,0 2.6,0.1 3.3,0.3 1,0.3 1.9,0.8 2.7,1.5 1,1 1.7,2.2 2.2,3.7 0.5,1.5 0.7,3.2 0.7,5.1 0,1.6 -0.2,3 -0.5,4.3 -0.3,1.3 -0.7,2.3 -1.3,3.1 -0.5,0.8 -1,1.4 -1.7,1.9 -0.6,0.5 -1.4,0.8 -2.2,1 -0.9,0.2 -1.8,0.4 -3,0.4 h -6.5 z m 2.4,-2.6 h 3.9 c 1.2,0 2.2,-0.2 2.9,-0.4 0.7,-0.2 1.3,-0.6 1.7,-1.1 0.6,-0.6 1,-1.6 1.4,-2.7 0.3,-1.1 0.5,-2.5 0.5,-4.2 0,-2.2 -0.3,-4 -1,-5.2 -0.6,-1.2 -1.4,-2 -2.3,-2.4 -0.6,-0.3 -1.7,-0.4 -3.1,-0.4 h -3.8 z m 16.2,2.6 V 60.6 h 3.7 l 4.3,15.2 c 0.4,1.4 0.7,2.5 0.9,3.2 0.2,-0.8 0.6,-1.9 1,-3.4 l 4.4,-15 h 3.3 v 21.5 h -2.3 v -18 l -5.4,18 h -2.2 l -5.4,-18.3 v 18.3 z m 21.9,-21.5 h 2.4 v 21.5 h -2.4 z m 6.8,21.5 V 60.6 h 2.5 l 9.7,16.9 V 60.6 h 2.3 v 21.5 h -2.5 L 282.2,65.2 V 82.1 Z M 299,60.6 h 2.4 V 82.1 H 299 Z m 5.9,14.6 2.3,-0.2 c 0.1,1 0.4,1.9 0.8,2.6 0.4,0.7 1,1.3 1.8,1.7 0.8,0.4 1.8,0.6 2.8,0.6 1,0 1.8,-0.2 2.5,-0.5 0.7,-0.3 1.3,-0.8 1.6,-1.4 0.3,-0.6 0.6,-1.2 0.6,-1.8 0,-0.6 -0.2,-1.3 -0.5,-1.8 -0.3,-0.5 -0.9,-1 -1.7,-1.3 -0.5,-0.2 -1.6,-0.6 -3.3,-1 -1.7,-0.5 -2.9,-1 -3.5,-1.4 -0.9,-0.6 -1.5,-1.2 -2,-2 -0.4,-0.8 -0.6,-1.7 -0.6,-2.6 0,-1.1 0.2,-2.1 0.8,-3 0.6,-1 1.3,-1.7 2.3,-2.2 1,-0.5 2.2,-0.7 3.4,-0.7 1.4,0 2.6,0.2 3.6,0.8 1,0.5 1.8,1.3 2.4,2.2 0.6,1 0.9,2.2 0.9,3.4 l -2.3,0.2 c -0.2,-1.4 -0.6,-2.4 -1.3,-3 -0.7,-0.7 -1.8,-1 -3.2,-1 -1.4,0 -2.6,0.3 -3.2,1 -0.6,0.6 -1,1.4 -1,2.2 0,0.8 0.2,1.4 0.7,1.9 0.5,0.5 1.7,1 3.7,1.5 2,0.5 3.4,1 4.1,1.4 1,0.6 1.8,1.3 2.4,2.2 0.5,0.9 0.8,1.9 0.8,3 0,1.1 -0.2,2.2 -0.9,3.2 -0.6,1 -1.4,1.8 -2.4,2.4 -1,0.6 -2.2,0.9 -3.5,0.9 -1.7,0 -3,-0.3 -4.2,-0.9 -1.1,-0.6 -2,-1.4 -2.6,-2.6 -1,-1.1 -1.3,-2.3 -1.3,-3.8 m 22.7,6.9 v -19 h -6.1 v -2.6 h 14.7 v 2.6 h -6.1 v 19 z m 11.1,0 V 60.6 h 8.2 c 1.7,0 2.9,0.2 3.8,0.6 0.9,0.4 1.5,1 2.1,2.1 0.5,1 0.8,2.1 0.8,3.2 0,1.5 -0.4,2.8 -1.3,3.8 -0.9,1 -2.2,1.7 -3.9,2 0.6,0.3 1.1,0.7 1.4,1 0.7,0.7 1.4,1.7 2,2.9 l 3.2,5.9 h -3 l -2.4,-4.5 c -0.7,-1.3 -1.3,-2.2 -1.8,-3 -0.5,-0.7 -0.9,-1.1 -1.2,-1.4 -0.4,-0.2 -0.7,-0.5 -1.1,-0.6 -0.2,-0.1 -0.7,-0.1 -1.4,-0.1 h -2.8 V 82 h -2.6 z m 2.5,-12 h 5.2 c 1.1,0 2,-0.2 2.6,-0.4 0.6,-0.2 1.1,-0.7 1.4,-1.3 0.3,-0.6 0.5,-1.2 0.5,-1.9 0,-1 -0.3,-1.8 -1,-2.5 -0.6,-0.6 -1.6,-1 -3,-1 H 341 Z m 14.1,12 7.1,-21.5 h 2.6 l 7.5,21.5 h -2.8 l -2.2,-6.5 h -7.6 l -2,6.5 z m 5.3,-8.8 h 6.3 L 365,67.4 c -0.6,-1.8 -1,-3.3 -1.3,-4.5 -0.2,1.4 -0.6,2.7 -1,4.1 z m 16.7,8.8 v -19 h -6.1 v -2.6 h 14.7 v 2.6 h -6.1 v 19 z m 11.5,-21.5 h 2.4 v 21.5 h -2.4 z m 12,21.5 -7.1,-21.5 h 2.6 l 4.8,15.6 c 0.4,1.3 0.7,2.4 1,3.5 0.3,-1.2 0.6,-2.3 1,-3.5 l 5,-15.6 h 2.5 l -7.2,21.5 z m 8,0 7.1,-21.5 h 2.6 l 7.5,21.5 h -2.7 l -2.2,-6.5 h -7.7 l -2,6.5 z m 5.3,-8.8 h 6.3 l -1.9,-5.9 c -0.6,-1.8 -1,-3.3 -1.3,-4.5 -0.2,1.4 -0.6,2.7 -1,4.1 z m 19.7,8.8 V 60.6 h 13.4 v 2.6 h -10.9 v 6.6 h 10.2 v 2.5 h -10.2 v 7.3 h 11.3 v 2.6 z m 16.4,-6.9 2.3,-0.2 c 0.1,1 0.4,1.9 0.8,2.6 0.4,0.7 1,1.3 1.8,1.7 0.8,0.4 1.8,0.6 2.8,0.6 1,0 1.8,-0.2 2.5,-0.5 0.7,-0.3 1.3,-0.8 1.6,-1.4 0.3,-0.6 0.6,-1.2 0.6,-1.8 0,-0.6 -0.2,-1.3 -0.5,-1.8 -0.3,-0.5 -0.9,-1 -1.7,-1.3 -0.5,-0.2 -1.6,-0.6 -3.3,-1 -1.7,-0.5 -2.9,-1 -3.5,-1.4 -0.9,-0.6 -1.5,-1.2 -2,-2 -0.4,-0.8 -0.6,-1.7 -0.6,-2.6 0,-1.1 0.2,-2.1 0.8,-3 0.6,-1 1.3,-1.7 2.3,-2.2 1,-0.5 2.2,-0.7 3.4,-0.7 1.4,0 2.6,0.2 3.6,0.8 1,0.5 1.8,1.3 2.4,2.2 0.6,1 0.9,2.2 0.9,3.4 l -2.3,0.2 c -0.2,-1.4 -0.6,-2.4 -1.3,-3 -0.7,-0.7 -1.8,-1 -3.2,-1 -1.4,0 -2.6,0.3 -3.2,1 -0.6,0.6 -1,1.4 -1,2.2 0,0.8 0.2,1.4 0.7,1.9 0.5,0.5 1.7,1 3.7,1.5 2,0.5 3.4,1 4.1,1.4 1,0.6 1.8,1.3 2.4,2.2 0.5,0.9 0.8,1.9 0.8,3 0,1.1 -0.3,2.2 -0.9,3.2 -0.6,1 -1.4,1.8 -2.4,2.4 -1,0.6 -2.2,0.9 -3.5,0.9 -1.7,0 -3,-0.3 -4.2,-0.9 -1.1,-0.6 -2,-1.4 -2.6,-2.6 -0.9,-1.1 -1.3,-2.3 -1.3,-3.8 m 18,6.9 V 60.6 h 7 c 1.2,0 2.2,0.1 2.8,0.2 0.9,0.2 1.7,0.5 2.2,1 0.6,0.5 1.1,1.2 1.4,2.1 0.4,0.9 0.6,1.8 0.6,3 0,1.8 -0.5,3.4 -1.5,4.7 -1,1.3 -2.8,1.9 -5.5,1.9 h -4.7 v 8.7 h -2.4 v -0.1 z m 2.4,-11.3 h 4.8 c 1.6,0 2.7,-0.3 3.4,-1 0.7,-0.7 1,-1.7 1,-2.9 0,-0.9 -0.2,-1.7 -0.6,-2.3 -0.4,-0.6 -0.9,-1 -1.5,-1.3 -0.4,-0.2 -1.2,-0.2 -2.2,-0.2 h -4.8 v 7.7 z m 14.8,11.3 V 60.6 h 13.3 v 2.6 h -10.9 v 6.6 H 498 v 2.5 h -10.2 v 7.3 h 11.3 v 2.6 z m 30.4,-7.5 2.4,0.7 c -0.5,2.3 -1.4,4.1 -2.7,5.4 -1.4,1.2 -3,1.8 -4.9,1.8 -2,0 -3.6,-0.5 -4.9,-1.4 -1.3,-1 -2.2,-2.3 -2.8,-4.1 -0.6,-1.8 -1,-3.7 -1,-5.8 0,-2.2 0.4,-4.2 1.1,-5.9 0.7,-1.7 1.8,-3 3.1,-3.8 1.4,-0.9 2.8,-1.3 4.5,-1.3 1.8,0 3.4,0.6 4.7,1.6 1.3,1.1 2.2,2.6 2.6,4.7 l -2.4,0.6 c -0.4,-1.5 -1,-2.7 -1.8,-3.4 -0.8,-0.7 -1.8,-1 -3,-1 -1.4,0 -2.6,0.4 -3.5,1.2 -1,0.8 -1.6,1.8 -2,3.2 -0.4,1.4 -0.6,2.7 -0.6,4.2 0,1.8 0.2,3.4 0.7,4.8 0.5,1.4 1.2,2.4 2.2,3 1,0.6 2,1 3.1,1 1.4,0 2.6,-0.5 3.4,-1.4 0.8,-0.9 1.4,-2.4 1.8,-4.1 m 5.9,-14 h 2.4 v 21.5 h -2.4 z m 4.6,21.5 7.1,-21.5 h 2.6 l 7.5,21.5 h -2.8 l -2.2,-6.5 h -7.7 l -2,6.5 z m 5.4,-8.8 h 6.3 l -1.9,-5.9 c -0.6,-1.8 -1,-3.3 -1.3,-4.5 -0.2,1.4 -0.6,2.7 -1,4.1 z m 13.8,8.8 V 60.6 h 2.4 v 19 h 9.1 v 2.6 z"
   id="path10" />
</g>
</svg>
